<?xml version="1.0" encoding="UTF-8" standalone="no"?>
<!-- Created with Inkscape (http://www.inkscape.org/) -->

<svg
   width="167.51451mm"
   height="150.19788mm"
   viewBox="0 0 167.51451 150.19788"
   version="1.1"
   id="svg5"
   inkscape:export-filename="utfall1.svg"
   inkscape:export-xdpi="96"
   inkscape:export-ydpi="96"
   xmlns:inkscape="http://www.inkscape.org/namespaces/inkscape"
   xmlns:sodipodi="http://sodipodi.sourceforge.net/DTD/sodipodi-0.dtd"
   xmlns="http://www.w3.org/2000/svg"
   xmlns:svg="http://www.w3.org/2000/svg">
  <sodipodi:namedview
     id="namedview7"
     pagecolor="#505050"
     bordercolor="#ffffff"
     borderopacity="1"
     inkscape:showpageshadow="0"
     inkscape:pageopacity="0"
     inkscape:pagecheckerboard="1"
     inkscape:deskcolor="#505050"
     inkscape:document-units="mm"
     showgrid="false" />
  <defs
     id="defs2" />
  <g
     inkscape:label="Lag 1"
     inkscape:groupmode="layer"
     id="layer1"
     transform="translate(-32.022404,-590.63408)">
    <g
       transform="matrix(0.26458333,0,0,0.26458333,-34.51865,575.99658)"
       id="g5502"
       inkscape:export-filename="addisjonssetning.svg"
       inkscape:export-xdpi="96"
       inkscape:export-ydpi="96">
      <path
         d="m 323.511,425 h 134.864 v 104.579 c 0,17.398 14.108,31.501 31.511,31.501 H 534 v 21.419 C 534,599.897 519.892,614 502.489,614 H 323.511 C 306.108,614 292,599.897 292,582.499 V 456.501 C 292,439.103 306.108,425 323.511,425 Z"
         stroke="#042433"
         stroke-width="2"
         stroke-miterlimit="8"
         fill="#c5e0b4"
         fill-rule="evenodd"
         fill-opacity="0.701961"
         id="path5486" />
      <path
         d="m 254,58 c 19.843,1.8877 31.927,0.5387 57.218,0 25.291,-0.5387 55.041,1.9936 76.058,0 21.016,-1.9936 35.493,-0.3829 57.217,0 21.724,0.3829 48.942,0.0226 63.498,0 14.556,-0.0226 42.4,2.052 76.058,0 33.658,-2.052 32.452,-1.6885 57.218,0 24.765,1.6885 49.839,-2.6139 63.497,0 13.659,2.6139 27.554,-1.302 50.938,0 23.384,1.302 83.541,-1.0656 126.298,0 0.885,13.4787 2.032,39.1367 0,66.4 -2.032,27.263 1.295,40.101 0,56.44 -1.295,16.339 0.366,41.725 0,56.44 -0.366,14.715 1.17,39.505 0,63.08 -1.17,23.575 -2.371,71.493 0,89.64 -11.372,1.618 -38.69,-1.915 -50.938,0 -12.248,1.915 -47.646,1.971 -82.338,0 -34.691,-1.971 -42.098,2.451 -82.337,0 -40.24,-2.451 -35.823,-0.316 -57.218,0 -21.395,0.316 -29.382,-0.346 -50.938,0 -21.555,0.346 -52.963,-2.965 -69.778,0 -16.815,2.965 -39.496,0.9 -57.217,0 -17.722,-0.9 -43.149,2.848 -63.498,0 -20.35,-2.848 -79.685,-3.444 -113.738,0 -1.428,-22.907 -0.799,-54.567 0,-73.04 0.799,-18.473 -0.253,-44.009 0,-63.08 0.253,-19.071 -1.222,-39.088 0,-66.4 1.222,-27.312 -1.809,-50.294 0,-69.72 1.809,-19.4262 -1.958,-45.4105 0,-59.76 z"
         fill="#f2f2f2"
         fill-rule="evenodd"
         id="path5488" />
      <path
         d="m 254,58 c 23.676,0.4478 55.807,-1.9204 69.778,0 13.971,1.9204 55.323,-0.9576 69.778,0 14.454,0.9576 39.124,3.3665 76.057,0 36.934,-3.3665 32.134,-0.1812 57.218,0 25.084,0.1812 35.241,-3.2087 69.778,0 34.536,3.2087 39.841,-2.1491 69.778,0 29.936,2.1491 31.592,2.7275 57.217,0 25.626,-2.7275 28.537,2.0993 50.938,0 22.402,-2.0993 76.848,-2.3582 107.458,0 1.531,11.3342 1.688,41.5452 0,56.44 -1.688,14.895 -3.426,40.561 0,69.72 3.426,29.159 0.416,42.41 0,66.4 -0.416,23.99 1.631,35.525 0,59.76 -1.631,24.235 3.649,40.905 0,79.68 -11.137,-1.931 -34.676,1.272 -50.938,0 -16.261,-1.272 -58.974,-1.368 -82.338,0 -23.363,1.368 -37.362,-0.907 -63.497,0 -26.136,0.907 -58.376,0.61 -82.338,0 -23.962,-0.61 -37.236,0.465 -69.778,0 -32.542,-0.465 -57.234,-2.773 -82.338,0 -25.104,2.773 -58.98,1.559 -76.057,0 -17.077,-1.559 -76.448,-2.438 -120.716,0 -1.442,-34.125 0.903,-44.154 0,-73.04 -0.903,-28.886 -0.208,-38.636 0,-59.76 0.208,-21.124 -2.982,-50.866 0,-69.72 2.982,-18.854 -4.562,-74.813 0,-129.48 z"
         stroke="#042433"
         stroke-width="2"
         stroke-miterlimit="8"
         fill="none"
         fill-rule="evenodd"
         id="path5490" />
      <path
         d="M 330,214.501 C 330,197.103 344.103,183 361.5,183 h 179 c 17.397,0 31.5,14.103 31.5,31.501 V 340.499 C 572,357.897 557.897,372 540.5,372 h -179 C 344.103,372 330,357.897 330,340.499 Z"
         stroke="#042433"
         stroke-width="2"
         stroke-miterlimit="8"
         fill="#c5e0b4"
         fill-rule="evenodd"
         fill-opacity="0.701961"
         id="path5492" />
      <path
         d="M 496,161.501 C 496,144.103 510.103,130 527.5,130 h 179 c 17.397,0 31.5,14.103 31.5,31.501 V 287.499 C 738,304.897 723.897,319 706.5,319 h -179 C 510.103,319 496,304.897 496,287.499 Z"
         stroke="#042433"
         stroke-width="2"
         stroke-miterlimit="8"
         fill="#f8cecc"
         fill-rule="evenodd"
         fill-opacity="0.701961"
         id="path5494" />
      <path
         d="M 648.511,425 H 827.489 C 844.892,425 859,439.103 859,456.501 V 582.499 C 859,599.897 844.892,614 827.489,614 H 692.625 V 509.421 c 0,-17.398 -14.108,-31.501 -31.511,-31.501 H 617 V 456.501 C 617,439.103 631.108,425 648.511,425 Z"
         stroke="#042433"
         stroke-width="2"
         stroke-miterlimit="8"
         fill="#f8cecc"
         fill-rule="evenodd"
         fill-opacity="0.701961"
         id="path5496" />
      <path
         d="m 466,418 h 44.333 C 527.822,418 542,432.095 542,449.482 V 554 H 497.667 C 480.178,554 466,539.905 466,522.518 Z"
         stroke="#042433"
         stroke-width="2"
         stroke-miterlimit="8"
         fill="#f2f2f2"
         fill-rule="evenodd"
         fill-opacity="0.701961"
         id="path5498" />
      <path
         d="m 610,486 h 43.749 C 671.009,486 685,500.095 685,517.482 V 622 H 641.251 C 623.991,622 610,607.905 610,590.518 Z"
         stroke="#042433"
         stroke-width="2"
         stroke-miterlimit="8"
         fill="#f2f2f2"
         fill-rule="evenodd"
         fill-opacity="0.701961"
         id="path5500" />
    </g>
  </g>
</svg>
