<?xml version="1.0" encoding="UTF-8" standalone="no"?>
<!-- Created with Inkscape (http://www.inkscape.org/) -->

<svg
   width="298.81567mm"
   height="127.59118mm"
   viewBox="0 0 298.81567 127.59118"
   version="1.1"
   id="svg5"
   inkscape:export-filename="utfall1.svg"
   inkscape:export-xdpi="96"
   inkscape:export-ydpi="96"
   xmlns:inkscape="http://www.inkscape.org/namespaces/inkscape"
   xmlns:sodipodi="http://sodipodi.sourceforge.net/DTD/sodipodi-0.dtd"
   xmlns="http://www.w3.org/2000/svg"
   xmlns:svg="http://www.w3.org/2000/svg">
  <sodipodi:namedview
     id="namedview7"
     pagecolor="#505050"
     bordercolor="#ffffff"
     borderopacity="1"
     inkscape:showpageshadow="0"
     inkscape:pageopacity="0"
     inkscape:pagecheckerboard="1"
     inkscape:deskcolor="#505050"
     inkscape:document-units="mm"
     showgrid="false" />
  <defs
     id="defs2" />
  <g
     inkscape:label="Lag 1"
     inkscape:groupmode="layer"
     id="layer1"
     transform="translate(-671.05775,-87.483312)">
    <g
       transform="matrix(0.26458333,0,0,0.26458333,646.24882,84.24217)"
       id="g29575"
       inkscape:export-filename="henrikogandrespiller.svg"
       inkscape:export-xdpi="96"
       inkscape:export-ydpi="96">
      <text
         font-family="Kalam, Kalam_MSFontService, sans-serif"
         font-weight="400"
         font-size="32px"
         transform="translate(91.3598,489)"
         id="text29457">7</text>
      <text
         font-family="Kalam, Kalam_MSFontService, sans-serif"
         font-weight="400"
         font-size="32px"
         transform="translate(106.193,489)"
         id="text29459">-</text>
      <text
         font-family="Kalam, Kalam_MSFontService, sans-serif"
         font-weight="400"
         font-size="32px"
         transform="translate(120.86,489)"
         id="text29461">2</text>
      <text
         font-family="Kalam, Kalam_MSFontService, sans-serif"
         font-weight="400"
         font-size="32px"
         transform="translate(242.194,488)"
         id="text29463">6</text>
      <text
         font-family="Kalam, Kalam_MSFontService, sans-serif"
         font-weight="400"
         font-size="32px"
         transform="translate(260.027,488)"
         id="text29465">-</text>
      <text
         font-family="Kalam, Kalam_MSFontService, sans-serif"
         font-weight="400"
         font-size="32px"
         transform="translate(274.694,488)"
         id="text29467">3</text>
      <text
         font-family="Kalam, Kalam_MSFontService, sans-serif"
         font-weight="400"
         font-size="32px"
         transform="translate(399.683,488)"
         id="text29469">6</text>
      <text
         font-family="Kalam, Kalam_MSFontService, sans-serif"
         font-weight="400"
         font-size="32px"
         transform="translate(417.516,488)"
         id="text29471">-</text>
      <text
         font-family="Kalam, Kalam_MSFontService, sans-serif"
         font-weight="400"
         font-size="32px"
         transform="translate(432.183,488)"
         id="text29473">3</text>
      <text
         font-family="Kalam, Kalam_MSFontService, sans-serif"
         font-weight="400"
         font-size="32px"
         transform="translate(555.781,488)"
         id="text29475">5</text>
      <text
         font-family="Kalam, Kalam_MSFontService, sans-serif"
         font-weight="400"
         font-size="32px"
         transform="translate(572.948,488)"
         id="text29477">-</text>
      <text
         font-family="Kalam, Kalam_MSFontService, sans-serif"
         font-weight="400"
         font-size="32px"
         transform="translate(587.614,488)"
         id="text29479">4</text>
      <path
         d="m 0,0 c 1.90793,-0.107087 3.30236,-0.0360105 4.79989,0 1.14909,14.1393 2.45964,43.4255 0,64.91 -2.45963,21.4845 1.65911,45.993 0,73.196 C 2.82247,138.205 0.994541,137.87 0,138.106 2.66016,117.78 -1.23864,94.4007 0,70.4342 1.23864,46.4677 1.10383,20.8873 0,0 Z"
         stroke="#f8cecc"
         stroke-width="2.66667"
         stroke-miterlimit="8"
         fill="none"
         fill-rule="evenodd"
         transform="matrix(-0.874273,-0.485435,-0.485435,0.874273,187.553,342.901)"
         id="path29481" />
      <path
         d="m 201.866,343.469 c 1.614,-1.024 2.866,-1.642 4.191,-2.341 12.82,27.454 25.709,40.591 31.544,56.482 5.834,15.891 22.524,36.791 35.57,63.693 -1.678,1.05 -3.437,1.649 -4.19,2.34 -5.684,-13.939 -18.709,-28.854 -32.886,-58.885 -14.178,-30.032 -25.789,-46.44 -34.229,-61.289 z"
         stroke="#c5e0b4"
         stroke-width="2.66667"
         stroke-miterlimit="8"
         fill="none"
         fill-rule="evenodd"
         id="path29483" />
      <text
         font-family="Kalam, Kalam_MSFontService, sans-serif"
         font-weight="400"
         font-size="32px"
         transform="translate(171.502,338)"
         id="text29485">6</text>
      <text
         font-family="Kalam, Kalam_MSFontService, sans-serif"
         font-weight="400"
         font-size="32px"
         transform="translate(189.335,338)"
         id="text29487">-</text>
      <text
         font-family="Kalam, Kalam_MSFontService, sans-serif"
         font-weight="400"
         font-size="32px"
         transform="translate(204.002,338)"
         id="text29489">2</text>
      <path
         d="m 0,0 c 1.90793,-0.107087 3.30236,-0.0360105 4.79989,0 1.14909,14.1393 2.45964,43.4255 0,64.91 -2.45963,21.4845 1.65911,45.993 0,73.196 C 2.82247,138.205 0.994541,137.87 0,138.106 2.66016,117.78 -1.23864,94.4007 0,70.4342 1.23864,46.4677 1.10383,20.8873 0,0 Z"
         stroke="#f8cecc"
         stroke-width="2.66667"
         stroke-miterlimit="8"
         fill="none"
         fill-rule="evenodd"
         transform="matrix(-0.874273,-0.485435,-0.485435,0.874273,498.837,341.632)"
         id="path29491" />
      <path
         d="m 513.15,342.201 c 1.614,-1.024 2.866,-1.642 4.191,-2.341 12.82,27.454 25.709,40.591 31.544,56.482 5.834,15.891 22.524,36.791 35.57,63.693 -1.678,1.05 -3.437,1.649 -4.19,2.34 -5.684,-13.939 -18.709,-28.854 -32.886,-58.885 -14.178,-30.032 -25.789,-46.44 -34.229,-61.289 z"
         stroke="#c5e0b4"
         stroke-width="2.66667"
         stroke-miterlimit="8"
         fill="none"
         fill-rule="evenodd"
         id="path29493" />
      <text
         font-family="Kalam, Kalam_MSFontService, sans-serif"
         font-weight="400"
         font-size="32px"
         transform="translate(477.275,342)"
         id="text29495">5</text>
      <text
         font-family="Kalam, Kalam_MSFontService, sans-serif"
         font-weight="400"
         font-size="32px"
         transform="translate(494.441,342)"
         id="text29497">-</text>
      <text
         font-family="Kalam, Kalam_MSFontService, sans-serif"
         font-weight="400"
         font-size="32px"
         transform="translate(509.108,342)"
         id="text29499">3</text>
      <path
         d="m 0,0 c 1.90793,-0.107087 3.30236,-0.0360105 4.79989,0 1.14909,14.1393 2.45964,43.4255 0,64.91 -2.45963,21.4845 1.65911,45.993 0,73.196 C 2.82247,138.205 0.994541,137.87 0,138.106 2.66016,117.78 -1.23864,94.4007 0,70.4342 1.23864,46.4677 1.10383,20.8873 0,0 Z"
         stroke="#f8cecc"
         stroke-width="2.66667"
         stroke-miterlimit="8"
         fill="none"
         fill-rule="evenodd"
         transform="matrix(-0.874273,-0.485435,-0.485435,0.874273,806.23,344.869)"
         id="path29501" />
      <path
         d="m 820.544,345.438 c 1.613,-1.024 2.866,-1.642 4.191,-2.341 12.82,27.454 25.709,40.591 31.543,56.482 5.835,15.891 22.525,36.79 35.571,63.693 -1.678,1.05 -3.438,1.649 -4.191,2.34 -5.684,-13.939 -18.708,-28.854 -32.886,-58.885 -14.177,-30.032 -25.789,-46.44 -34.228,-61.289 z"
         stroke="#c5e0b4"
         stroke-width="2.66667"
         stroke-miterlimit="8"
         fill="none"
         fill-rule="evenodd"
         id="path29503" />
      <path
         d="m 0,0 c 1.90793,-0.107087 3.30236,-0.0360105 4.79989,0 1.14909,14.1393 2.45964,43.4255 0,64.91 -2.45963,21.4845 1.65911,45.993 0,73.196 C 2.82247,138.205 0.994541,137.87 0,138.106 2.66016,117.78 -1.23864,94.4007 0,70.4342 1.23864,46.4677 1.10383,20.8873 0,0 Z"
         stroke="#f8cecc"
         stroke-width="2.66667"
         stroke-miterlimit="8"
         fill="none"
         fill-rule="evenodd"
         transform="matrix(-0.874273,-0.485435,-0.485435,0.874273,1117.51,343.601)"
         id="path29505" />
      <path
         d="m 1131.83,344.169 c 1.61,-1.023 2.86,-1.641 4.19,-2.34 12.82,27.454 25.71,40.591 31.54,56.482 5.84,15.891 22.53,36.79 35.57,63.692 -1.68,1.051 -3.43,1.65 -4.19,2.341 -5.68,-13.94 -18.71,-28.854 -32.88,-58.886 -14.18,-30.031 -25.79,-46.439 -34.23,-61.289 z"
         stroke="#c5e0b4"
         stroke-width="2.66667"
         stroke-miterlimit="8"
         fill="none"
         fill-rule="evenodd"
         id="path29507" />
      <path
         d="m 0,0 c 1.90793,-0.107087 3.30236,-0.0360105 4.79989,0 -0.86257,16.5859 -1.22435,31.945 0,48.7077 1.22436,16.7627 1.38216,29.6472 0,56.7363 -1.38215,27.09 0.74919,43.568 0,55.131 -2.1623,-0.043 -3.830546,0.008 -4.79989,0 C -0.488084,148.384 1.74457,121.962 0,103.839 -1.74457,85.7147 2.4127,69.2511 0,47.102 -2.4127,24.9531 -1.91433,12.6584 0,0 Z"
         stroke="#f8cecc"
         stroke-width="2.66667"
         stroke-miterlimit="8"
         fill="none"
         fill-rule="evenodd"
         transform="matrix(-0.623715,-0.781652,-0.781652,0.623715,337.316,210.047)"
         id="path29509" />
      <text
         font-family="Kalam, Kalam_MSFontService, sans-serif"
         font-weight="400"
         font-size="32px"
         transform="translate(637.458,36)"
         id="text29511">4</text>
      <text
         font-family="Kalam, Kalam_MSFontService, sans-serif"
         font-weight="400"
         font-size="32px"
         transform="translate(655.125,36)"
         id="text29513">-</text>
      <text
         font-family="Kalam, Kalam_MSFontService, sans-serif"
         font-weight="400"
         font-size="32px"
         transform="translate(669.791,36)"
         id="text29515">2</text>
      <path
         d="m 0,0 c 1.90793,-0.107087 3.30236,-0.0360105 4.79989,0 -0.63328,13.1516 -1.70677,34.1407 0,47.3193 1.70678,13.1785 -1.48776,34.9234 0,55.1197 1.48777,20.195 2.23675,32.501 0,53.559 -2.1623,-0.043 -3.830546,0.008 -4.79989,0 C -1.55738,139.45 -2.49134,118.875 0,100.879 2.49134,82.8821 2.4968,65.7455 0,45.7594 -2.4968,25.7732 -2.27989,19.754 0,0 Z"
         stroke="#c5e0b4"
         stroke-width="2.66667"
         stroke-miterlimit="8"
         fill="none"
         fill-rule="evenodd"
         transform="matrix(-0.674137,0.738607,0.738607,0.674137,376.959,206.003)"
         id="path29517" />
      <path
         d="m 0,0 c 1.90793,-0.107087 3.30236,-0.0360105 4.79989,0 -0.86257,16.5859 -1.22435,31.945 0,48.7077 1.22436,16.7627 1.38216,29.6472 0,56.7363 -1.38215,27.09 0.74919,43.568 0,55.131 -2.1623,-0.043 -3.830546,0.008 -4.79989,0 C -0.488084,148.384 1.74457,121.962 0,103.839 -1.74457,85.7147 2.4127,69.2511 0,47.102 -2.4127,24.9531 -1.91433,12.6584 0,0 Z"
         stroke="#f8cecc"
         stroke-width="2.66667"
         stroke-miterlimit="8"
         fill="none"
         fill-rule="evenodd"
         transform="matrix(-0.623715,-0.781652,-0.781652,0.623715,956.913,212.8)"
         id="path29519" />
      <path
         d="m 0,0 c 1.90793,-0.107087 3.30236,-0.0360105 4.79989,0 -0.63328,13.1516 -1.70677,34.1407 0,47.3193 1.70678,13.1785 -1.48776,34.9234 0,55.1197 1.48777,20.195 2.23675,32.501 0,53.559 -2.1623,-0.043 -3.830546,0.008 -4.79989,0 C -1.55738,139.45 -2.49134,118.875 0,100.879 2.49134,82.8821 2.4968,65.7455 0,45.7594 -2.4968,25.7732 -2.27989,19.754 0,0 Z"
         stroke="#c5e0b4"
         stroke-width="2.66667"
         stroke-miterlimit="8"
         fill="none"
         fill-rule="evenodd"
         transform="matrix(-0.674137,0.738607,0.738607,0.674137,996.556,208.756)"
         id="path29521" />
      <path
         d="m 0,0 c 1.90793,-0.107087 3.30236,-0.0360105 4.79989,0 1.17071,16.1456 -2.2295,29.1761 0,51.8054 2.22951,22.6292 -0.00125,41.1668 0,67.0426 0.00126,25.875 2.8547,38.17 0,60.947 -2.85469,22.777 -0.74099,32.375 0,54.853 0.741,22.477 2.34552,45.822 0,70.09 C 2.4085,304.631 1.35454,304.581 0,304.738 0.787717,278.414 1.59381,259.789 0,237.695 -1.59381,215.602 1.49963,191.007 0,170.653 -1.49963,150.299 2.24682,126.131 0,112.753 -2.24682,99.375 -0.546772,80.4513 0,54.8528 0.546772,29.2543 -1.50824,21.7304 0,0 Z"
         stroke="#f8cecc"
         stroke-width="2.66667"
         stroke-miterlimit="8"
         fill="none"
         fill-rule="evenodd"
         transform="matrix(-0.482946,-0.87565,-0.87565,0.482946,645.854,42.1842)"
         id="path29523" />
      <path
         d="m 0,0 c 1.90793,-0.107087 3.30236,-0.0360105 4.7999,0 1.1707,16.1456 -2.22951,29.1761 0,51.8054 2.2295,22.6292 -0.00126,41.1668 0,67.0426 0.00126,25.875 2.85469,38.17 0,60.947 -2.8547,22.777 -0.741,32.376 0,54.853 0.74099,22.477 2.34551,45.822 0,70.09 -2.3914,-0.107 -3.44536,-0.157 -4.7999,0 0.787717,-26.324 1.59381,-44.949 0,-67.043 -1.59381,-22.093 1.49963,-46.688 0,-67.042 -1.49963,-20.354 2.24682,-44.522 0,-57.9 C -2.24682,99.375 -0.546772,80.4513 0,54.8528 0.546772,29.2543 -1.50824,21.7304 0,0 Z"
         stroke="#c5e0b4"
         stroke-width="2.66667"
         stroke-miterlimit="8"
         fill="none"
         fill-rule="evenodd"
         transform="matrix(-0.51399,0.857796,0.857796,0.51399,692.38,35.4831)"
         id="path29525" />
      <text
         font-family="Kalam, Kalam_MSFontService, sans-serif"
         font-weight="400"
         font-size="32px"
         transform="translate(324.642,202)"
         id="text29527">5</text>
      <text
         font-family="Kalam, Kalam_MSFontService, sans-serif"
         font-weight="400"
         font-size="32px"
         transform="translate(341.808,202)"
         id="text29529">-</text>
      <text
         font-family="Kalam, Kalam_MSFontService, sans-serif"
         font-weight="400"
         font-size="32px"
         transform="translate(356.475,202)"
         id="text29531">2</text>
      <text
         font-family="Kalam, Kalam_MSFontService, sans-serif"
         font-weight="400"
         font-size="32px"
         transform="translate(953.768,209)"
         id="text29533">4</text>
      <text
         font-family="Kalam, Kalam_MSFontService, sans-serif"
         font-weight="400"
         font-size="32px"
         transform="translate(971.434,209)"
         id="text29535">-</text>
      <text
         font-family="Kalam, Kalam_MSFontService, sans-serif"
         font-weight="400"
         font-size="32px"
         transform="translate(986.101,209)"
         id="text29537">3</text>
      <text
         font-family="Kalam, Kalam_MSFontService, sans-serif"
         font-weight="400"
         font-size="32px"
         transform="translate(791.749,338)"
         id="text29539">5</text>
      <text
         font-family="Kalam, Kalam_MSFontService, sans-serif"
         font-weight="400"
         font-size="32px"
         transform="translate(808.916,338)"
         id="text29541">-</text>
      <text
         font-family="Kalam, Kalam_MSFontService, sans-serif"
         font-weight="400"
         font-size="32px"
         transform="translate(823.582,338)"
         id="text29543">3</text>
      <text
         font-family="Kalam, Kalam_MSFontService, sans-serif"
         font-weight="400"
         font-size="32px"
         transform="translate(707.541,488)"
         id="text29545">6</text>
      <text
         font-family="Kalam, Kalam_MSFontService, sans-serif"
         font-weight="400"
         font-size="32px"
         transform="translate(725.374,488)"
         id="text29547">-</text>
      <text
         font-family="Kalam, Kalam_MSFontService, sans-serif"
         font-weight="400"
         font-size="32px"
         transform="translate(740.041,488)"
         id="text29549">3</text>
      <text
         font-family="Kalam, Kalam_MSFontService, sans-serif"
         font-weight="400"
         font-size="32px"
         transform="translate(863.195,493)"
         id="text29551">5</text>
      <text
         font-family="Kalam, Kalam_MSFontService, sans-serif"
         font-weight="400"
         font-size="32px"
         transform="translate(880.361,493)"
         id="text29553">-</text>
      <text
         font-family="Kalam, Kalam_MSFontService, sans-serif"
         font-weight="400"
         font-size="32px"
         transform="translate(895.028,493)"
         id="text29555">4</text>
      <text
         font-family="Kalam, Kalam_MSFontService, sans-serif"
         font-weight="400"
         font-size="32px"
         transform="translate(1096.15,341)"
         id="text29557">4</text>
      <text
         font-family="Kalam, Kalam_MSFontService, sans-serif"
         font-weight="400"
         font-size="32px"
         transform="translate(1113.81,341)"
         id="text29559">-</text>
      <text
         font-family="Kalam, Kalam_MSFontService, sans-serif"
         font-weight="400"
         font-size="32px"
         transform="translate(1128.48,341)"
         id="text29561">4</text>
      <text
         font-family="Kalam, Kalam_MSFontService, sans-serif"
         font-weight="400"
         font-size="32px"
         transform="translate(1018.85,492)"
         id="text29563">5</text>
      <text
         font-family="Kalam, Kalam_MSFontService, sans-serif"
         font-weight="400"
         font-size="32px"
         transform="translate(1036.02,492)"
         id="text29565">-</text>
      <text
         font-family="Kalam, Kalam_MSFontService, sans-serif"
         font-weight="400"
         font-size="32px"
         transform="translate(1050.68,492)"
         id="text29567">4</text>
      <text
         font-family="Kalam, Kalam_MSFontService, sans-serif"
         font-weight="400"
         font-size="32px"
         transform="translate(1172.74,494)"
         id="text29569">4</text>
      <text
         font-family="Kalam, Kalam_MSFontService, sans-serif"
         font-weight="400"
         font-size="32px"
         transform="translate(1190.41,494)"
         id="text29571">-</text>
      <text
         font-family="Kalam, Kalam_MSFontService, sans-serif"
         font-weight="400"
         font-size="32px"
         transform="translate(1205.07,494)"
         id="text29573">5</text>
    </g>
  </g>
</svg>
