<?xml version="1.0" encoding="UTF-8" standalone="no"?>
<!-- Created with Inkscape (http://www.inkscape.org/) -->

<svg
   width="241.60532mm"
   height="133.08023mm"
   viewBox="0 0 241.60532 133.08023"
   version="1.1"
   id="svg5"
   inkscape:export-filename="utfall1.svg"
   inkscape:export-xdpi="96"
   inkscape:export-ydpi="96"
   xmlns:inkscape="http://www.inkscape.org/namespaces/inkscape"
   xmlns:sodipodi="http://sodipodi.sourceforge.net/DTD/sodipodi-0.dtd"
   xmlns="http://www.w3.org/2000/svg"
   xmlns:svg="http://www.w3.org/2000/svg">
  <sodipodi:namedview
     id="namedview7"
     pagecolor="#505050"
     bordercolor="#ffffff"
     borderopacity="1"
     inkscape:showpageshadow="0"
     inkscape:pageopacity="0"
     inkscape:pagecheckerboard="1"
     inkscape:deskcolor="#505050"
     inkscape:document-units="mm"
     showgrid="false" />
  <defs
     id="defs2" />
  <g
     inkscape:label="Lag 1"
     inkscape:groupmode="layer"
     id="layer1"
     transform="translate(-265.54905,-171.94082)">
    <g
       transform="matrix(0.26458333,0,0,0.26458333,217.09844,148.64927)"
       id="g4774">
      <path
         d="m 186,136 c 24.639,-1.203 33.809,-2.416 51.686,0 17.877,2.416 59.605,3.159 78.926,0 19.322,-3.159 31.881,2.353 51.686,0 19.806,-2.353 38.97,-0.254 60.767,0 21.797,0.254 49.844,3.585 78.926,0 29.082,-3.585 32.607,0.517 51.686,0 19.079,-0.517 34.944,0.364 60.766,0 25.822,-0.364 29.33,-0.831 42.606,0 13.276,0.831 61.235,4.215 88.006,0 26.772,-4.215 41.603,1.939 69.846,0 28.244,-1.939 52.3,2.703 78.927,0 26.627,-2.703 51.346,-3.414 69.846,0 18.499,3.414 36.756,0.735 51.686,0 14.93,-0.735 57.15,3.565 72.64,0 -0.89,14.481 1.26,34.2 0,60.051 -1.26,25.852 -1.88,51.58 0,69.092 1.88,17.512 -3.01,53.414 0,73.611 3.01,20.197 -1.68,28.762 0,55.532 1.68,26.77 -0.79,50.139 0,73.611 0.79,23.472 -3.82,92.622 0,120.103 -11.96,1.805 -24.55,1.085 -42.61,0 -18.05,-1.085 -35.73,1.93 -60.762,0 -25.028,-1.93 -62.902,3.865 -78.927,0 -16.024,-3.865 -50.585,-0.677 -88.006,0 -37.42,0.677 -44.344,3.43 -78.926,0 -34.582,-3.43 -50.316,-0.697 -69.846,0 -19.529,0.697 -21.947,-1.008 -42.606,0 -20.659,1.008 -26.222,-1.034 -42.606,0 -16.385,1.034 -54.027,2.66 -88.006,0 -33.98,-2.66 -52.003,-1.692 -88.007,0 -36.003,1.692 -57.998,-4.113 -88.006,0 -30.008,4.113 -39.04,-2.348 -51.686,0 -12.646,2.348 -52.542,-1.913 -88.006,0 -0.997,-19.767 -0.003,-45.85 0,-60.051 0.003,-14.202 -2.535,-51.123 0,-69.092 2.535,-17.969 1.818,-39.512 0,-55.531 -1.818,-16.019 1.719,-46.798 0,-60.052 -1.719,-13.254 1.982,-32.008 0,-60.051 -1.982,-28.043 -0.406,-44.546 0,-73.612 0.406,-29.065 -0.739,-50.837 0,-73.611 z"
         fill="#f2f2f2"
         fill-rule="evenodd"
         id="path4762" />
      <path
         d="m 186,136 c 13.459,2.787 44.61,-2.981 60.766,0 16.156,2.981 33.131,-0.256 51.686,0 18.556,0.256 38.155,-2.943 69.846,0 31.692,2.943 55.47,2.826 69.847,0 14.376,-2.826 46.867,1.91 60.766,0 13.899,-1.91 32.194,-1.314 42.606,0 10.412,1.314 68.838,3.478 88.006,0 19.168,-3.478 31.378,-0.919 42.606,0 11.228,0.919 52.674,0.961 78.926,0 26.253,-0.961 58.771,-2.835 88.007,0 29.235,2.835 27.693,1.495 51.686,0 23.992,-1.495 50.643,-2.225 69.846,0 19.203,2.225 34.891,2.059 60.766,0 25.87,-2.059 42.95,1.302 72.64,0 -3.42,15.021 0.3,36.861 0,69.091 -0.3,32.231 0.66,38.473 0,69.092 -0.66,30.619 0.27,54.681 0,73.611 -0.27,18.93 -2.04,37.466 0,55.532 2.04,18.066 -2.64,31.477 0,60.051 2.64,28.574 0.43,41.529 0,55.532 -0.43,14.002 -1.96,35.228 0,69.091 -20.44,0.158 -26.91,-0.399 -42.61,0 -15.69,0.399 -27.08,-0.709 -42.6,0 -15.524,0.709 -29.274,-2.495 -51.688,0 -22.415,2.495 -36.255,0.35 -69.847,0 -33.592,-0.35 -30.441,0.764 -42.606,0 -12.165,-0.764 -60.854,-10e-4 -88.006,0 -27.152,10e-4 -45.367,-4.256 -88.006,0 -42.639,4.256 -41.29,0.522 -69.846,0 -28.557,-0.522 -28.253,-1.824 -42.606,0 -14.354,1.824 -46.544,0.464 -69.846,0 -23.303,-0.464 -35.81,-3.037 -69.847,0 -34.036,3.037 -39.2,-1.088 -69.846,0 -30.646,1.088 -28.534,-1.367 -51.686,0 -23.152,1.367 -70.65,1.051 -108.96,0 1.677,-22.728 2.334,-42.382 0,-60.051 -2.334,-17.669 0.539,-32.506 0,-55.532 -0.539,-23.025 1.743,-29.284 0,-55.531 -1.743,-26.248 -1.109,-43.922 0,-55.532 1.109,-11.61 2.708,-39.286 0,-64.571 -2.708,-25.285 -2.303,-35.855 0,-64.572 2.303,-28.716 0.382,-57.09 0,-96.211 z"
         stroke="#042433"
         stroke-width="2"
         stroke-miterlimit="8"
         fill="none"
         fill-rule="evenodd"
         id="path4764" />
      <text
         font-family="Handlee, Handlee_MSFontService, sans-serif"
         font-weight="400"
         font-size="53px"
         transform="translate(196.006,129)"
         id="text4766">Areal av utfallsrommet: 1</text>
      <path
         d="m 254,378.501 c -0.726,-15.084 8.943,-25.406 26.487,-26.501 21.605,0.965 31.053,0.433 61.297,0 30.244,-0.433 31.805,-1.82 54.486,0 22.681,1.82 37.329,-0.402 52.216,0 14.887,0.402 36.315,0.778 59.027,0 16.147,-3.126 24.525,11.564 26.487,26.501 -2.227,22.659 2.359,34.808 0,52.999 -2.359,18.191 2.358,36.665 0,52.999 2.749,15.298 -13.063,26.306 -26.487,26.501 -13.375,-2.014 -30.478,-0.201 -56.756,0 -26.278,0.201 -35.872,-2.192 -54.487,0 -18.614,2.192 -40.278,1.653 -61.297,0 -21.018,-1.653 -34.999,-2.294 -54.486,0 -17.599,0.488 -28.559,-13.295 -26.487,-26.501 -0.618,-12.592 2.549,-41.75 0,-54.059 -2.549,-12.309 1.805,-36.016 0,-51.939 z"
         fill="#c5e0b4"
         fill-rule="evenodd"
         id="path4768" />
      <path
         d="m 254,378.501 c -1.129,-12.616 12.882,-25.74 26.487,-26.501 16.224,-0.217 40.445,2.444 52.216,0 11.771,-2.444 28.857,0.369 56.756,0 27.9,-0.369 32.012,2.354 52.216,0 20.205,-2.354 41.75,0.699 65.838,0 11.303,-0.188 28.848,13.898 26.487,26.501 2.367,13.968 -1.69,34.017 0,52.999 1.69,18.982 -1.273,28.431 0,52.999 -0.133,11.873 -10.24,27.521 -26.487,26.501 -19.023,-1.852 -36.44,2.118 -54.486,0 -18.047,-2.118 -29.857,-1.312 -49.946,0 -20.089,1.312 -43.05,-1.571 -59.027,0 -15.976,1.571 -44.635,-0.191 -63.567,0 -16.373,0.979 -26.17,-11.006 -26.487,-26.501 1.206,-24.643 -1.365,-29.511 0,-55.119 1.365,-25.608 -0.463,-28.861 0,-50.879 z"
         stroke="#042433"
         stroke-width="2"
         stroke-miterlimit="8"
         fill="none"
         fill-rule="evenodd"
         id="path4770" />
      <text
         font-family="Handlee, Handlee_MSFontService, sans-serif"
         font-weight="400"
         font-size="53px"
         transform="translate(375.803,445)"
         id="text4772">A</text>
    </g>
  </g>
</svg>
