<svg width="1280" height="720" xmlns="http://www.w3.org/2000/svg" xmlns:xlink="http://www.w3.org/1999/xlink" overflow="hidden"><defs><clipPath id="clip0"><rect x="0" y="0" width="1280" height="720"/></clipPath></defs><g clip-path="url(#clip0)"><rect x="0" y="0" width="1280" height="720" fill="#FFFFFF"/><path d="M500 286.5C487.877 196.453 560.537 140.663 657 137 764.773 141.436 797.55 204.457 814 286.5 805.207 377.657 740.148 455.687 657 436 558.377 429.479 505.878 371.876 500 286.5Z" stroke="#2F528F" stroke-width="8" stroke-linejoin="round" stroke-miterlimit="10" fill="none" fill-rule="evenodd"/><path d="M273 316.5C266.056 229.649 334.48 170.308 430 167 526.046 168.967 573.161 234.374 587 316.5 581.382 404.555 515.716 471.491 430 466 332.816 460.266 280.612 402.705 273 316.5Z" stroke="#548235" stroke-width="8" stroke-linejoin="round" stroke-miterlimit="10" fill="none" fill-rule="evenodd"/><path d="M398.5 459C389.368 363.625 456.117 299.658 546 296.5 648.905 301.011 688.793 369.403 693.5 459 688.244 553.875 623.858 641.406 546 621.5 451.678 614.47 417.603 557.867 398.5 459Z" stroke="#C55A11" stroke-width="8.66667" stroke-linejoin="round" stroke-miterlimit="10" fill="none" fill-rule="evenodd"/><text font-family="Handlee,Handlee_MSFontService,sans-serif" font-weight="700" font-size="24" transform="translate(290.505 162)">4 gangen</text><text font-family="Handlee,Handlee_MSFontService,sans-serif" font-weight="700" font-size="24" transform="translate(778.118 150)">11 gangen</text><text font-family="Handlee,Handlee_MSFontService,sans-serif" font-weight="700" font-size="24" transform="translate(623.14 649)">59 gangen</text></g></svg>