<?xml version="1.0" encoding="UTF-8" standalone="no"?>
<!-- Created with Inkscape (http://www.inkscape.org/) -->

<svg
   width="240.44092mm"
   height="121.43848mm"
   viewBox="0 0 240.44092 121.43848"
   version="1.1"
   id="svg5"
   inkscape:export-filename="utfall1.svg"
   inkscape:export-xdpi="96"
   inkscape:export-ydpi="96"
   xmlns:inkscape="http://www.inkscape.org/namespaces/inkscape"
   xmlns:sodipodi="http://sodipodi.sourceforge.net/DTD/sodipodi-0.dtd"
   xmlns="http://www.w3.org/2000/svg"
   xmlns:svg="http://www.w3.org/2000/svg">
  <sodipodi:namedview
     id="namedview7"
     pagecolor="#505050"
     bordercolor="#ffffff"
     borderopacity="1"
     inkscape:showpageshadow="0"
     inkscape:pageopacity="0"
     inkscape:pagecheckerboard="1"
     inkscape:deskcolor="#505050"
     inkscape:document-units="mm"
     showgrid="false" />
  <defs
     id="defs2" />
  <g
     inkscape:label="Lag 1"
     inkscape:groupmode="layer"
     id="layer1"
     transform="translate(-591.68025,-620.9257)">
    <g
       transform="matrix(0.26458333,0,0,0.26458333,522.94542,586.15945)"
       id="g20312">
      <path
         d="m 262,136 c 25.474,-1.279 36.016,-1.569 55.409,0 19.392,1.569 43.798,2.056 68.938,0 25.141,-2.056 39.986,1.404 55.409,0 15.422,-1.404 32.298,-2.635 59.918,0 27.621,2.635 36.51,-0.756 68.939,0 32.429,0.756 34.333,1.356 55.408,0 21.076,-1.356 61.616,3.198 86.979,0 -1.188,24.061 -1.644,35.539 0,51.011 1.644,15.473 -3.138,40.794 0,73.612 3.138,32.817 -1.44,38.969 0,51.011 1.44,12.042 -1.289,39.251 0,51.012 1.289,11.76 1.978,36.215 0,51.011 -1.978,14.796 2.914,44.726 0,60.052 -2.914,15.325 1.667,41.047 0,55.531 -1.667,14.484 -1.3,29.667 0,58.76 -29.713,-0.353 -49.278,-1.311 -68.939,0 -19.66,1.311 -42.693,-1.675 -73.448,0 -30.755,1.675 -28.324,-0.29 -55.409,0 -27.084,0.29 -30.594,0.18 -50.898,0 -20.304,-0.18 -34.844,-1.699 -64.429,0 -29.585,1.699 -28.573,-0.498 -55.408,0 -26.836,0.498 -51.822,1.861 -82.469,0 3.363,-23.394 -2.557,-41.003 0,-69.091 2.557,-28.089 3.013,-45.797 0,-64.572 -3.013,-18.775 2.169,-42.208 0,-60.051 -2.169,-17.843 -2.571,-40.79 0,-64.572 2.571,-23.781 -0.554,-38.525 0,-69.091 0.554,-30.566 -0.917,-39.579 0,-60.052 0.917,-20.472 1.093,-41.892 0,-64.571 z"
         fill="#f2f2f2"
         fill-rule="evenodd"
         id="path20286" />
      <path
         d="m 262,136 c 13.551,0.607 27.893,-0.032 50.899,0 23.005,0.032 51.924,3.171 68.938,0 17.014,-3.171 41.362,-0.751 55.409,0 14.046,0.751 32.863,1.355 64.428,0 31.566,-1.355 42.388,-2.527 64.429,0 22.04,2.527 38.426,-1.478 55.408,0 16.982,1.478 72.453,-0.433 91.489,0 -0.86,29.291 0.563,40.024 0,60.051 -0.563,20.027 -1.714,40.381 0,64.572 1.714,24.191 1.839,49.766 0,69.091 -1.839,19.326 -0.792,35.441 0,64.572 0.792,29.131 1.125,32.758 0,55.531 -1.125,22.773 -0.638,32.446 0,60.052 0.638,27.605 1.616,50.189 0,78.131 -23.164,-3.403 -54.188,-0.892 -68.939,0 -14.75,0.892 -32.247,-2.852 -59.918,0 -27.672,2.852 -41.442,0.475 -73.449,0 -32.006,-0.475 -45.539,2.265 -64.428,0 -18.889,-2.265 -56.668,3.281 -73.449,0 -16.781,-3.281 -86.602,-4.2 -110.817,0 0.159,-32.983 2.064,-46.209 0,-69.091 -2.064,-22.883 1.812,-30.858 0,-60.052 -1.812,-29.194 -0.79,-41.671 0,-55.531 0.79,-13.86 3.421,-35.749 0,-69.092 -3.421,-33.343 3.508,-53.152 0,-73.611 -3.508,-20.459 1.906,-47.588 0,-60.052 -1.906,-12.463 3.05,-36.801 0,-64.571 z"
         stroke="#042433"
         stroke-width="2"
         stroke-miterlimit="8"
         fill="none"
         fill-rule="evenodd"
         id="path20288" />
      <path
         d="m 715,134 c 25.474,-1.278 36.016,-1.569 55.409,0 19.392,1.569 43.798,2.056 68.938,0 25.141,-2.056 39.986,1.404 55.409,0 15.422,-1.404 32.298,-2.635 59.918,0 27.621,2.635 36.51,-0.756 68.936,0 32.43,0.756 34.34,1.356 55.41,0 21.08,-1.356 61.62,3.197 86.98,0 2.22,11.255 -0.39,40.851 0,51.237 0.39,10.386 -3.49,54.311 0,73.937 3.49,19.626 -2.49,34.277 0,51.237 2.49,16.961 -1.01,34.506 0,51.238 1.01,16.732 -2.18,32.151 0,51.237 2.18,19.085 -0.9,33.646 0,60.317 0.9,26.671 -2.02,42.336 0,55.777 2.02,13.441 -1.61,38.765 0,59.02 -29.71,-0.353 -49.28,-1.311 -68.94,0 -19.66,1.311 -42.69,-1.675 -73.45,0 -30.752,1.675 -28.321,-0.29 -55.406,0 -27.084,0.289 -30.594,0.18 -50.898,0 -20.304,-0.18 -34.844,-1.699 -64.429,0 -29.585,1.699 -28.573,-0.498 -55.408,0 -26.836,0.498 -51.822,1.861 -82.469,0 -2.875,-19.612 2.764,-45.387 0,-69.397 -2.764,-24.01 2.076,-50.34 0,-64.857 -2.076,-14.518 0.006,-44.234 0,-60.317 -0.006,-16.084 -3.011,-36.313 0,-64.858 3.011,-28.544 3.446,-39.75 0,-69.397 -3.446,-29.647 -0.786,-38.995 0,-60.317 0.786,-21.322 1.614,-45.484 0,-64.857 z"
         fill="#c5e0b4"
         fill-rule="evenodd"
         id="path20290" />
      <path
         d="m 715,134 c 13.551,0.607 27.893,-0.032 50.899,0 23.005,0.032 51.924,3.171 68.938,0 17.014,-3.171 41.362,-0.751 55.409,0 14.046,0.751 32.863,1.355 64.428,0 31.566,-1.355 42.388,-2.527 64.426,0 22.04,2.527 38.43,-1.478 55.41,0 16.98,1.478 72.45,-0.433 91.49,0 0.36,17.48 2.18,39.845 0,60.317 -2.18,20.472 1.67,43.954 0,64.857 -1.67,20.904 1.58,52.714 0,69.397 -1.58,16.684 -0.07,41.312 0,64.858 0.07,23.545 -2.04,36.033 0,55.777 2.04,19.744 2.05,45.816 0,60.317 -2.05,14.501 -3.13,59.306 0,78.477 -23.16,-3.403 -54.19,-0.892 -68.94,0 -14.75,0.892 -32.25,-2.852 -59.92,0 -27.67,2.852 -41.439,0.475 -73.446,0 -32.006,-0.475 -45.539,2.265 -64.428,0 -18.889,-2.265 -56.668,3.281 -73.449,0 -16.781,-3.281 -86.602,-4.2 -110.817,0 0.123,-14.296 3.113,-35.702 0,-69.397 -3.113,-33.695 2.973,-46.246 0,-60.317 -2.973,-14.072 -1.742,-28.544 0,-55.777 1.742,-27.233 -3.323,-48.389 0,-69.398 3.323,-21.008 1.731,-37.17 0,-73.937 -1.731,-36.766 -0.968,-39.297 0,-60.317 0.968,-21.02 -3.018,-35.784 0,-64.857 z"
         stroke="#042433"
         stroke-width="2"
         stroke-miterlimit="8"
         fill="none"
         fill-rule="evenodd"
         id="path20292" />
      <text
         font-family="Kalam, Kalam_MSFontService, sans-serif"
         font-weight="400"
         font-size="40px"
         transform="translate(375.24,345)"
         id="text20294">Stillingen blir</text>
      <text
         font-family="Kalam, Kalam_MSFontService, sans-serif"
         font-weight="400"
         font-size="40px"
         transform="translate(463.907,393)"
         id="text20296">4</text>
      <text
         font-family="Kalam, Kalam_MSFontService, sans-serif"
         font-weight="400"
         font-size="40px"
         transform="translate(485.907,393)"
         id="text20298">-</text>
      <text
         font-family="Kalam, Kalam_MSFontService, sans-serif"
         font-weight="400"
         font-size="40px"
         transform="translate(504.24,393)"
         id="text20300">3</text>
      <text
         font-family="Kalam, Kalam_MSFontService, sans-serif"
         font-weight="400"
         font-size="40px"
         transform="translate(889.891,322)"
         id="text20302">Stillingen</text>
      <text
         font-family="Kalam, Kalam_MSFontService, sans-serif"
         font-weight="400"
         font-size="40px"
         transform="translate(940.638,370)"
         id="text20304">blir</text>
      <text
         font-family="Kalam, Kalam_MSFontService, sans-serif"
         font-weight="400"
         font-size="40px"
         transform="translate(943.891,418)"
         id="text20306">5</text>
      <text
         font-family="Kalam, Kalam_MSFontService, sans-serif"
         font-weight="400"
         font-size="40px"
         transform="translate(965.391,418)"
         id="text20308">-</text>
      <text
         font-family="Kalam, Kalam_MSFontService, sans-serif"
         font-weight="400"
         font-size="40px"
         transform="translate(983.724,418)"
         id="text20310">2</text>
    </g>
  </g>
</svg>
