<?xml version="1.0" encoding="UTF-8" standalone="no"?>
<!-- Created with Inkscape (http://www.inkscape.org/) -->

<svg
   width="239.88818mm"
   height="121.45117mm"
   viewBox="0 0 239.88818 121.45117"
   version="1.1"
   id="svg5"
   inkscape:export-filename="utfall1.svg"
   inkscape:export-xdpi="96"
   inkscape:export-ydpi="96"
   xmlns:inkscape="http://www.inkscape.org/namespaces/inkscape"
   xmlns:sodipodi="http://sodipodi.sourceforge.net/DTD/sodipodi-0.dtd"
   xmlns="http://www.w3.org/2000/svg"
   xmlns:svg="http://www.w3.org/2000/svg">
  <sodipodi:namedview
     id="namedview7"
     pagecolor="#505050"
     bordercolor="#ffffff"
     borderopacity="1"
     inkscape:showpageshadow="0"
     inkscape:pageopacity="0"
     inkscape:pagecheckerboard="1"
     inkscape:deskcolor="#505050"
     inkscape:document-units="mm"
     showgrid="false" />
  <defs
     id="defs2" />
  <g
     inkscape:label="Lag 1"
     inkscape:groupmode="layer"
     id="layer1"
     transform="translate(-563.4806,-843.38834)">
    <g
       transform="matrix(0.26458333,0,0,0.26458333,494.19303,808.62206)"
       id="g24362">
      <path
         d="m 715,134 c 25.474,-1.278 36.016,-1.569 55.409,0 19.392,1.569 43.798,2.056 68.938,0 25.141,-2.056 39.986,1.404 55.409,0 15.422,-1.404 32.298,-2.635 59.918,0 27.621,2.635 36.51,-0.756 68.936,0 32.43,0.756 34.34,1.356 55.41,0 21.08,-1.356 61.62,3.197 86.98,0 2.22,11.255 -0.39,40.851 0,51.237 0.39,10.386 -3.49,54.311 0,73.937 3.49,19.626 -2.49,34.277 0,51.237 2.49,16.961 -1.01,34.506 0,51.238 1.01,16.732 -2.18,32.151 0,51.237 2.18,19.085 -0.9,33.646 0,60.317 0.9,26.671 -2.02,42.336 0,55.777 2.02,13.441 -1.61,38.765 0,59.02 -29.71,-0.353 -49.28,-1.311 -68.94,0 -19.66,1.311 -42.69,-1.675 -73.45,0 -30.752,1.675 -28.321,-0.29 -55.406,0 -27.084,0.289 -30.594,0.18 -50.898,0 -20.304,-0.18 -34.844,-1.699 -64.429,0 -29.585,1.699 -28.573,-0.498 -55.408,0 -26.836,0.498 -51.822,1.861 -82.469,0 -2.875,-19.612 2.764,-45.387 0,-69.397 -2.764,-24.01 2.076,-50.34 0,-64.857 -2.076,-14.518 0.006,-44.234 0,-60.317 -0.006,-16.084 -3.011,-36.313 0,-64.858 3.011,-28.544 3.446,-39.75 0,-69.397 -3.446,-29.647 -0.786,-38.995 0,-60.317 0.786,-21.322 1.614,-45.484 0,-64.857 z"
         fill="#c5e0b4"
         fill-rule="evenodd"
         id="path24306" />
      <path
         d="m 715,134 c 13.551,0.607 27.893,-0.032 50.899,0 23.005,0.032 51.924,3.171 68.938,0 17.014,-3.171 41.362,-0.751 55.409,0 14.046,0.751 32.863,1.355 64.428,0 31.566,-1.355 42.388,-2.527 64.426,0 22.04,2.527 38.43,-1.478 55.41,0 16.98,1.478 72.45,-0.433 91.49,0 0.36,17.48 2.18,39.845 0,60.317 -2.18,20.472 1.67,43.954 0,64.857 -1.67,20.904 1.58,52.714 0,69.397 -1.58,16.684 -0.07,41.312 0,64.858 0.07,23.545 -2.04,36.033 0,55.777 2.04,19.744 2.05,45.816 0,60.317 -2.05,14.501 -3.13,59.306 0,78.477 -23.16,-3.403 -54.19,-0.892 -68.94,0 -14.75,0.892 -32.25,-2.852 -59.92,0 -27.67,2.852 -41.439,0.475 -73.446,0 -32.006,-0.475 -45.539,2.265 -64.428,0 -18.889,-2.265 -56.668,3.281 -73.449,0 -16.781,-3.281 -86.602,-4.2 -110.817,0 0.123,-14.296 3.113,-35.702 0,-69.397 -3.113,-33.695 2.973,-46.246 0,-60.317 -2.973,-14.072 -1.742,-28.544 0,-55.777 1.742,-27.233 -3.323,-48.389 0,-69.398 3.323,-21.008 1.731,-37.17 0,-73.937 -1.731,-36.766 -0.968,-39.297 0,-60.317 0.968,-21.02 -3.018,-35.784 0,-64.857 z"
         stroke="#042433"
         stroke-width="2"
         stroke-miterlimit="8"
         fill="none"
         fill-rule="evenodd"
         id="path24308" />
      <path
         d="m 264,362 c 25.417,-1.279 35.936,-1.569 55.286,0 19.349,1.569 43.701,2.056 68.785,0 25.085,-2.056 39.898,1.404 55.286,0 15.388,-1.404 32.227,-2.635 59.786,0 27.559,2.635 36.428,-0.756 68.786,0 32.357,0.756 34.257,1.356 55.285,0 21.029,-1.356 61.479,3.198 86.786,0 -1.785,18.685 0.419,38.753 0,49.72 -0.419,10.967 1.185,43.496 0,61.02 -1.185,17.524 1.067,37.347 0,49.72 -1.067,12.373 -2.582,46.173 0,65.54 -24.156,1.893 -32.73,0.079 -50.786,0 -18.056,-0.079 -42.227,1.128 -59.785,0 -17.559,-1.128 -47.558,-3.345 -73.286,0 -25.729,3.345 -51.232,-1.296 -64.286,0 -13.053,1.296 -44.058,2.959 -73.286,0 -29.227,-2.959 -42.177,-1.145 -73.285,0 -31.108,1.145 -28.262,-0.29 -55.286,0 -2.12,-23.501 0.345,-34.301 0,-49.72 -0.345,-15.419 -2.892,-39.308 0,-61.02 2.892,-21.712 -0.755,-35.831 0,-54.24 0.755,-18.408 2.354,-33.763 0,-61.02 z"
         fill="#c5e0b4"
         fill-rule="evenodd"
         id="path24310" />
      <path
         d="m 264,362 c 21.295,1.318 47.209,1.467 59.786,0 12.576,-1.467 40.444,-2.259 50.785,0 10.342,2.259 37.077,1.667 50.786,0 13.709,-1.667 33.194,0.397 50.786,0 17.591,-0.397 29.746,-1.189 50.786,0 21.039,1.189 39.474,-0.92 55.285,0 15.811,0.92 44.009,-0.607 68.786,0 24.777,0.607 48.804,1.691 63,0 2.471,14.899 1.924,43.65 0,58.76 -1.924,15.11 -2.553,35.212 0,54.24 2.553,19.028 -0.111,34.474 0,49.72 0.111,15.247 1.137,48.521 0,63.28 -33.128,-3.248 -42.503,2.404 -68.786,0 -26.283,-2.404 -33.096,2.267 -59.785,0 -26.69,-2.267 -40.079,-3.659 -73.286,0 -33.207,3.659 -43.513,-2.223 -64.286,0 -20.772,2.223 -34.279,-1.681 -59.786,0 -25.506,1.681 -96.974,2.104 -124.071,0 -2.668,-16.902 0.29,-45.336 0,-58.76 -0.29,-13.424 -0.852,-34.789 0,-56.5 0.852,-21.711 0.686,-28.136 0,-54.24 -0.686,-26.104 2.016,-39.264 0,-56.5 z"
         stroke="#042433"
         stroke-width="2"
         stroke-miterlimit="8"
         fill="none"
         fill-rule="evenodd"
         id="path24312" />
      <path
         d="m 490,134 c 24.662,-2.144 34.697,1.539 51.98,0 17.283,-1.539 41.368,0.844 58.76,0 17.392,-0.844 40.128,-1.31 51.98,0 11.852,1.31 49.065,-1.384 63.28,0 2.367,25.719 -1.656,33.662 0,59.28 1.656,25.618 -1.847,43.587 0,61.56 1.847,17.973 1.946,75.552 0,107.16 -13.459,-2.583 -28.095,-1.887 -51.98,0 -23.885,1.887 -28.265,-0.188 -51.98,0 -23.715,0.188 -31.316,0.823 -56.5,0 -25.183,-0.823 -45.648,2.216 -65.54,0 -0.982,-19.99 -1.987,-43.758 0,-57 1.987,-13.242 1.149,-37.128 0,-54.72 -1.149,-17.592 -1.178,-37.058 0,-50.16 1.178,-13.102 0.545,-36.562 0,-66.12 z"
         fill="#c5e0b4"
         fill-rule="evenodd"
         id="path24314" />
      <path
         d="m 490,134 c 14.358,0.538 38.429,-1.111 49.72,0 11.291,1.111 45.507,-1.446 61.02,0 15.513,1.446 37.734,-1.273 58.76,0 21.026,1.273 29.939,-0.949 56.5,0 -2.585,14.553 -0.73,40.777 0,57 0.73,16.223 1.871,46.915 0,59.28 -1.871,12.365 3,48.545 0,61.56 -3,13.015 -1.709,38.316 0,50.16 -22.783,-2.437 -29.525,1.381 -56.5,0 -26.975,-1.381 -33.436,-0.62 -58.76,0 -25.324,0.62 -29.698,-2.035 -54.24,0 -24.542,2.035 -29.537,-2.664 -56.5,0 -0.482,-15.013 0.533,-36.001 0,-50.16 -0.533,-14.159 1.35,-45.611 0,-59.28 -1.35,-13.669 -1.577,-39.894 0,-52.44 1.577,-12.546 -1.481,-48.942 0,-66.12 z"
         stroke="#042433"
         stroke-width="2"
         stroke-miterlimit="8"
         fill="none"
         fill-rule="evenodd"
         id="path24316" />
      <path
         d="m 265,134 c 19.932,-0.265 37.266,-1.171 51.52,0 14.254,1.171 43.745,-2.299 58.24,0 14.495,2.299 25.816,0.549 51.52,0 25.705,-0.549 38.915,2.648 62.72,0 -1.299,18.703 -2.859,38.982 0,58.76 2.859,19.778 1.018,40.512 0,61.02 -1.018,20.509 -3.831,63.76 0,106.22 -15.884,-1.884 -26.224,0.671 -51.52,0 -25.296,-0.671 -30.924,1.443 -51.52,0 -20.596,-1.443 -35.905,0.112 -56,0 -20.095,-0.112 -32.984,1.575 -64.96,0 2.773,-20.87 -0.052,-42.258 0,-56.5 0.052,-14.242 -1.581,-36.27 0,-54.24 1.581,-17.97 0.873,-32.599 0,-49.72 -0.873,-17.121 -0.897,-39.541 0,-65.54 z"
         fill="#f8cecc"
         fill-rule="evenodd"
         id="path24318" />
      <path
         d="m 265,134 c 24.581,1.948 32.441,1.338 49.28,0 16.839,-1.338 37.236,-1.345 60.48,0 23.244,1.345 30.082,0 58.24,0 28.158,0 31.536,-1.6 56,0 0.941,28.201 -1.487,35.93 0,56.5 1.487,20.57 1.436,39.067 0,58.76 -1.436,19.693 2.423,38.225 0,61.02 -2.423,22.795 -1.685,38.891 0,49.72 -27.262,2.015 -40.443,-1.54 -56,0 -15.557,1.54 -34.991,1.839 -58.24,0 -23.249,-1.839 -36.573,-1.452 -53.76,0 -17.187,1.452 -36.554,0.526 -56,0 2.262,-11.25 -0.037,-27.808 0,-49.72 0.037,-21.912 -2.469,-32.527 0,-58.76 2.469,-26.233 -0.527,-33.118 0,-51.98 0.527,-18.862 2.563,-41.301 0,-65.54 z"
         stroke="#042433"
         stroke-width="2"
         stroke-miterlimit="8"
         fill="none"
         fill-rule="evenodd"
         id="path24320" />
      <text
         font-family="Kalam, Kalam_MSFontService, sans-serif"
         font-weight="400"
         font-size="40px"
         transform="translate(298.811,219)"
         id="text24322">Stillingen</text>
      <text
         font-family="Kalam, Kalam_MSFontService, sans-serif"
         font-weight="400"
         font-size="40px"
         transform="translate(349.558,267)"
         id="text24324">blir</text>
      <text
         font-family="Kalam, Kalam_MSFontService, sans-serif"
         font-weight="400"
         font-size="40px"
         transform="translate(353.392,315)"
         id="text24326">4</text>
      <text
         font-family="Kalam, Kalam_MSFontService, sans-serif"
         font-weight="400"
         font-size="40px"
         transform="translate(375.392,315)"
         id="text24328">-</text>
      <text
         font-family="Kalam, Kalam_MSFontService, sans-serif"
         font-weight="400"
         font-size="40px"
         transform="translate(393.725,315)"
         id="text24330">5</text>
      <text
         font-family="Kalam, Kalam_MSFontService, sans-serif"
         font-weight="400"
         font-size="40px"
         transform="translate(525.095,219)"
         id="text24332">Stillingen</text>
      <text
         font-family="Kalam, Kalam_MSFontService, sans-serif"
         font-weight="400"
         font-size="40px"
         transform="translate(575.842,267)"
         id="text24334">blir</text>
      <text
         font-family="Kalam, Kalam_MSFontService, sans-serif"
         font-weight="400"
         font-size="40px"
         transform="translate(579.675,315)"
         id="text24336">5</text>
      <text
         font-family="Kalam, Kalam_MSFontService, sans-serif"
         font-weight="400"
         font-size="40px"
         transform="translate(601.175,315)"
         id="text24338">-</text>
      <text
         font-family="Kalam, Kalam_MSFontService, sans-serif"
         font-weight="400"
         font-size="40px"
         transform="translate(619.509,315)"
         id="text24340">4</text>
      <text
         font-family="Kalam, Kalam_MSFontService, sans-serif"
         font-weight="400"
         font-size="40px"
         transform="translate(410.269,429)"
         id="text24342">Stillingen</text>
      <text
         font-family="Kalam, Kalam_MSFontService, sans-serif"
         font-weight="400"
         font-size="40px"
         transform="translate(461.016,477)"
         id="text24344">blir</text>
      <text
         font-family="Kalam, Kalam_MSFontService, sans-serif"
         font-weight="400"
         font-size="40px"
         transform="translate(464.436,525)"
         id="text24346">5</text>
      <text
         font-family="Kalam, Kalam_MSFontService, sans-serif"
         font-weight="400"
         font-size="40px"
         transform="translate(485.936,525)"
         id="text24348">-</text>
      <text
         font-family="Kalam, Kalam_MSFontService, sans-serif"
         font-weight="400"
         font-size="40px"
         transform="translate(504.269,525)"
         id="text24350">3</text>
      <text
         font-family="Kalam, Kalam_MSFontService, sans-serif"
         font-weight="400"
         font-size="40px"
         transform="translate(865.9,326)"
         id="text24352">Stillingen</text>
      <text
         font-family="Kalam, Kalam_MSFontService, sans-serif"
         font-weight="400"
         font-size="40px"
         transform="translate(916.646,374)"
         id="text24354">blir</text>
      <text
         font-family="Kalam, Kalam_MSFontService, sans-serif"
         font-weight="400"
         font-size="40px"
         transform="translate(919.9,422)"
         id="text24356">5</text>
      <text
         font-family="Kalam, Kalam_MSFontService, sans-serif"
         font-weight="400"
         font-size="40px"
         transform="translate(941.4,422)"
         id="text24358">-</text>
      <text
         font-family="Kalam, Kalam_MSFontService, sans-serif"
         font-weight="400"
         font-size="40px"
         transform="translate(959.733,422)"
         id="text24360">2</text>
    </g>
  </g>
</svg>
