<?xml version="1.0" encoding="UTF-8" standalone="no"?>
<!-- Created with Inkscape (http://www.inkscape.org/) -->

<svg
   width="320.59338mm"
   height="180.7735mm"
   viewBox="0 0 320.59338 180.7735"
   version="1.1"
   id="svg5"
   inkscape:export-filename="utfall1.svg"
   inkscape:export-xdpi="96"
   inkscape:export-ydpi="96"
   xmlns:inkscape="http://www.inkscape.org/namespaces/inkscape"
   xmlns:sodipodi="http://sodipodi.sourceforge.net/DTD/sodipodi-0.dtd"
   xmlns="http://www.w3.org/2000/svg"
   xmlns:svg="http://www.w3.org/2000/svg">
  <sodipodi:namedview
     id="namedview7"
     pagecolor="#505050"
     bordercolor="#ffffff"
     borderopacity="1"
     inkscape:showpageshadow="0"
     inkscape:pageopacity="0"
     inkscape:pagecheckerboard="1"
     inkscape:deskcolor="#505050"
     inkscape:document-units="mm"
     showgrid="false" />
  <defs
     id="defs2" />
  <g
     inkscape:label="Lag 1"
     inkscape:groupmode="layer"
     id="layer1"
     transform="translate(-633.47255,-288.7004)">
    <g
       transform="matrix(0.26458333,0,0,0.26458333,622.58179,279.76764)"
       id="g26937">
      <text
         font-family="Kalam, Kalam_MSFontService, sans-serif"
         font-weight="400"
         font-size="32px"
         transform="translate(37.959,717)"
         id="text26689">K</text>
      <text
         font-family="Kalam, Kalam_MSFontService, sans-serif"
         font-weight="400"
         font-size="32px"
         transform="translate(75.5037,716)"
         id="text26691">M</text>
      <path
         d="m 61.3165,629.604 c 1.1577,0.328 3.108,0.356 4.0149,0.606 -5.0506,27.046 -5.7181,40.359 -8.4721,56.095 -1.4784,-0.316 -2.3046,-0.243 -4.015,-0.606 -0.1809,-15.17 4.3786,-34.115 8.4722,-56.095 z"
         stroke="#042433"
         stroke-width="2.66667"
         stroke-miterlimit="8"
         fill="none"
         fill-rule="evenodd"
         id="path26693" />
      <path
         d="m 76.561,631.256 c 1.2013,-0.069 3.0539,-0.679 3.9927,-0.739 4.0635,27.211 7.7827,40.012 10.3215,55.784 -1.5005,0.185 -2.2576,0.523 -3.9927,0.739 C 81.755,672.762 79.874,653.367 76.561,631.256 Z"
         stroke="#042433"
         stroke-width="2.66667"
         stroke-miterlimit="8"
         fill="none"
         fill-rule="evenodd"
         id="path26695" />
      <text
         font-family="Kalam, Kalam_MSFontService, sans-serif"
         font-weight="400"
         font-size="32px"
         transform="translate(114.859,717)"
         id="text26697">K</text>
      <text
         font-family="Kalam, Kalam_MSFontService, sans-serif"
         font-weight="400"
         font-size="32px"
         transform="translate(152.404,716)"
         id="text26699">M</text>
      <path
         d="m 138.217,629.604 c 1.158,0.328 3.108,0.356 4.015,0.606 -5.051,27.046 -5.718,40.359 -8.472,56.095 -1.479,-0.316 -2.305,-0.243 -4.015,-0.606 -0.181,-15.17 4.378,-34.115 8.472,-56.095 z"
         stroke="#042433"
         stroke-width="2.66667"
         stroke-miterlimit="8"
         fill="none"
         fill-rule="evenodd"
         id="path26701" />
      <path
         d="m 153.461,631.256 c 1.202,-0.069 3.054,-0.679 3.993,-0.739 4.064,27.211 7.783,40.012 10.322,55.784 -1.501,0.185 -2.258,0.523 -3.993,0.739 -5.128,-14.278 -7.009,-33.673 -10.322,-55.784 z"
         stroke="#042433"
         stroke-width="2.66667"
         stroke-miterlimit="8"
         fill="none"
         fill-rule="evenodd"
         id="path26703" />
      <text
         font-family="Kalam, Kalam_MSFontService, sans-serif"
         font-weight="400"
         font-size="32px"
         transform="translate(191.76,717)"
         id="text26705">K</text>
      <text
         font-family="Kalam, Kalam_MSFontService, sans-serif"
         font-weight="400"
         font-size="32px"
         transform="translate(229.304,716)"
         id="text26707">M</text>
      <path
         d="m 215.117,629.604 c 1.158,0.328 3.108,0.356 4.015,0.606 -5.05,27.046 -5.718,40.359 -8.472,56.095 -1.478,-0.316 -2.305,-0.243 -4.015,-0.606 -0.181,-15.17 4.379,-34.115 8.472,-56.095 z"
         stroke="#042433"
         stroke-width="2.66667"
         stroke-miterlimit="8"
         fill="none"
         fill-rule="evenodd"
         id="path26709" />
      <path
         d="m 230.362,631.256 c 1.201,-0.069 3.054,-0.679 3.992,-0.739 4.064,27.211 7.783,40.012 10.322,55.784 -1.501,0.185 -2.258,0.523 -3.993,0.739 -5.127,-14.278 -7.008,-33.673 -10.321,-55.784 z"
         stroke="#042433"
         stroke-width="2.66667"
         stroke-miterlimit="8"
         fill="none"
         fill-rule="evenodd"
         id="path26711" />
      <text
         font-family="Kalam, Kalam_MSFontService, sans-serif"
         font-weight="400"
         font-size="32px"
         transform="translate(268.66,717)"
         id="text26713">K</text>
      <text
         font-family="Kalam, Kalam_MSFontService, sans-serif"
         font-weight="400"
         font-size="32px"
         transform="translate(306.205,716)"
         id="text26715">M</text>
      <path
         d="m 292.018,629.604 c 1.157,0.328 3.108,0.356 4.015,0.606 -5.051,27.046 -5.719,40.359 -8.473,56.095 -1.478,-0.316 -2.304,-0.243 -4.015,-0.606 -0.18,-15.17 4.379,-34.115 8.473,-56.095 z"
         stroke="#042433"
         stroke-width="2.66667"
         stroke-miterlimit="8"
         fill="none"
         fill-rule="evenodd"
         id="path26717" />
      <path
         d="m 307.262,631.256 c 1.201,-0.069 3.054,-0.679 3.993,-0.739 4.063,27.211 7.783,40.012 10.321,55.784 -1.5,0.185 -2.257,0.523 -3.992,0.739 -5.128,-14.278 -7.009,-33.673 -10.322,-55.784 z"
         stroke="#042433"
         stroke-width="2.66667"
         stroke-miterlimit="8"
         fill="none"
         fill-rule="evenodd"
         id="path26719" />
      <text
         font-family="Kalam, Kalam_MSFontService, sans-serif"
         font-weight="400"
         font-size="32px"
         transform="translate(345.56,717)"
         id="text26721">K</text>
      <text
         font-family="Kalam, Kalam_MSFontService, sans-serif"
         font-weight="400"
         font-size="32px"
         transform="translate(383.105,716)"
         id="text26723">M</text>
      <path
         d="m 368.918,629.604 c 1.158,0.328 3.108,0.356 4.015,0.606 -5.051,27.046 -5.718,40.359 -8.472,56.095 -1.479,-0.316 -2.305,-0.243 -4.015,-0.606 -0.181,-15.17 4.378,-34.115 8.472,-56.095 z"
         stroke="#042433"
         stroke-width="2.66667"
         stroke-miterlimit="8"
         fill="none"
         fill-rule="evenodd"
         id="path26725" />
      <path
         d="m 384.163,631.256 c 1.201,-0.069 3.053,-0.679 3.992,-0.739 4.064,27.211 7.783,40.012 10.322,55.784 -1.501,0.185 -2.258,0.523 -3.993,0.739 -5.128,-14.278 -7.009,-33.673 -10.321,-55.784 z"
         stroke="#042433"
         stroke-width="2.66667"
         stroke-miterlimit="8"
         fill="none"
         fill-rule="evenodd"
         id="path26727" />
      <text
         font-family="Kalam, Kalam_MSFontService, sans-serif"
         font-weight="400"
         font-size="32px"
         transform="translate(422.461,717)"
         id="text26729">K</text>
      <text
         font-family="Kalam, Kalam_MSFontService, sans-serif"
         font-weight="400"
         font-size="32px"
         transform="translate(460.006,716)"
         id="text26731">M</text>
      <path
         d="m 445.818,629.604 c 1.158,0.328 3.108,0.356 4.015,0.606 -5.05,27.046 -5.718,40.359 -8.472,56.095 -1.478,-0.316 -2.304,-0.243 -4.015,-0.606 -0.181,-15.17 4.379,-34.115 8.472,-56.095 z"
         stroke="#042433"
         stroke-width="2.66667"
         stroke-miterlimit="8"
         fill="none"
         fill-rule="evenodd"
         id="path26733" />
      <path
         d="m 461.063,631.256 c 1.201,-0.069 3.054,-0.679 3.993,-0.739 4.063,27.211 7.782,40.012 10.321,55.784 -1.5,0.185 -2.258,0.523 -3.993,0.739 -5.127,-14.278 -7.008,-33.673 -10.321,-55.784 z"
         stroke="#042433"
         stroke-width="2.66667"
         stroke-miterlimit="8"
         fill="none"
         fill-rule="evenodd"
         id="path26735" />
      <text
         font-family="Kalam, Kalam_MSFontService, sans-serif"
         font-weight="400"
         font-size="32px"
         transform="translate(499.361,717)"
         id="text26737">K</text>
      <text
         font-family="Kalam, Kalam_MSFontService, sans-serif"
         font-weight="400"
         font-size="32px"
         transform="translate(536.906,716)"
         id="text26739">M</text>
      <path
         d="m 522.719,629.604 c 1.157,0.328 3.108,0.356 4.015,0.606 -5.051,27.046 -5.719,40.359 -8.473,56.095 -1.478,-0.316 -2.304,-0.243 -4.014,-0.606 -0.181,-15.17 4.378,-34.115 8.472,-56.095 z"
         stroke="#042433"
         stroke-width="2.66667"
         stroke-miterlimit="8"
         fill="none"
         fill-rule="evenodd"
         id="path26741" />
      <path
         d="m 537.963,631.256 c 1.201,-0.069 3.054,-0.679 3.993,-0.739 4.063,27.211 7.783,40.012 10.321,55.784 -1.5,0.185 -2.257,0.523 -3.992,0.739 -5.128,-14.278 -7.009,-33.673 -10.322,-55.784 z"
         stroke="#042433"
         stroke-width="2.66667"
         stroke-miterlimit="8"
         fill="none"
         fill-rule="evenodd"
         id="path26743" />
      <text
         font-family="Kalam, Kalam_MSFontService, sans-serif"
         font-weight="400"
         font-size="32px"
         transform="translate(576.262,717)"
         id="text26745">K</text>
      <text
         font-family="Kalam, Kalam_MSFontService, sans-serif"
         font-weight="400"
         font-size="32px"
         transform="translate(613.806,716)"
         id="text26747">M</text>
      <path
         d="m 599.619,629.604 c 1.158,0.328 3.108,0.356 4.015,0.606 -5.051,27.046 -5.718,40.359 -8.472,56.095 -1.479,-0.316 -2.305,-0.243 -4.015,-0.606 -0.181,-15.17 4.379,-34.115 8.472,-56.095 z"
         stroke="#042433"
         stroke-width="2.66667"
         stroke-miterlimit="8"
         fill="none"
         fill-rule="evenodd"
         id="path26749" />
      <path
         d="m 614.864,631.256 c 1.201,-0.069 3.053,-0.679 3.992,-0.739 4.064,27.211 7.783,40.012 10.322,55.784 -1.501,0.185 -2.258,0.523 -3.993,0.739 -5.127,-14.278 -7.008,-33.673 -10.321,-55.784 z"
         stroke="#042433"
         stroke-width="2.66667"
         stroke-miterlimit="8"
         fill="none"
         fill-rule="evenodd"
         id="path26751" />
      <text
         font-family="Kalam, Kalam_MSFontService, sans-serif"
         font-weight="400"
         font-size="32px"
         transform="translate(653.162,717)"
         id="text26753">K</text>
      <text
         font-family="Kalam, Kalam_MSFontService, sans-serif"
         font-weight="400"
         font-size="32px"
         transform="translate(690.707,716)"
         id="text26755">M</text>
      <path
         d="m 676.519,629.604 c 1.158,0.328 3.108,0.356 4.015,0.606 -5.05,27.046 -5.718,40.359 -8.472,56.095 -1.478,-0.316 -2.304,-0.243 -4.015,-0.606 -0.181,-15.17 4.379,-34.115 8.472,-56.095 z"
         stroke="#042433"
         stroke-width="2.66667"
         stroke-miterlimit="8"
         fill="none"
         fill-rule="evenodd"
         id="path26757" />
      <path
         d="m 691.764,631.256 c 1.201,-0.069 3.054,-0.679 3.993,-0.739 4.063,27.211 7.782,40.012 10.321,55.784 -1.5,0.185 -2.257,0.523 -3.993,0.739 -5.127,-14.278 -7.008,-33.673 -10.321,-55.784 z"
         stroke="#042433"
         stroke-width="2.66667"
         stroke-miterlimit="8"
         fill="none"
         fill-rule="evenodd"
         id="path26759" />
      <text
         font-family="Kalam, Kalam_MSFontService, sans-serif"
         font-weight="400"
         font-size="32px"
         transform="translate(730.062,717)"
         id="text26761">K</text>
      <text
         font-family="Kalam, Kalam_MSFontService, sans-serif"
         font-weight="400"
         font-size="32px"
         transform="translate(767.607,716)"
         id="text26763">M</text>
      <path
         d="m 753.42,629.604 c 1.158,0.328 3.108,0.356 4.015,0.606 -5.051,27.046 -5.718,40.359 -8.472,56.095 -1.479,-0.316 -2.305,-0.243 -4.015,-0.606 -0.181,-15.17 4.378,-34.115 8.472,-56.095 z"
         stroke="#042433"
         stroke-width="2.66667"
         stroke-miterlimit="8"
         fill="none"
         fill-rule="evenodd"
         id="path26765" />
      <path
         d="m 768.664,631.256 c 1.202,-0.069 3.054,-0.679 3.993,-0.739 4.064,27.211 7.783,40.012 10.321,55.784 -1.5,0.185 -2.257,0.523 -3.992,0.739 -5.128,-14.278 -7.009,-33.673 -10.322,-55.784 z"
         stroke="#042433"
         stroke-width="2.66667"
         stroke-miterlimit="8"
         fill="none"
         fill-rule="evenodd"
         id="path26767" />
      <text
         font-family="Kalam, Kalam_MSFontService, sans-serif"
         font-weight="400"
         font-size="32px"
         transform="translate(806.963,717)"
         id="text26769">K</text>
      <text
         font-family="Kalam, Kalam_MSFontService, sans-serif"
         font-weight="400"
         font-size="32px"
         transform="translate(844.507,716)"
         id="text26771">M</text>
      <path
         d="m 830.32,629.604 c 1.158,0.328 3.108,0.356 4.015,0.606 -5.051,27.046 -5.718,40.359 -8.472,56.095 -1.478,-0.316 -2.305,-0.243 -4.015,-0.606 -0.181,-15.17 4.379,-34.115 8.472,-56.095 z"
         stroke="#042433"
         stroke-width="2.66667"
         stroke-miterlimit="8"
         fill="none"
         fill-rule="evenodd"
         id="path26773" />
      <path
         d="m 845.565,631.256 c 1.201,-0.069 3.054,-0.679 3.992,-0.739 4.064,27.211 7.783,40.012 10.322,55.784 -1.501,0.185 -2.258,0.523 -3.993,0.739 -5.127,-14.278 -7.008,-33.673 -10.321,-55.784 z"
         stroke="#042433"
         stroke-width="2.66667"
         stroke-miterlimit="8"
         fill="none"
         fill-rule="evenodd"
         id="path26775" />
      <text
         font-family="Kalam, Kalam_MSFontService, sans-serif"
         font-weight="400"
         font-size="32px"
         transform="translate(883.863,717)"
         id="text26777">K</text>
      <text
         font-family="Kalam, Kalam_MSFontService, sans-serif"
         font-weight="400"
         font-size="32px"
         transform="translate(921.408,716)"
         id="text26779">M</text>
      <path
         d="m 907.221,629.604 c 1.157,0.328 3.108,0.356 4.014,0.606 -5.05,27.046 -5.718,40.359 -8.472,56.095 -1.478,-0.316 -2.304,-0.243 -4.015,-0.606 -0.181,-15.17 4.379,-34.115 8.473,-56.095 z"
         stroke="#042433"
         stroke-width="2.66667"
         stroke-miterlimit="8"
         fill="none"
         fill-rule="evenodd"
         id="path26781" />
      <path
         d="m 922.465,631.256 c 1.201,-0.069 3.054,-0.679 3.993,-0.739 4.063,27.211 7.782,40.012 10.321,55.784 -1.5,0.185 -2.257,0.523 -3.992,0.739 -5.128,-14.278 -7.009,-33.673 -10.322,-55.784 z"
         stroke="#042433"
         stroke-width="2.66667"
         stroke-miterlimit="8"
         fill="none"
         fill-rule="evenodd"
         id="path26783" />
      <text
         font-family="Kalam, Kalam_MSFontService, sans-serif"
         font-weight="400"
         font-size="32px"
         transform="translate(960.763,717)"
         id="text26785">K</text>
      <text
         font-family="Kalam, Kalam_MSFontService, sans-serif"
         font-weight="400"
         font-size="32px"
         transform="translate(998.308,716)"
         id="text26787">M</text>
      <path
         d="m 984.121,629.604 c 1.158,0.328 3.108,0.356 4.015,0.606 -5.051,27.046 -5.718,40.359 -8.472,56.095 -1.479,-0.316 -2.305,-0.243 -4.015,-0.606 -0.181,-15.17 4.378,-34.115 8.472,-56.095 z"
         stroke="#042433"
         stroke-width="2.66667"
         stroke-miterlimit="8"
         fill="none"
         fill-rule="evenodd"
         id="path26789" />
      <path
         d="m 999.365,631.256 c 1.205,-0.069 3.055,-0.679 3.995,-0.739 4.06,27.211 7.78,40.012 10.32,55.784 -1.5,0.185 -2.26,0.523 -3.99,0.739 -5.13,-14.278 -7.01,-33.673 -10.325,-55.784 z"
         stroke="#042433"
         stroke-width="2.66667"
         stroke-miterlimit="8"
         fill="none"
         fill-rule="evenodd"
         id="path26791" />
      <text
         font-family="Kalam, Kalam_MSFontService, sans-serif"
         font-weight="400"
         font-size="32px"
         transform="translate(1037.66,717)"
         id="text26793">K</text>
      <text
         font-family="Kalam, Kalam_MSFontService, sans-serif"
         font-weight="400"
         font-size="32px"
         transform="translate(1075.21,716)"
         id="text26795">M</text>
      <path
         d="m 1061.02,629.604 c 1.16,0.328 3.11,0.356 4.02,0.606 -5.05,27.046 -5.72,40.359 -8.48,56.095 -1.47,-0.316 -2.3,-0.243 -4.01,-0.606 -0.18,-15.17 4.38,-34.115 8.47,-56.095 z"
         stroke="#042433"
         stroke-width="2.66667"
         stroke-miterlimit="8"
         fill="none"
         fill-rule="evenodd"
         id="path26797" />
      <path
         d="m 1076.27,631.256 c 1.2,-0.069 3.05,-0.679 3.99,-0.739 4.06,27.211 7.78,40.012 10.32,55.784 -1.5,0.185 -2.26,0.523 -3.99,0.739 -5.13,-14.278 -7.01,-33.673 -10.32,-55.784 z"
         stroke="#042433"
         stroke-width="2.66667"
         stroke-miterlimit="8"
         fill="none"
         fill-rule="evenodd"
         id="path26799" />
      <text
         font-family="Kalam, Kalam_MSFontService, sans-serif"
         font-weight="400"
         font-size="32px"
         transform="translate(1114.56,717)"
         id="text26801">K</text>
      <text
         font-family="Kalam, Kalam_MSFontService, sans-serif"
         font-weight="400"
         font-size="32px"
         transform="translate(1152.11,716)"
         id="text26803">M</text>
      <path
         d="m 1137.92,629.604 c 1.16,0.328 3.11,0.356 4.02,0.606 -5.05,27.046 -5.72,40.359 -8.48,56.095 -1.47,-0.316 -2.3,-0.243 -4.01,-0.606 -0.18,-15.17 4.38,-34.115 8.47,-56.095 z"
         stroke="#042433"
         stroke-width="2.66667"
         stroke-miterlimit="8"
         fill="none"
         fill-rule="evenodd"
         id="path26805" />
      <path
         d="m 1153.17,631.256 c 1.2,-0.069 3.05,-0.679 3.99,-0.739 3.62,27.926 7.56,40.471 10.32,55.784 -1.5,0.185 -2.26,0.523 -3.99,0.739 -5.01,-14.823 -6.57,-34.409 -10.32,-55.784 z"
         stroke="#042433"
         stroke-width="2.66667"
         stroke-miterlimit="8"
         fill="none"
         fill-rule="evenodd"
         id="path26807" />
      <text
         font-family="Kalam, Kalam_MSFontService, sans-serif"
         font-weight="400"
         font-size="32px"
         transform="translate(1191.46,717)"
         id="text26809">K</text>
      <text
         font-family="Kalam, Kalam_MSFontService, sans-serif"
         font-weight="400"
         font-size="32px"
         transform="translate(1229.01,716)"
         id="text26811">M</text>
      <path
         d="m 1214.82,629.604 c 1.16,0.328 3.11,0.356 4.02,0.606 -5.05,27.046 -5.72,40.359 -8.47,56.095 -1.48,-0.316 -2.31,-0.243 -4.02,-0.606 -0.18,-15.17 4.38,-34.115 8.47,-56.095 z"
         stroke="#042433"
         stroke-width="2.66667"
         stroke-miterlimit="8"
         fill="none"
         fill-rule="evenodd"
         id="path26813" />
      <path
         d="m 1230.07,631.256 c 1.2,-0.069 3.05,-0.679 3.99,-0.739 4.06,27.211 7.78,40.012 10.32,55.784 -1.5,0.185 -2.26,0.523 -3.99,0.739 -5.13,-14.278 -7.01,-33.673 -10.32,-55.784 z"
         stroke="#042433"
         stroke-width="2.66667"
         stroke-miterlimit="8"
         fill="none"
         fill-rule="evenodd"
         id="path26815" />
      <text
         font-family="Kalam, Kalam_MSFontService, sans-serif"
         font-weight="400"
         font-size="32px"
         transform="translate(62.3151,624)"
         id="text26817">K</text>
      <text
         font-family="Kalam, Kalam_MSFontService, sans-serif"
         font-weight="400"
         font-size="32px"
         transform="translate(136.658,624)"
         id="text26819">M</text>
      <text
         font-family="Kalam, Kalam_MSFontService, sans-serif"
         font-weight="400"
         font-size="32px"
         transform="translate(214.372,624)"
         id="text26821">K</text>
      <text
         font-family="Kalam, Kalam_MSFontService, sans-serif"
         font-weight="400"
         font-size="32px"
         transform="translate(288.715,624)"
         id="text26823">M</text>
      <text
         font-family="Kalam, Kalam_MSFontService, sans-serif"
         font-weight="400"
         font-size="32px"
         transform="translate(368.248,624)"
         id="text26825">K</text>
      <text
         font-family="Kalam, Kalam_MSFontService, sans-serif"
         font-weight="400"
         font-size="32px"
         transform="translate(442.591,624)"
         id="text26827">M</text>
      <text
         font-family="Kalam, Kalam_MSFontService, sans-serif"
         font-weight="400"
         font-size="32px"
         transform="translate(520.305,624)"
         id="text26829">K</text>
      <text
         font-family="Kalam, Kalam_MSFontService, sans-serif"
         font-weight="400"
         font-size="32px"
         transform="translate(594.648,624)"
         id="text26831">M</text>
      <text
         font-family="Kalam, Kalam_MSFontService, sans-serif"
         font-weight="400"
         font-size="32px"
         transform="translate(677.328,624)"
         id="text26833">K</text>
      <text
         font-family="Kalam, Kalam_MSFontService, sans-serif"
         font-weight="400"
         font-size="32px"
         transform="translate(751.671,624)"
         id="text26835">M</text>
      <text
         font-family="Kalam, Kalam_MSFontService, sans-serif"
         font-weight="400"
         font-size="32px"
         transform="translate(829.385,624)"
         id="text26837">K</text>
      <text
         font-family="Kalam, Kalam_MSFontService, sans-serif"
         font-weight="400"
         font-size="32px"
         transform="translate(903.728,624)"
         id="text26839">M</text>
      <text
         font-family="Kalam, Kalam_MSFontService, sans-serif"
         font-weight="400"
         font-size="32px"
         transform="translate(984.515,624)"
         id="text26841">K</text>
      <text
         font-family="Kalam, Kalam_MSFontService, sans-serif"
         font-weight="400"
         font-size="32px"
         transform="translate(1058.86,624)"
         id="text26843">M</text>
      <text
         font-family="Kalam, Kalam_MSFontService, sans-serif"
         font-weight="400"
         font-size="32px"
         transform="translate(1136.57,624)"
         id="text26845">K</text>
      <text
         font-family="Kalam, Kalam_MSFontService, sans-serif"
         font-weight="400"
         font-size="32px"
         transform="translate(1210.91,624)"
         id="text26847">M</text>
      <path
         d="m 104.693,501.07 c 1.812,0.608 3.081,1.191 4.458,1.78 -6.456,18.063 -8.113,26.284 -16.5447,41.451 -8.4317,15.168 -10.5034,28.061 -18.6568,46.744 -1.8732,-0.641 -3.4468,-1.63 -4.458,-1.779 8.4905,-19.43 9.4446,-29.304 17.2488,-43.216 7.8043,-13.912 7.8129,-24.545 17.9527,-44.98 z"
         stroke="#042433"
         stroke-width="2.66667"
         stroke-miterlimit="8"
         fill="none"
         fill-rule="evenodd"
         id="path26849" />
      <path
         d="m 121.22,502.415 c 1.801,-0.637 3.16,-0.96 4.608,-1.345 4.802,10.999 5.956,21.648 12.532,42.947 6.576,21.298 12.035,38.032 14.133,48.429 -1.871,0.649 -3.719,0.839 -4.608,1.344 -3.764,-17.582 -7.784,-24.599 -13.066,-44.774 -5.282,-20.175 -10.275,-30.052 -13.599,-46.601 z"
         stroke="#042433"
         stroke-width="2.66667"
         stroke-miterlimit="8"
         fill="none"
         fill-rule="evenodd"
         id="path26851" />
      <text
         font-family="Kalam, Kalam_MSFontService, sans-serif"
         font-weight="400"
         font-size="32px"
         transform="translate(107.431,494)"
         id="text26853">K</text>
      <path
         d="m 259.507,501.07 c 1.812,0.608 3.081,1.191 4.458,1.78 -6.455,18.063 -8.113,26.284 -16.544,41.451 -8.432,15.168 -10.504,28.061 -18.657,46.744 -1.873,-0.641 -3.447,-1.63 -4.458,-1.779 8.49,-19.43 9.444,-29.304 17.249,-43.216 7.804,-13.912 7.812,-24.545 17.952,-44.98 z"
         stroke="#042433"
         stroke-width="2.66667"
         stroke-miterlimit="8"
         fill="none"
         fill-rule="evenodd"
         id="path26855" />
      <path
         d="m 276.034,502.415 c 1.802,-0.637 3.16,-0.96 4.608,-1.345 4.802,10.999 5.957,21.648 12.533,42.947 6.575,21.298 12.034,38.032 14.132,48.429 -1.871,0.649 -3.719,0.839 -4.608,1.344 -3.764,-17.582 -7.784,-24.599 -13.066,-44.774 -5.282,-20.175 -10.275,-30.052 -13.599,-46.601 z"
         stroke="#042433"
         stroke-width="2.66667"
         stroke-miterlimit="8"
         fill="none"
         fill-rule="evenodd"
         id="path26857" />
      <text
         font-family="Kalam, Kalam_MSFontService, sans-serif"
         font-weight="400"
         font-size="32px"
         transform="translate(257.995,492)"
         id="text26859">M</text>
      <path
         d="m 411.894,501.07 c 1.812,0.608 3.081,1.191 4.458,1.78 -6.456,18.063 -8.113,26.284 -16.545,41.451 -8.431,15.168 -10.503,28.061 -18.656,46.744 -1.874,-0.641 -3.447,-1.63 -4.458,-1.779 8.49,-19.43 9.444,-29.304 17.248,-43.216 7.805,-13.912 7.813,-24.545 17.953,-44.98 z"
         stroke="#042433"
         stroke-width="2.66667"
         stroke-miterlimit="8"
         fill="none"
         fill-rule="evenodd"
         id="path26861" />
      <path
         d="m 428.421,502.415 c 1.802,-0.637 3.16,-0.96 4.608,-1.345 4.802,10.999 5.956,21.648 12.532,42.947 6.576,21.298 12.035,38.032 14.133,48.429 -1.871,0.649 -3.719,0.839 -4.608,1.344 -3.764,-17.582 -7.784,-24.599 -13.066,-44.774 -5.282,-20.175 -10.275,-30.052 -13.599,-46.601 z"
         stroke="#042433"
         stroke-width="2.66667"
         stroke-miterlimit="8"
         fill="none"
         fill-rule="evenodd"
         id="path26863" />
      <text
         font-family="Kalam, Kalam_MSFontService, sans-serif"
         font-weight="400"
         font-size="32px"
         transform="translate(414.632,494)"
         id="text26865">K</text>
      <path
         d="m 566.708,501.07 c 1.812,0.608 3.081,1.191 4.458,1.78 -6.455,18.063 -8.113,26.284 -16.544,41.451 -8.432,15.168 -10.504,28.061 -18.657,46.744 -1.873,-0.641 -3.447,-1.63 -4.458,-1.779 8.49,-19.43 9.444,-29.304 17.249,-43.216 7.804,-13.912 7.813,-24.545 17.952,-44.98 z"
         stroke="#042433"
         stroke-width="2.66667"
         stroke-miterlimit="8"
         fill="none"
         fill-rule="evenodd"
         id="path26867" />
      <path
         d="m 583.235,502.415 c 1.802,-0.637 3.16,-0.96 4.608,-1.345 4.802,10.999 5.957,21.648 12.533,42.947 6.575,21.298 12.034,38.032 14.132,48.429 -1.87,0.649 -3.719,0.839 -4.608,1.344 -3.764,-17.582 -7.784,-24.599 -13.066,-44.774 -5.282,-20.175 -10.275,-30.052 -13.599,-46.601 z"
         stroke="#042433"
         stroke-width="2.66667"
         stroke-miterlimit="8"
         fill="none"
         fill-rule="evenodd"
         id="path26869" />
      <text
         font-family="Kalam, Kalam_MSFontService, sans-serif"
         font-weight="400"
         font-size="32px"
         transform="translate(565.197,492)"
         id="text26871">M</text>
      <path
         d="m 722.772,501.07 c 1.812,0.608 3.081,1.191 4.458,1.78 -6.456,18.064 -8.113,26.284 -16.545,41.452 -8.431,15.167 -10.503,28.06 -18.656,46.743 -1.874,-0.641 -3.447,-1.63 -4.458,-1.779 8.49,-19.43 9.444,-29.304 17.248,-43.216 7.805,-13.912 7.813,-24.545 17.953,-44.98 z"
         stroke="#042433"
         stroke-width="2.66667"
         stroke-miterlimit="8"
         fill="none"
         fill-rule="evenodd"
         id="path26873" />
      <path
         d="m 739.299,502.415 c 1.801,-0.637 3.16,-0.96 4.608,-1.345 4.802,10.999 5.956,21.648 12.532,42.947 6.576,21.298 12.035,38.033 14.133,48.429 -1.871,0.649 -3.719,0.839 -4.608,1.344 -3.764,-17.582 -7.784,-24.599 -13.066,-44.774 -5.282,-20.174 -10.275,-30.052 -13.599,-46.601 z"
         stroke="#042433"
         stroke-width="2.66667"
         stroke-miterlimit="8"
         fill="none"
         fill-rule="evenodd"
         id="path26875" />
      <text
         font-family="Kalam, Kalam_MSFontService, sans-serif"
         font-weight="400"
         font-size="32px"
         transform="translate(725.51,494)"
         id="text26877">K</text>
      <path
         d="m 877.586,501.07 c 1.812,0.608 3.081,1.191 4.458,1.78 -6.455,18.064 -8.113,26.284 -16.544,41.452 -8.432,15.167 -10.504,28.06 -18.657,46.743 -1.873,-0.641 -3.447,-1.63 -4.458,-1.779 8.49,-19.43 9.444,-29.304 17.249,-43.216 7.804,-13.912 7.813,-24.545 17.952,-44.98 z"
         stroke="#042433"
         stroke-width="2.66667"
         stroke-miterlimit="8"
         fill="none"
         fill-rule="evenodd"
         id="path26879" />
      <path
         d="m 894.113,502.415 c 1.802,-0.637 3.16,-0.96 4.608,-1.345 4.802,10.999 5.957,21.648 12.533,42.947 6.576,21.298 12.034,38.033 14.132,48.429 -1.87,0.649 -3.719,0.839 -4.608,1.344 -3.764,-17.582 -7.784,-24.599 -13.066,-44.774 -5.281,-20.174 -10.275,-30.052 -13.599,-46.601 z"
         stroke="#042433"
         stroke-width="2.66667"
         stroke-miterlimit="8"
         fill="none"
         fill-rule="evenodd"
         id="path26881" />
      <text
         font-family="Kalam, Kalam_MSFontService, sans-serif"
         font-weight="400"
         font-size="32px"
         transform="translate(876.075,492)"
         id="text26883">M</text>
      <path
         d="m 1029.97,501.07 c 1.81,0.608 3.08,1.191 4.46,1.78 -6.45,18.064 -8.11,26.284 -16.54,41.452 -8.44,15.167 -10.51,28.06 -18.66,46.743 -1.874,-0.641 -3.447,-1.63 -4.458,-1.779 8.488,-19.43 9.448,-29.304 17.248,-43.216 7.8,-13.912 7.81,-24.545 17.95,-44.98 z"
         stroke="#042433"
         stroke-width="2.66667"
         stroke-miterlimit="8"
         fill="none"
         fill-rule="evenodd"
         id="path26885" />
      <path
         d="m 1046.5,502.415 c 1.8,-0.637 3.16,-0.96 4.61,-1.345 4.8,10.999 5.95,21.648 12.53,42.947 6.58,21.298 12.03,38.033 14.13,48.429 -1.87,0.649 -3.72,0.839 -4.6,1.344 -3.77,-17.582 -7.79,-24.599 -13.07,-44.774 -5.28,-20.174 -10.28,-30.052 -13.6,-46.601 z"
         stroke="#042433"
         stroke-width="2.66667"
         stroke-miterlimit="8"
         fill="none"
         fill-rule="evenodd"
         id="path26887" />
      <text
         font-family="Kalam, Kalam_MSFontService, sans-serif"
         font-weight="400"
         font-size="32px"
         transform="translate(1032.71,494)"
         id="text26889">K</text>
      <path
         d="m 1184.79,501.07 c 1.81,0.608 3.08,1.191 4.46,1.78 -6.46,18.064 -8.12,26.284 -16.55,41.452 -8.43,15.167 -10.5,28.06 -18.66,46.743 -1.87,-0.641 -3.44,-1.63 -4.45,-1.779 8.49,-19.43 9.44,-29.304 17.24,-43.216 7.81,-13.912 7.82,-24.545 17.96,-44.98 z"
         stroke="#042433"
         stroke-width="2.66667"
         stroke-miterlimit="8"
         fill="none"
         fill-rule="evenodd"
         id="path26891" />
      <path
         d="m 1201.31,502.415 c 1.81,-0.637 3.16,-0.96 4.61,-1.345 4.8,10.999 5.96,21.648 12.53,42.947 6.58,21.298 12.04,38.033 14.14,48.429 -1.87,0.649 -3.72,0.839 -4.61,1.344 -3.76,-17.582 -7.78,-24.599 -13.07,-44.774 -5.28,-20.174 -10.27,-30.052 -13.6,-46.601 z"
         stroke="#042433"
         stroke-width="2.66667"
         stroke-miterlimit="8"
         fill="none"
         fill-rule="evenodd"
         id="path26893" />
      <text
         font-family="Kalam, Kalam_MSFontService, sans-serif"
         font-weight="400"
         font-size="32px"
         transform="translate(1183.28,492)"
         id="text26895">M</text>
      <path
         d="m 0,0 c 1.90793,-0.107087 3.30236,-0.0360105 4.79989,0 1.14909,14.1393 2.45964,43.4255 0,64.91 -2.45963,21.4845 1.65911,45.993 0,73.196 C 2.82247,138.205 0.994541,137.87 0,138.106 2.66016,117.78 -1.23864,94.4007 0,70.4342 1.23864,46.4677 1.10383,20.8873 0,0 Z"
         stroke="#042433"
         stroke-width="2.66667"
         stroke-miterlimit="8"
         fill="none"
         fill-rule="evenodd"
         transform="matrix(-0.874273,-0.485435,-0.485435,0.874273,187.553,342.901)"
         id="path26897" />
      <path
         d="m 201.866,343.469 c 1.614,-1.024 2.866,-1.642 4.191,-2.341 12.82,27.454 25.709,40.591 31.544,56.482 5.834,15.891 22.524,36.791 35.57,63.693 -1.678,1.05 -3.437,1.649 -4.19,2.34 -5.684,-13.939 -18.709,-28.854 -32.886,-58.885 -14.178,-30.032 -25.789,-46.44 -34.229,-61.289 z"
         stroke="#042433"
         stroke-width="2.66667"
         stroke-miterlimit="8"
         fill="none"
         fill-rule="evenodd"
         id="path26899" />
      <text
         font-family="Kalam, Kalam_MSFontService, sans-serif"
         font-weight="400"
         font-size="32px"
         transform="translate(185.458,339)"
         id="text26901">K</text>
      <path
         d="m 0,0 c 1.90793,-0.107087 3.30236,-0.0360105 4.79989,0 1.14909,14.1393 2.45964,43.4255 0,64.91 -2.45963,21.4845 1.65911,45.993 0,73.196 C 2.82247,138.205 0.994541,137.87 0,138.106 2.66016,117.78 -1.23864,94.4007 0,70.4342 1.23864,46.4677 1.10383,20.8873 0,0 Z"
         stroke="#042433"
         stroke-width="2.66667"
         stroke-miterlimit="8"
         fill="none"
         fill-rule="evenodd"
         transform="matrix(-0.874273,-0.485435,-0.485435,0.874273,498.837,341.632)"
         id="path26903" />
      <path
         d="m 513.15,342.201 c 1.614,-1.024 2.866,-1.642 4.191,-2.341 12.82,27.454 25.709,40.591 31.544,56.482 5.834,15.891 22.524,36.791 35.57,63.693 -1.678,1.05 -3.437,1.649 -4.19,2.34 -5.684,-13.939 -18.709,-28.854 -32.886,-58.885 -14.178,-30.032 -25.789,-46.44 -34.229,-61.289 z"
         stroke="#042433"
         stroke-width="2.66667"
         stroke-miterlimit="8"
         fill="none"
         fill-rule="evenodd"
         id="path26905" />
      <text
         font-family="Kalam, Kalam_MSFontService, sans-serif"
         font-weight="400"
         font-size="32px"
         transform="translate(491.599,339)"
         id="text26907">M</text>
      <path
         d="m 0,0 c 1.90793,-0.107087 3.30236,-0.0360105 4.79989,0 1.14909,14.1393 2.45964,43.4255 0,64.91 -2.45963,21.4845 1.65911,45.993 0,73.196 C 2.82247,138.205 0.994541,137.87 0,138.106 2.66016,117.78 -1.23864,94.4007 0,70.4342 1.23864,46.4677 1.10383,20.8873 0,0 Z"
         stroke="#042433"
         stroke-width="2.66667"
         stroke-miterlimit="8"
         fill="none"
         fill-rule="evenodd"
         transform="matrix(-0.874273,-0.485435,-0.485435,0.874273,806.23,344.869)"
         id="path26909" />
      <path
         d="m 820.544,345.438 c 1.613,-1.024 2.866,-1.642 4.191,-2.341 12.82,27.454 25.709,40.591 31.543,56.482 5.835,15.891 22.525,36.79 35.571,63.693 -1.678,1.05 -3.438,1.649 -4.191,2.34 -5.684,-13.939 -18.708,-28.854 -32.886,-58.885 -14.177,-30.032 -25.789,-46.44 -34.228,-61.289 z"
         stroke="#042433"
         stroke-width="2.66667"
         stroke-miterlimit="8"
         fill="none"
         fill-rule="evenodd"
         id="path26911" />
      <text
         font-family="Kalam, Kalam_MSFontService, sans-serif"
         font-weight="400"
         font-size="32px"
         transform="translate(804.135,341)"
         id="text26913">K</text>
      <path
         d="m 0,0 c 1.90793,-0.107087 3.30236,-0.0360105 4.79989,0 1.14909,14.1393 2.45964,43.4255 0,64.91 -2.45963,21.4845 1.65911,45.993 0,73.196 C 2.82247,138.205 0.994541,137.87 0,138.106 2.66016,117.78 -1.23864,94.4007 0,70.4342 1.23864,46.4677 1.10383,20.8873 0,0 Z"
         stroke="#042433"
         stroke-width="2.66667"
         stroke-miterlimit="8"
         fill="none"
         fill-rule="evenodd"
         transform="matrix(-0.874273,-0.485435,-0.485435,0.874273,1117.51,343.601)"
         id="path26915" />
      <path
         d="m 1131.83,344.169 c 1.61,-1.023 2.86,-1.641 4.19,-2.34 12.82,27.454 25.71,40.591 31.54,56.482 5.84,15.891 22.53,36.79 35.57,63.692 -1.68,1.051 -3.43,1.65 -4.19,2.341 -5.68,-13.94 -18.71,-28.854 -32.88,-58.886 -14.18,-30.031 -25.79,-46.439 -34.23,-61.289 z"
         stroke="#042433"
         stroke-width="2.66667"
         stroke-miterlimit="8"
         fill="none"
         fill-rule="evenodd"
         id="path26917" />
      <text
         font-family="Kalam, Kalam_MSFontService, sans-serif"
         font-weight="400"
         font-size="32px"
         transform="translate(1110.28,341)"
         id="text26919">M</text>
      <path
         d="m 0,0 c 1.90793,-0.107087 3.30236,-0.0360105 4.79989,0 -0.86257,16.5859 -1.22435,31.945 0,48.7077 1.22436,16.7627 1.38216,29.6472 0,56.7363 -1.38215,27.09 0.74919,43.568 0,55.131 -2.1623,-0.043 -3.830546,0.008 -4.79989,0 C -0.488084,148.384 1.74457,121.962 0,103.839 -1.74457,85.7147 2.4127,69.2511 0,47.102 -2.4127,24.9531 -1.91433,12.6584 0,0 Z"
         stroke="#042433"
         stroke-width="2.66667"
         stroke-miterlimit="8"
         fill="none"
         fill-rule="evenodd"
         transform="matrix(-0.623715,-0.781652,-0.781652,0.623715,337.316,210.047)"
         id="path26921" />
      <text
         font-family="Kalam, Kalam_MSFontService, sans-serif"
         font-weight="400"
         font-size="32px"
         transform="translate(344.539,206)"
         id="text26923">K</text>
      <path
         d="m 0,0 c 1.90793,-0.107087 3.30236,-0.0360105 4.79989,0 -0.63328,13.1516 -1.70677,34.1407 0,47.3193 1.70678,13.1785 -1.48776,34.9234 0,55.1197 1.48777,20.195 2.23675,32.501 0,53.559 -2.1623,-0.043 -3.830546,0.008 -4.79989,0 C -1.55738,139.45 -2.49134,118.875 0,100.879 2.49134,82.8821 2.4968,65.7455 0,45.7594 -2.4968,25.7732 -2.27989,19.754 0,0 Z"
         stroke="#042433"
         stroke-width="2.66667"
         stroke-miterlimit="8"
         fill="none"
         fill-rule="evenodd"
         transform="matrix(-0.674137,0.738607,0.738607,0.674137,376.959,206.003)"
         id="path26925" />
      <path
         d="m 0,0 c 1.90793,-0.107087 3.30236,-0.0360105 4.79989,0 -0.86257,16.5859 -1.22435,31.945 0,48.7077 1.22436,16.7627 1.38216,29.6472 0,56.7363 -1.38215,27.09 0.74919,43.568 0,55.131 -2.1623,-0.043 -3.830546,0.008 -4.79989,0 C -0.488084,148.384 1.74457,121.962 0,103.839 -1.74457,85.7147 2.4127,69.2511 0,47.102 -2.4127,24.9531 -1.91433,12.6584 0,0 Z"
         stroke="#042433"
         stroke-width="2.66667"
         stroke-miterlimit="8"
         fill="none"
         fill-rule="evenodd"
         transform="matrix(-0.623715,-0.781652,-0.781652,0.623715,956.913,212.8)"
         id="path26927" />
      <text
         font-family="Kalam, Kalam_MSFontService, sans-serif"
         font-weight="400"
         font-size="32px"
         transform="translate(964.136,209)"
         id="text26929">M</text>
      <path
         d="m 0,0 c 1.90793,-0.107087 3.30236,-0.0360105 4.79989,0 -0.63328,13.1516 -1.70677,34.1407 0,47.3193 1.70678,13.1785 -1.48776,34.9234 0,55.1197 1.48777,20.195 2.23675,32.501 0,53.559 -2.1623,-0.043 -3.830546,0.008 -4.79989,0 C -1.55738,139.45 -2.49134,118.875 0,100.879 2.49134,82.8821 2.4968,65.7455 0,45.7594 -2.4968,25.7732 -2.27989,19.754 0,0 Z"
         stroke="#042433"
         stroke-width="2.66667"
         stroke-miterlimit="8"
         fill="none"
         fill-rule="evenodd"
         transform="matrix(-0.674137,0.738607,0.738607,0.674137,996.556,208.756)"
         id="path26931" />
      <path
         d="m 0,0 c 1.90793,-0.107087 3.30236,-0.0360105 4.79989,0 1.17071,16.1456 -2.2295,29.1761 0,51.8054 2.22951,22.6292 -0.00125,41.1668 0,67.0426 0.00126,25.875 2.8547,38.17 0,60.947 -2.85469,22.777 -0.74099,32.375 0,54.853 0.741,22.477 2.34552,45.822 0,70.09 C 2.4085,304.631 1.35454,304.581 0,304.738 0.787717,278.414 1.59381,259.789 0,237.695 -1.59381,215.602 1.49963,191.007 0,170.653 -1.49963,150.299 2.24682,126.131 0,112.753 -2.24682,99.375 -0.546772,80.4513 0,54.8528 0.546772,29.2543 -1.50824,21.7304 0,0 Z"
         stroke="#042433"
         stroke-width="2.66667"
         stroke-miterlimit="8"
         fill="none"
         fill-rule="evenodd"
         transform="matrix(-0.482946,-0.87565,-0.87565,0.482946,645.854,42.1842)"
         id="path26933" />
      <path
         d="m 0,0 c 1.90793,-0.107087 3.30236,-0.0360105 4.7999,0 1.1707,16.1456 -2.22951,29.1761 0,51.8054 2.2295,22.6292 -0.00126,41.1668 0,67.0426 0.00126,25.875 2.85469,38.17 0,60.947 -2.8547,22.777 -0.741,32.376 0,54.853 0.74099,22.477 2.34551,45.822 0,70.09 -2.3914,-0.107 -3.44536,-0.157 -4.7999,0 0.787717,-26.324 1.59381,-44.949 0,-67.043 -1.59381,-22.093 1.49963,-46.688 0,-67.042 -1.49963,-20.354 2.24682,-44.522 0,-57.9 C -2.24682,99.375 -0.546772,80.4513 0,54.8528 0.546772,29.2543 -1.50824,21.7304 0,0 Z"
         stroke="#042433"
         stroke-width="2.66667"
         stroke-miterlimit="8"
         fill="none"
         fill-rule="evenodd"
         transform="matrix(-0.51399,0.857796,0.857796,0.51399,692.38,35.4831)"
         id="path26935" />
    </g>
  </g>
</svg>
