<svg width="1280" height="720" xmlns="http://www.w3.org/2000/svg" xmlns:xlink="http://www.w3.org/1999/xlink" overflow="hidden"><defs><clipPath id="clip0"><rect x="0" y="0" width="1280" height="720"/></clipPath></defs><g clip-path="url(#clip0)"><rect x="0" y="0" width="1280" height="720" fill="#FFFFFF"/><rect x="186" y="284" width="76" height="76" stroke="#2F528F" stroke-width="6" stroke-miterlimit="8" fill="#4472C4"/><rect x="186" y="211" width="76" height="76" stroke="#2F528F" stroke-width="6" stroke-miterlimit="8" fill="#4472C4"/><rect x="186" y="358" width="76" height="75" stroke="#2F528F" stroke-width="6" stroke-miterlimit="8" fill="#4472C4"/><rect x="262" y="358" width="76" height="75" stroke="#2F528F" stroke-width="6" stroke-miterlimit="8" fill="#4472C4"/><rect x="262" y="284" width="76" height="76" stroke="#2F528F" stroke-width="6" stroke-miterlimit="8" fill="#4472C4"/><rect x="262" y="211" width="76" height="75" stroke="#2F528F" stroke-width="6" stroke-miterlimit="8" fill="#4472C4"/><rect x="413" y="284" width="76" height="76" stroke="#2F528F" stroke-width="6" stroke-miterlimit="8" fill="#4472C4"/><rect x="413" y="211" width="76" height="76" stroke="#2F528F" stroke-width="6" stroke-miterlimit="8" fill="#4472C4"/><rect x="413" y="358" width="76" height="75" stroke="#2F528F" stroke-width="6" stroke-miterlimit="8" fill="#4472C4"/><rect x="489" y="358" width="75" height="75" stroke="#2F528F" stroke-width="6" stroke-miterlimit="8" fill="#4472C4"/><rect x="489" y="284" width="75" height="76" stroke="#2F528F" stroke-width="6" stroke-miterlimit="8" fill="#4472C4"/><rect x="489" y="211" width="75" height="75" stroke="#2F528F" stroke-width="6" stroke-miterlimit="8" fill="#4472C4"/><rect x="413" y="135" width="76" height="75" stroke="#2F528F" stroke-width="6" stroke-miterlimit="8" fill="#4472C4"/><rect x="413" y="61" width="76" height="76" stroke="#2F528F" stroke-width="6" stroke-miterlimit="8" fill="#4472C4"/><rect x="489" y="134" width="75" height="76" stroke="#2F528F" stroke-width="6" stroke-miterlimit="8" fill="#4472C4"/><rect x="489" y="61" width="75" height="76" stroke="#2F528F" stroke-width="6" stroke-miterlimit="8" fill="#4472C4"/></g></svg>