<svg width="1280" height="720" xmlns="http://www.w3.org/2000/svg" xmlns:xlink="http://www.w3.org/1999/xlink" overflow="hidden">
<g clip-path="url(#clip0)"><rect x="391" y="42" width="52" height="55" stroke="#2F528F" stroke-width="6" stroke-miterlimit="8" fill="#4472C4"/><rect x="443" y="42" width="53" height="55" stroke="#2F528F" stroke-width="6" stroke-miterlimit="8" fill="#4472C4"/><rect x="391" y="95" width="52" height="55" stroke="#2F528F" stroke-width="6" stroke-miterlimit="8" fill="#4472C4"/><rect x="443" y="95" width="53" height="55" stroke="#2F528F" stroke-width="6" stroke-miterlimit="8" fill="#4472C4"/><rect x="391" y="148" width="52" height="55" stroke="#2F528F" stroke-width="6" stroke-miterlimit="8" fill="#4472C4"/><rect x="443" y="148" width="53" height="55" stroke="#2F528F" stroke-width="6" stroke-miterlimit="8" fill="#4472C4"/><rect x="391" y="201" width="52" height="55" stroke="#2F528F" stroke-width="6" stroke-miterlimit="8" fill="#4472C4"/><rect x="443" y="201" width="53" height="55" stroke="#2F528F" stroke-width="6" stroke-miterlimit="8" fill="#4472C4"/><rect x="391" y="254" width="52" height="55" stroke="#2F528F" stroke-width="6" stroke-miterlimit="8" fill="#4472C4"/><rect x="443" y="254" width="53" height="55" stroke="#2F528F" stroke-width="6" stroke-miterlimit="8" fill="#4472C4"/><rect x="391" y="307" width="52" height="55" stroke="#2F528F" stroke-width="6" stroke-miterlimit="8" fill="#4472C4"/><rect x="443" y="307" width="53" height="55" stroke="#2F528F" stroke-width="6" stroke-miterlimit="8" fill="#4472C4"/><rect x="391" y="360" width="52" height="55" stroke="#2F528F" stroke-width="6" stroke-miterlimit="8" fill="#4472C4"/><rect x="443" y="360" width="53" height="55" stroke="#2F528F" stroke-width="6" stroke-miterlimit="8" fill="#4472C4"/><rect x="391" y="413" width="52" height="55" stroke="#2F528F" stroke-width="6" stroke-miterlimit="8" fill="#4472C4"/><rect x="443" y="413" width="53" height="55" stroke="#2F528F" stroke-width="6" stroke-miterlimit="8" fill="#4472C4"/><rect x="391" y="466" width="52" height="55" stroke="#2F528F" stroke-width="6" stroke-miterlimit="8" fill="#4472C4"/><rect x="443" y="466" width="53" height="55" stroke="#2F528F" stroke-width="6" stroke-miterlimit="8" fill="#4472C4"/><rect x="391" y="519" width="52" height="55" stroke="#2F528F" stroke-width="6" stroke-miterlimit="8" fill="#4472C4"/><rect x="443" y="519" width="53" height="55" stroke="#2F528F" stroke-width="6" stroke-miterlimit="8" fill="#4472C4"/><rect x="391" y="572" width="52" height="54" stroke="#2F528F" stroke-width="6" stroke-miterlimit="8" fill="#4472C4"/><rect x="443" y="572" width="53" height="54" stroke="#2F528F" stroke-width="6" stroke-miterlimit="8" fill="#4472C4"/><rect x="391" y="625" width="52" height="54" stroke="#2F528F" stroke-width="6" stroke-miterlimit="8" fill="#4472C4"/><rect x="443" y="625" width="53" height="54" stroke="#2F528F" stroke-width="6" stroke-miterlimit="8" fill="#4472C4"/></g></svg>