<svg width="1280" height="720" xmlns="http://www.w3.org/2000/svg" xmlns:xlink="http://www.w3.org/1999/xlink" overflow="hidden"><defs><clipPath id="clip0"><rect x="0" y="0" width="1280" height="720"/></clipPath></defs><g clip-path="url(#clip0)"><rect x="0" y="0" width="1280" height="720" fill="#FFFFFF"/><path d="M3.50005 538C3.50005 522.812 15.8122 510.5 31.0001 510.5 46.1879 510.5 58.5001 522.812 58.5001 538 58.5001 553.188 46.1879 565.5 31.0001 565.5 15.8122 565.5 3.50005 553.188 3.50005 538Z" stroke="#C5E0B4" stroke-width="1.33333" stroke-miterlimit="8" fill="#C5E0B4" fill-rule="evenodd"/><path d="M80.5001 539C80.5001 523.812 93.0361 511.5 108.5 511.5 123.964 511.5 136.5 523.812 136.5 539 136.5 554.188 123.964 566.5 108.5 566.5 93.0361 566.5 80.5001 554.188 80.5001 539Z" stroke="#C5E0B4" stroke-width="1.33333" stroke-miterlimit="8" fill="#C5E0B4" fill-rule="evenodd"/><path d="M259.5 382C259.5 366.812 271.812 354.5 287 354.5 302.188 354.5 314.5 366.812 314.5 382 314.5 397.188 302.188 409.5 287 409.5 271.812 409.5 259.5 397.188 259.5 382Z" stroke="#C5E0B4" stroke-width="1.33333" stroke-miterlimit="8" fill="#C5E0B4" fill-rule="evenodd"/><path d="M335.5 382C335.5 366.812 347.812 354.5 363 354.5 378.188 354.5 390.5 366.812 390.5 382 390.5 397.188 378.188 409.5 363 409.5 347.812 409.5 335.5 397.188 335.5 382Z" stroke="#C5E0B4" stroke-width="1.33333" stroke-miterlimit="8" fill="#C5E0B4" fill-rule="evenodd"/><path d="M604.5 230C604.5 214.812 616.812 202.5 632 202.5 647.188 202.5 659.5 214.812 659.5 230 659.5 245.188 647.188 257.5 632 257.5 616.812 257.5 604.5 245.188 604.5 230Z" stroke="#C5E0B4" stroke-width="1.33333" stroke-miterlimit="8" fill="#C5E0B4" fill-rule="evenodd"/><path d="M682.5 231C682.5 215.812 694.812 203.5 710 203.5 725.188 203.5 737.5 215.812 737.5 231 737.5 246.188 725.188 258.5 710 258.5 694.812 258.5 682.5 246.188 682.5 231Z" stroke="#C5E0B4" stroke-width="1.33333" stroke-miterlimit="8" fill="#C5E0B4" fill-rule="evenodd"/><path d="M1030.5 94.0001C1030.5 78.8122 1042.81 66.5001 1058 66.5001 1073.19 66.5001 1085.5 78.8122 1085.5 94.0001 1085.5 109.188 1073.19 121.5 1058 121.5 1042.81 121.5 1030.5 109.188 1030.5 94.0001Z" stroke="#C5E0B4" stroke-width="1.33333" stroke-miterlimit="8" fill="#C5E0B4" fill-rule="evenodd"/><path d="M1107.5 95.0001C1107.5 79.8122 1120.04 67.5001 1135.5 67.5001 1150.96 67.5001 1163.5 79.8122 1163.5 95.0001 1163.5 110.188 1150.96 122.5 1135.5 122.5 1120.04 122.5 1107.5 110.188 1107.5 95.0001Z" stroke="#C5E0B4" stroke-width="1.33333" stroke-miterlimit="8" fill="#C5E0B4" fill-rule="evenodd"/><path d="M219.5 460C219.5 444.812 231.812 432.5 247 432.5 262.188 432.5 274.5 444.812 274.5 460 274.5 475.188 262.188 487.5 247 487.5 231.812 487.5 219.5 475.188 219.5 460Z" stroke="#C5E0B4" stroke-width="1.33333" stroke-miterlimit="8" fill="#F8CBAD" fill-rule="evenodd"/><path d="M295.5 460C295.5 444.812 307.812 432.5 323 432.5 338.188 432.5 350.5 444.812 350.5 460 350.5 475.188 338.188 487.5 323 487.5 307.812 487.5 295.5 475.188 295.5 460Z" stroke="#C5E0B4" stroke-width="1.33333" stroke-miterlimit="8" fill="#F8CBAD" fill-rule="evenodd"/><path d="M372.5 460C372.5 444.812 385.036 432.5 400.5 432.5 415.964 432.5 428.5 444.812 428.5 460 428.5 475.188 415.964 487.5 400.5 487.5 385.036 487.5 372.5 475.188 372.5 460Z" stroke="#C5E0B4" stroke-width="1.33333" stroke-miterlimit="8" fill="#F8CBAD" fill-rule="evenodd"/><path d="M219.5 537C219.5 521.812 231.812 509.5 247 509.5 262.188 509.5 274.5 521.812 274.5 537 274.5 552.188 262.188 564.5 247 564.5 231.812 564.5 219.5 552.188 219.5 537Z" stroke="#C5E0B4" stroke-width="1.33333" stroke-miterlimit="8" fill="#B4C7E7" fill-rule="evenodd"/><path d="M295.5 537C295.5 521.812 307.812 509.5 323 509.5 338.188 509.5 350.5 521.812 350.5 537 350.5 552.188 338.188 564.5 323 564.5 307.812 564.5 295.5 552.188 295.5 537Z" stroke="#C5E0B4" stroke-width="1.33333" stroke-miterlimit="8" fill="#B4C7E7" fill-rule="evenodd"/><path d="M372.5 537C372.5 521.812 385.036 509.5 400.5 509.5 415.964 509.5 428.5 521.812 428.5 537 428.5 552.188 415.964 564.5 400.5 564.5 385.036 564.5 372.5 552.188 372.5 537Z" stroke="#C5E0B4" stroke-width="1.33333" stroke-miterlimit="8" fill="#FFE699" fill-rule="evenodd"/><path d="M565.5 307.5C565.5 292.036 578.036 279.5 593.5 279.5 608.964 279.5 621.5 292.036 621.5 307.5 621.5 322.964 608.964 335.5 593.5 335.5 578.036 335.5 565.5 322.964 565.5 307.5Z" stroke="#C5E0B4" stroke-width="1.33333" stroke-miterlimit="8" fill="#C5E0B4" fill-rule="evenodd"/><path d="M641.5 307.5C641.5 292.036 653.812 279.5 669 279.5 684.188 279.5 696.5 292.036 696.5 307.5 696.5 322.964 684.188 335.5 669 335.5 653.812 335.5 641.5 322.964 641.5 307.5Z" stroke="#C5E0B4" stroke-width="1.33333" stroke-miterlimit="8" fill="#C5E0B4" fill-rule="evenodd"/><path d="M719.5 308.5C719.5 293.036 731.812 280.5 747 280.5 762.188 280.5 774.5 293.036 774.5 308.5 774.5 323.964 762.188 336.5 747 336.5 731.812 336.5 719.5 323.964 719.5 308.5Z" stroke="#C5E0B4" stroke-width="1.33333" stroke-miterlimit="8" fill="#C5E0B4" fill-rule="evenodd"/><path d="M526.5 385C526.5 369.812 538.812 357.5 554 357.5 569.188 357.5 581.5 369.812 581.5 385 581.5 400.188 569.188 412.5 554 412.5 538.812 412.5 526.5 400.188 526.5 385Z" stroke="#C5E0B4" stroke-width="1.33333" stroke-miterlimit="8" fill="#F8CBAD" fill-rule="evenodd"/><path d="M603.5 385C603.5 369.812 615.812 357.5 631 357.5 646.188 357.5 658.5 369.812 658.5 385 658.5 400.188 646.188 412.5 631 412.5 615.812 412.5 603.5 400.188 603.5 385Z" stroke="#C5E0B4" stroke-width="1.33333" stroke-miterlimit="8" fill="#F8CBAD" fill-rule="evenodd"/><path d="M679.5 385C679.5 369.812 691.812 357.5 707 357.5 722.188 357.5 734.5 369.812 734.5 385 734.5 400.188 722.188 412.5 707 412.5 691.812 412.5 679.5 400.188 679.5 385Z" stroke="#C5E0B4" stroke-width="1.33333" stroke-miterlimit="8" fill="#F8CBAD" fill-rule="evenodd"/><path d="M914.5 306.5C914.5 291.036 927.036 278.5 942.5 278.5 957.964 278.5 970.5 291.036 970.5 306.5 970.5 321.964 957.964 334.5 942.5 334.5 927.036 334.5 914.5 321.964 914.5 306.5Z" stroke="#C5E0B4" stroke-width="1.33333" stroke-miterlimit="8" fill="#F8CBAD" fill-rule="evenodd"/><path d="M990.5 306.5C990.5 291.036 1002.81 278.5 1018 278.5 1033.19 278.5 1045.5 291.036 1045.5 306.5 1045.5 321.964 1033.19 334.5 1018 334.5 1002.81 334.5 990.5 321.964 990.5 306.5Z" stroke="#C5E0B4" stroke-width="1.33333" stroke-miterlimit="8" fill="#F8CBAD" fill-rule="evenodd"/><path d="M1068.5 306.5C1068.5 291.036 1080.81 278.5 1096 278.5 1111.19 278.5 1123.5 291.036 1123.5 306.5 1123.5 321.964 1111.19 334.5 1096 334.5 1080.81 334.5 1068.5 321.964 1068.5 306.5Z" stroke="#C5E0B4" stroke-width="1.33333" stroke-miterlimit="8" fill="#F8CBAD" fill-rule="evenodd"/><path d="M758.5 385C758.5 369.812 771.036 357.5 786.5 357.5 801.964 357.5 814.5 369.812 814.5 385 814.5 400.188 801.964 412.5 786.5 412.5 771.036 412.5 758.5 400.188 758.5 385Z" stroke="#C5E0B4" stroke-width="1.33333" stroke-miterlimit="8" fill="#F8CBAD" fill-rule="evenodd"/><path d="M1142.5 306.5C1142.5 291.036 1155.04 278.5 1170.5 278.5 1185.96 278.5 1198.5 291.036 1198.5 306.5 1198.5 321.964 1185.96 334.5 1170.5 334.5 1155.04 334.5 1142.5 321.964 1142.5 306.5Z" stroke="#C5E0B4" stroke-width="1.33333" stroke-miterlimit="8" fill="#F8CBAD" fill-rule="evenodd"/><path d="M1220.5 307.5C1220.5 292.036 1232.81 279.5 1248 279.5 1263.19 279.5 1275.5 292.036 1275.5 307.5 1275.5 322.964 1263.19 335.5 1248 335.5 1232.81 335.5 1220.5 322.964 1220.5 307.5Z" stroke="#C5E0B4" stroke-width="1.33333" stroke-miterlimit="8" fill="#F8CBAD" fill-rule="evenodd"/><path d="M985.5 168C985.5 152.812 997.812 140.5 1013 140.5 1028.19 140.5 1040.5 152.812 1040.5 168 1040.5 183.188 1028.19 195.5 1013 195.5 997.812 195.5 985.5 183.188 985.5 168Z" stroke="#C5E0B4" stroke-width="1.33333" stroke-miterlimit="8" fill="#C5E0B4" fill-rule="evenodd"/><path d="M1061.5 168C1061.5 152.812 1073.81 140.5 1089 140.5 1104.19 140.5 1116.5 152.812 1116.5 168 1116.5 183.188 1104.19 195.5 1089 195.5 1073.81 195.5 1061.5 183.188 1061.5 168Z" stroke="#C5E0B4" stroke-width="1.33333" stroke-miterlimit="8" fill="#C5E0B4" fill-rule="evenodd"/><path d="M1138.5 169C1138.5 153.812 1151.04 141.5 1166.5 141.5 1181.96 141.5 1194.5 153.812 1194.5 169 1194.5 184.188 1181.96 196.5 1166.5 196.5 1151.04 196.5 1138.5 184.188 1138.5 169Z" stroke="#C5E0B4" stroke-width="1.33333" stroke-miterlimit="8" fill="#C5E0B4" fill-rule="evenodd"/><path d="M953.5 237.5C953.5 222.036 965.812 209.5 981 209.5 996.188 209.5 1008.5 222.036 1008.5 237.5 1008.5 252.964 996.188 265.5 981 265.5 965.812 265.5 953.5 252.964 953.5 237.5Z" stroke="#C5E0B4" stroke-width="1.33333" stroke-miterlimit="8" fill="#C5E0B4" fill-rule="evenodd"/><path d="M1029.5 237.5C1029.5 222.036 1041.81 209.5 1057 209.5 1072.19 209.5 1084.5 222.036 1084.5 237.5 1084.5 252.964 1072.19 265.5 1057 265.5 1041.81 265.5 1029.5 252.964 1029.5 237.5Z" stroke="#C5E0B4" stroke-width="1.33333" stroke-miterlimit="8" fill="#C5E0B4" fill-rule="evenodd"/><path d="M1106.5 238.5C1106.5 223.036 1119.04 210.5 1134.5 210.5 1149.96 210.5 1162.5 223.036 1162.5 238.5 1162.5 253.964 1149.96 266.5 1134.5 266.5 1119.04 266.5 1106.5 253.964 1106.5 238.5Z" stroke="#C5E0B4" stroke-width="1.33333" stroke-miterlimit="8" fill="#C5E0B4" fill-rule="evenodd"/><path d="M1183.5 237.5C1183.5 222.036 1195.81 209.5 1211 209.5 1226.19 209.5 1238.5 222.036 1238.5 237.5 1238.5 252.964 1226.19 265.5 1211 265.5 1195.81 265.5 1183.5 252.964 1183.5 237.5Z" stroke="#C5E0B4" stroke-width="1.33333" stroke-miterlimit="8" fill="#C5E0B4" fill-rule="evenodd"/><path d="M914.5 387C914.5 371.812 927.036 359.5 942.5 359.5 957.964 359.5 970.5 371.812 970.5 387 970.5 402.188 957.964 414.5 942.5 414.5 927.036 414.5 914.5 402.188 914.5 387Z" stroke="#C5E0B4" stroke-width="1.33333" stroke-miterlimit="8" fill="#C5E0B4" fill-rule="evenodd"/><path d="M990.5 387C990.5 371.812 1002.81 359.5 1018 359.5 1033.19 359.5 1045.5 371.812 1045.5 387 1045.5 402.188 1033.19 414.5 1018 414.5 1002.81 414.5 990.5 402.188 990.5 387Z" stroke="#C5E0B4" stroke-width="1.33333" stroke-miterlimit="8" fill="#C5E0B4" fill-rule="evenodd"/><path d="M1068.5 387C1068.5 371.812 1080.81 359.5 1096 359.5 1111.19 359.5 1123.5 371.812 1123.5 387 1123.5 402.188 1111.19 414.5 1096 414.5 1080.81 414.5 1068.5 402.188 1068.5 387Z" stroke="#C5E0B4" stroke-width="1.33333" stroke-miterlimit="8" fill="#C5E0B4" fill-rule="evenodd"/><path d="M1142.5 387C1142.5 371.812 1155.04 359.5 1170.5 359.5 1185.96 359.5 1198.5 371.812 1198.5 387 1198.5 402.188 1185.96 414.5 1170.5 414.5 1155.04 414.5 1142.5 402.188 1142.5 387Z" stroke="#C5E0B4" stroke-width="1.33333" stroke-miterlimit="8" fill="#C5E0B4" fill-rule="evenodd"/><path d="M914.5 461.5C914.5 446.036 927.036 433.5 942.5 433.5 957.964 433.5 970.5 446.036 970.5 461.5 970.5 476.964 957.964 489.5 942.5 489.5 927.036 489.5 914.5 476.964 914.5 461.5Z" stroke="#C5E0B4" stroke-width="1.33333" stroke-miterlimit="8" fill="#C5E0B4" fill-rule="evenodd"/><path d="M990.5 461.5C990.5 446.036 1002.81 433.5 1018 433.5 1033.19 433.5 1045.5 446.036 1045.5 461.5 1045.5 476.964 1033.19 489.5 1018 489.5 1002.81 489.5 990.5 476.964 990.5 461.5Z" stroke="#C5E0B4" stroke-width="1.33333" stroke-miterlimit="8" fill="#C5E0B4" fill-rule="evenodd"/><path d="M1068.5 461.5C1068.5 446.036 1080.81 433.5 1096 433.5 1111.19 433.5 1123.5 446.036 1123.5 461.5 1123.5 476.964 1111.19 489.5 1096 489.5 1080.81 489.5 1068.5 476.964 1068.5 461.5Z" stroke="#C5E0B4" stroke-width="1.33333" stroke-miterlimit="8" fill="#C5E0B4" fill-rule="evenodd"/><path d="M1142.5 461.5C1142.5 446.036 1155.04 433.5 1170.5 433.5 1185.96 433.5 1198.5 446.036 1198.5 461.5 1198.5 476.964 1185.96 489.5 1170.5 489.5 1155.04 489.5 1142.5 476.964 1142.5 461.5Z" stroke="#C5E0B4" stroke-width="1.33333" stroke-miterlimit="8" fill="#C5E0B4" fill-rule="evenodd"/><path d="M528.5 463.5C528.5 448.036 540.812 435.5 556 435.5 571.188 435.5 583.5 448.036 583.5 463.5 583.5 478.964 571.188 491.5 556 491.5 540.812 491.5 528.5 478.964 528.5 463.5Z" stroke="#C5E0B4" stroke-width="1.33333" stroke-miterlimit="8" fill="#C5E0B4" fill-rule="evenodd"/><path d="M603.5 463.5C603.5 448.036 615.812 435.5 631 435.5 646.188 435.5 658.5 448.036 658.5 463.5 658.5 478.964 646.188 491.5 631 491.5 615.812 491.5 603.5 478.964 603.5 463.5Z" stroke="#C5E0B4" stroke-width="1.33333" stroke-miterlimit="8" fill="#C5E0B4" fill-rule="evenodd"/><path d="M681.5 463.5C681.5 448.036 693.812 435.5 709 435.5 724.188 435.5 736.5 448.036 736.5 463.5 736.5 478.964 724.188 491.5 709 491.5 693.812 491.5 681.5 478.964 681.5 463.5Z" stroke="#C5E0B4" stroke-width="1.33333" stroke-miterlimit="8" fill="#C5E0B4" fill-rule="evenodd"/><path d="M528.5 538C528.5 522.812 541.036 510.5 556.5 510.5 571.964 510.5 584.5 522.812 584.5 538 584.5 553.188 571.964 565.5 556.5 565.5 541.036 565.5 528.5 553.188 528.5 538Z" stroke="#C5E0B4" stroke-width="1.33333" stroke-miterlimit="8" fill="#B4C7E7" fill-rule="evenodd"/><path d="M604.5 538C604.5 522.812 616.812 510.5 632 510.5 647.188 510.5 659.5 522.812 659.5 538 659.5 553.188 647.188 565.5 632 565.5 616.812 565.5 604.5 553.188 604.5 538Z" stroke="#C5E0B4" stroke-width="1.33333" stroke-miterlimit="8" fill="#B4C7E7" fill-rule="evenodd"/><path d="M682.5 539C682.5 523.812 694.812 511.5 710 511.5 725.188 511.5 737.5 523.812 737.5 539 737.5 554.188 725.188 566.5 710 566.5 694.812 566.5 682.5 554.188 682.5 539Z" stroke="#C5E0B4" stroke-width="1.33333" stroke-miterlimit="8" fill="#B4C7E7" fill-rule="evenodd"/><path d="M758.5 462.5C758.5 447.036 771.036 434.5 786.5 434.5 801.964 434.5 814.5 447.036 814.5 462.5 814.5 477.964 801.964 490.5 786.5 490.5 771.036 490.5 758.5 477.964 758.5 462.5Z" stroke="#C5E0B4" stroke-width="1.33333" stroke-miterlimit="8" fill="#FFE699" fill-rule="evenodd"/><path d="M759.5 536C759.5 520.812 772.036 508.5 787.5 508.5 802.964 508.5 815.5 520.812 815.5 536 815.5 551.188 802.964 563.5 787.5 563.5 772.036 563.5 759.5 551.188 759.5 536Z" stroke="#C5E0B4" stroke-width="1.33333" stroke-miterlimit="8" fill="#FFE699" fill-rule="evenodd"/><path d="M913.5 538C913.5 522.812 926.036 510.5 941.5 510.5 956.964 510.5 969.5 522.812 969.5 538 969.5 553.188 956.964 565.5 941.5 565.5 926.036 565.5 913.5 553.188 913.5 538Z" stroke="#C5E0B4" stroke-width="1.33333" stroke-miterlimit="8" fill="#B4C7E7" fill-rule="evenodd"/><path d="M990.5 537C990.5 521.812 1002.81 509.5 1018 509.5 1033.19 509.5 1045.5 521.812 1045.5 537 1045.5 552.188 1033.19 564.5 1018 564.5 1002.81 564.5 990.5 552.188 990.5 537Z" stroke="#C5E0B4" stroke-width="1.33333" stroke-miterlimit="8" fill="#B4C7E7" fill-rule="evenodd"/><path d="M1067.5 537C1067.5 521.812 1079.81 509.5 1095 509.5 1110.19 509.5 1122.5 521.812 1122.5 537 1122.5 552.188 1110.19 564.5 1095 564.5 1079.81 564.5 1067.5 552.188 1067.5 537Z" stroke="#C5E0B4" stroke-width="1.33333" stroke-miterlimit="8" fill="#B4C7E7" fill-rule="evenodd"/><path d="M1220.5 386C1220.5 370.812 1232.81 358.5 1248 358.5 1263.19 358.5 1275.5 370.812 1275.5 386 1275.5 401.188 1263.19 413.5 1248 413.5 1232.81 413.5 1220.5 401.188 1220.5 386Z" stroke="#C5E0B4" stroke-width="1.33333" stroke-miterlimit="8" fill="#FFE699" fill-rule="evenodd"/><path d="M1220.5 461.5C1220.5 446.036 1232.81 433.5 1248 433.5 1263.19 433.5 1275.5 446.036 1275.5 461.5 1275.5 476.964 1263.19 489.5 1248 489.5 1232.81 489.5 1220.5 476.964 1220.5 461.5Z" stroke="#C5E0B4" stroke-width="1.33333" stroke-miterlimit="8" fill="#FFE699" fill-rule="evenodd"/><path d="M1221.5 538C1221.5 522.812 1233.81 510.5 1249 510.5 1264.19 510.5 1276.5 522.812 1276.5 538 1276.5 553.188 1264.19 565.5 1249 565.5 1233.81 565.5 1221.5 553.188 1221.5 538Z" stroke="#C5E0B4" stroke-width="1.33333" stroke-miterlimit="8" fill="#FFE699" fill-rule="evenodd"/><path d="M1143.5 538C1143.5 522.812 1156.04 510.5 1171.5 510.5 1186.96 510.5 1199.5 522.812 1199.5 538 1199.5 553.188 1186.96 565.5 1171.5 565.5 1156.04 565.5 1143.5 553.188 1143.5 538Z" stroke="#C5E0B4" stroke-width="1.33333" stroke-miterlimit="8" fill="#B4C7E7" fill-rule="evenodd"/></g></svg>