<svg width="1280" height="720" xmlns="http://www.w3.org/2000/svg" xmlns:xlink="http://www.w3.org/1999/xlink" overflow="hidden"><defs><clipPath id="clip3"><rect x="0" y="0" width="8743950" height="6731806"/></clipPath></defs><g clip-path="url(#clip1)" transform="matrix(0.000104987 0 0 0.000104987 0 6)"><g clip-path="url(#clip3)" transform="scale(1 1.00177)"><use width="100%" height="100%" xlink:href="#img2" transform="scale(6103.18 6103.18)"></use></g></g><path d="M323.5 618C323.5 602.812 335.812 590.5 351 590.5 366.188 590.5 378.5 602.812 378.5 618 378.5 633.188 366.188 645.5 351 645.5 335.812 645.5 323.5 633.188 323.5 618Z" stroke="#000000" stroke-width="1.33333" stroke-miterlimit="8" fill="#C5E0B4" fill-rule="evenodd"/><path d="M225.5 612C225.5 596.812 237.812 584.5 253 584.5 268.188 584.5 280.5 596.812 280.5 612 280.5 627.188 268.188 639.5 253 639.5 237.812 639.5 225.5 627.188 225.5 612Z" stroke="#000000" stroke-width="1.33333" stroke-miterlimit="8" fill="#C5E0B4" fill-rule="evenodd"/><path d="M58.5001 633C58.5001 617.812 70.8122 605.5 86.0001 605.5 101.188 605.5 113.5 617.812 113.5 633 113.5 648.188 101.188 660.5 86.0001 660.5 70.8122 660.5 58.5001 648.188 58.5001 633Z" stroke="#C5E0B4" stroke-width="1.33333" stroke-miterlimit="8" fill="#C5E0B4" fill-rule="evenodd"/><path d="M226.5 684C226.5 668.812 238.812 656.5 254 656.5 269.188 656.5 281.5 668.812 281.5 684 281.5 699.188 269.188 711.5 254 711.5 238.812 711.5 226.5 699.188 226.5 684Z" stroke="#000000" stroke-width="1.33333" stroke-miterlimit="8" fill="#FBE5D6" fill-rule="evenodd"/><path d="M428.5 612C428.5 596.812 440.812 584.5 456 584.5 471.188 584.5 483.5 596.812 483.5 612 483.5 627.188 471.188 639.5 456 639.5 440.812 639.5 428.5 627.188 428.5 612Z" stroke="#000000" stroke-width="1.33333" stroke-miterlimit="8" fill="#C5E0B4" fill-rule="evenodd"/><path d="M428.5 684C428.5 668.812 440.812 656.5 456 656.5 471.188 656.5 483.5 668.812 483.5 684 483.5 699.188 471.188 711.5 456 711.5 440.812 711.5 428.5 699.188 428.5 684Z" stroke="#000000" stroke-width="1.33333" stroke-miterlimit="8" fill="#FBE5D6" fill-rule="evenodd"/><path d="M0.500053 683C0.500053 667.812 12.8122 655.5 28.0001 655.5 43.1879 655.5 55.5001 667.812 55.5001 683 55.5001 698.188 43.1879 710.5 28.0001 710.5 12.8122 710.5 0.500053 698.188 0.500053 683Z" stroke="#C5E0B4" stroke-width="1.33333" stroke-miterlimit="8" fill="#C5E0B4" fill-rule="evenodd"/><path d="M117.5 684C117.5 668.812 130.036 656.5 145.5 656.5 160.964 656.5 173.5 668.812 173.5 684 173.5 699.188 160.964 711.5 145.5 711.5 130.036 711.5 117.5 699.188 117.5 684Z" stroke="#C5E0B4" stroke-width="1.33333" stroke-miterlimit="8" fill="#C5E0B4" fill-rule="evenodd"/><path d="M361.5 544C361.5 528.812 373.812 516.5 389 516.5 404.188 516.5 416.5 528.812 416.5 544 416.5 559.188 404.188 571.5 389 571.5 373.812 571.5 361.5 559.188 361.5 544Z" stroke="#000000" stroke-width="1.33333" stroke-miterlimit="8" fill="#FBE5D6" fill-rule="evenodd"/><path d="M286.5 542C286.5 526.812 298.812 514.5 314 514.5 329.188 514.5 341.5 526.812 341.5 542 341.5 557.188 329.188 569.5 314 569.5 298.812 569.5 286.5 557.188 286.5 542Z" stroke="#000000" stroke-width="1.33333" stroke-miterlimit="8" fill="#FBE5D6" fill-rule="evenodd"/><path d="M323.5 466.5C323.5 451.036 335.812 438.5 351 438.5 366.188 438.5 378.5 451.036 378.5 466.5 378.5 481.964 366.188 494.5 351 494.5 335.812 494.5 323.5 481.964 323.5 466.5Z" stroke="#000000" stroke-width="1.33333" stroke-miterlimit="8" fill="#FBE5D6" fill-rule="evenodd"/><path d="M694.5 553C694.5 537.812 707.036 525.5 722.5 525.5 737.964 525.5 750.5 537.812 750.5 553 750.5 568.188 737.964 580.5 722.5 580.5 707.036 580.5 694.5 568.188 694.5 553Z" stroke="#000000" stroke-width="1.33333" stroke-miterlimit="8" fill="#C5E0B4" fill-rule="evenodd"/><path d="M591.5 535C591.5 519.812 603.812 507.5 619 507.5 634.188 507.5 646.5 519.812 646.5 535 646.5 550.188 634.188 562.5 619 562.5 603.812 562.5 591.5 550.188 591.5 535Z" stroke="#000000" stroke-width="1.33333" stroke-miterlimit="8" fill="#C5E0B4" fill-rule="evenodd"/><path d="M553.5 607C553.5 591.812 565.812 579.5 581 579.5 596.188 579.5 608.5 591.812 608.5 607 608.5 622.188 596.188 634.5 581 634.5 565.812 634.5 553.5 622.188 553.5 607Z" stroke="#000000" stroke-width="1.33333" stroke-miterlimit="8" fill="#FBE5D6" fill-rule="evenodd"/><path d="M791.5 535C791.5 519.812 804.036 507.5 819.5 507.5 834.964 507.5 847.5 519.812 847.5 535 847.5 550.188 834.964 562.5 819.5 562.5 804.036 562.5 791.5 550.188 791.5 535Z" stroke="#000000" stroke-width="1.33333" stroke-miterlimit="8" fill="#C5E0B4" fill-rule="evenodd"/><path d="M825.5 606C825.5 590.812 837.812 578.5 853 578.5 868.188 578.5 880.5 590.812 880.5 606 880.5 621.188 868.188 633.5 853 633.5 837.812 633.5 825.5 621.188 825.5 606Z" stroke="#000000" stroke-width="1.33333" stroke-miterlimit="8" fill="#FBE5D6" fill-rule="evenodd"/><path d="M732.5 479C732.5 463.812 744.812 451.5 760 451.5 775.188 451.5 787.5 463.812 787.5 479 787.5 494.188 775.188 506.5 760 506.5 744.812 506.5 732.5 494.188 732.5 479Z" stroke="#000000" stroke-width="1.33333" stroke-miterlimit="8" fill="#FBE5D6" fill-rule="evenodd"/><path d="M657.5 480C657.5 464.812 670.036 452.5 685.5 452.5 700.964 452.5 713.5 464.812 713.5 480 713.5 495.188 700.964 507.5 685.5 507.5 670.036 507.5 657.5 495.188 657.5 480Z" stroke="#000000" stroke-width="1.33333" stroke-miterlimit="8" fill="#FBE5D6" fill-rule="evenodd"/><path d="M694.5 406C694.5 390.812 707.036 378.5 722.5 378.5 737.964 378.5 750.5 390.812 750.5 406 750.5 421.188 737.964 433.5 722.5 433.5 707.036 433.5 694.5 421.188 694.5 406Z" stroke="#000000" stroke-width="1.33333" stroke-miterlimit="8" fill="#FBE5D6" fill-rule="evenodd"/><path d="M826.5 684.5C826.5 669.036 838.812 656.5 854 656.5 869.188 656.5 881.5 669.036 881.5 684.5 881.5 699.964 869.188 712.5 854 712.5 838.812 712.5 826.5 699.964 826.5 684.5Z" stroke="#000000" stroke-width="1.33333" stroke-miterlimit="8" fill="#B4C7E7" fill-rule="evenodd"/><path d="M552.5 684.5C552.5 669.036 564.812 656.5 580 656.5 595.188 656.5 607.5 669.036 607.5 684.5 607.5 699.964 595.188 712.5 580 712.5 564.812 712.5 552.5 699.964 552.5 684.5Z" stroke="#000000" stroke-width="1.33333" stroke-miterlimit="8" fill="#B4C7E7" fill-rule="evenodd"/><path d="M620.5 406C620.5 390.812 632.812 378.5 648 378.5 663.188 378.5 675.5 390.812 675.5 406 675.5 421.188 663.188 433.5 648 433.5 632.812 433.5 620.5 421.188 620.5 406Z" stroke="#000000" stroke-width="1.33333" stroke-miterlimit="8" fill="#B4C7E7" fill-rule="evenodd"/><path d="M656.5 330C656.5 314.812 669.036 302.5 684.5 302.5 699.964 302.5 712.5 314.812 712.5 330 712.5 345.188 699.964 357.5 684.5 357.5 669.036 357.5 656.5 345.188 656.5 330Z" stroke="#000000" stroke-width="1.33333" stroke-miterlimit="8" fill="#B4C7E7" fill-rule="evenodd"/><path d="M694.5 254C694.5 238.812 707.036 226.5 722.5 226.5 737.964 226.5 750.5 238.812 750.5 254 750.5 269.188 737.964 281.5 722.5 281.5 707.036 281.5 694.5 269.188 694.5 254Z" stroke="#000000" stroke-width="1.33333" stroke-miterlimit="8" fill="#B4C7E7" fill-rule="evenodd"/><path d="M731.5 330C731.5 314.812 743.812 302.5 759 302.5 774.188 302.5 786.5 314.812 786.5 330 786.5 345.188 774.188 357.5 759 357.5 743.812 357.5 731.5 345.188 731.5 330Z" stroke="#000000" stroke-width="1.33333" stroke-miterlimit="8" fill="#B4C7E7" fill-rule="evenodd"/><path d="M769.5 405C769.5 389.812 781.812 377.5 797 377.5 812.188 377.5 824.5 389.812 824.5 405 824.5 420.188 812.188 432.5 797 432.5 781.812 432.5 769.5 420.188 769.5 405Z" stroke="#000000" stroke-width="1.33333" stroke-miterlimit="8" fill="#B4C7E7" fill-rule="evenodd"/></g></svg>