<svg version="1.1" xmlns="http://www.w3.org/2000/svg" xmlns:xlink="http://www.w3.org/1999/xlink" width="800" height="800"><defs/><g transform="scale(2,2)"><g id="background-a318f5f3"><rect fill="white" stroke="none" x="0" y="0" width="400" height="400" class="dcg-svg-background"/></g><g id="background-images-a318f5f3"/><g id="graphpaper-a318f5f3"><g id="axis-a318f5f3"><g id="yaxis-a318f5f3"><title>Meter over bakken</title><g><path fill="none" stroke="rgb(0,0,0)" class="dcg-svg-axis-line" paint-order="fill stroke markers" d=" M 28 0 L 28 400" stroke-opacity="0.9" stroke-miterlimit="10" stroke-width="1.5" stroke-dasharray=""/></g></g><g id="xaxis-a318f5f3"><title>Tid</title><g><path fill="none" stroke="rgb(0,0,0)" class="dcg-svg-axis-line" paint-order="fill stroke markers" d=" M 0 327 L 400 327" stroke-opacity="0.9" stroke-miterlimit="10" stroke-width="1.5" stroke-dasharray=""/></g></g><g><g class="dcg-svg-axis-value"><text fill="none" stroke="#ffffff" font-family="Arial" font-size="14px" font-style="normal" font-weight="normal" text-decoration="normal" x="18.718738080180913" y="342.8140099048394" text-anchor="middle" stroke-miterlimit="2" stroke-width="3" stroke-dasharray="">0</text><text fill="#000000" stroke="none" font-family="Arial" font-size="14px" font-style="normal" font-weight="normal" text-decoration="normal" x="18.718738080180913" y="342.8140099048394" text-anchor="middle">0</text></g><g><path fill="none" stroke="rgb(0,0,0)" class="dcg-svg-tickmark" paint-order="fill stroke markers" d=" M 139 324 L 139 330 M 250 324 L 250 330 M 361 324 L 361 330 M 25 159 L 31 159" stroke-opacity="0.9" stroke-miterlimit="2" stroke-width="1.5" stroke-dasharray=""/></g><g class="dcg-svg-axis-value"><text fill="none" stroke="#ffffff" font-family="Arial" font-size="14px" font-style="normal" font-weight="normal" text-decoration="normal" x="138.80940261831128" y="342.8140099048394" text-anchor="middle" stroke-miterlimit="2" stroke-width="3" stroke-dasharray="">5</text><text fill="#000000" stroke="none" font-family="Arial" font-size="14px" font-style="normal" font-weight="normal" text-decoration="normal" x="138.80940261831128" y="342.8140099048394" text-anchor="middle">5</text></g><g class="dcg-svg-axis-value"><text fill="none" stroke="#ffffff" font-family="Arial" font-size="14px" font-style="normal" font-weight="normal" text-decoration="normal" x="250.00700075019165" y="342.8140099048394" text-anchor="middle" stroke-miterlimit="2" stroke-width="3" stroke-dasharray="">10</text><text fill="#000000" stroke="none" font-family="Arial" font-size="14px" font-style="normal" font-weight="normal" text-decoration="normal" x="250.00700075019165" y="342.8140099048394" text-anchor="middle">10</text></g><g class="dcg-svg-axis-value"><text fill="none" stroke="#ffffff" font-family="Arial" font-size="14px" font-style="normal" font-weight="normal" text-decoration="normal" x="361.204598882072" y="342.8140099048394" text-anchor="middle" stroke-miterlimit="2" stroke-width="3" stroke-dasharray="">15</text><text fill="#000000" stroke="none" font-family="Arial" font-size="14px" font-style="normal" font-weight="normal" text-decoration="normal" x="361.204598882072" y="342.8140099048394" text-anchor="middle">15</text></g><g class="dcg-svg-axis-value"><text fill="none" stroke="#ffffff" font-family="Arial" font-size="14px" font-style="normal" font-weight="normal" text-decoration="normal" x="18.718738080180913" y="162.66200048832687" text-anchor="middle" stroke-miterlimit="2" stroke-width="3" stroke-dasharray="">5</text><text fill="#000000" stroke="none" font-family="Arial" font-size="14px" font-style="normal" font-weight="normal" text-decoration="normal" x="18.718738080180913" y="162.66200048832687" text-anchor="middle">5</text></g></g><g class="dcg-svg-axis-label"><text fill="none" stroke="#ffffff" font-family="Arial" font-size="17px" font-style="normal" font-weight="normal" text-decoration="normal" x="362.01513671875" y="360.0060099048394" text-anchor="start" stroke-miterlimit="2" stroke-width="3" stroke-dasharray="">Tid</text><text fill="#000000" stroke="none" font-family="Arial" font-size="17px" font-style="normal" font-weight="normal" text-decoration="normal" x="362.01513671875" y="360.0060099048394" text-anchor="start">Tid</text></g><g class="dcg-svg-axis-label" transform="translate(7.825671673930913,155.78955078125) rotate(-90,0,0)"><text fill="none" stroke="#ffffff" font-family="Arial" font-size="17px" font-style="normal" font-weight="normal" text-decoration="normal" x="0" y="0" text-anchor="start" stroke-miterlimit="2" stroke-width="3" stroke-dasharray="">Meter over bakken</text><text fill="#000000" stroke="none" font-family="Arial" font-size="17px" font-style="normal" font-weight="normal" text-decoration="normal" x="0" y="0" text-anchor="start">Meter over bakken</text></g></g></g><g id="expressions-a318f5f3"><g id="sketch-a318f5f3"><title>Expression 1</title><path fill="#c74440" stroke="none" paint-order="stroke fill markers" d="" fill-opacity="0.4"/><g><path fill="none" stroke="#c74440" class="dcg-svg-curve" paint-order="fill stroke markers" d=" M 27.611804486430916 59.67694079813111 L 27.611804486430916 59.67694079813111 L 29.46721797612134 136.95559497018505 L 31.322631465811767 206.39368886047555 L 33.17804495550219 268.64717276325393 L 34.93580510362997 321.424443557468 L 35.13383455780693 327.0060099048394 L 36.88887193488304 280.67529813580626 L 38.54897874144817 241.93217930197483 L 40.11143220645063 209.88587305804214 L 41.57623232989044 183.6804196302028 L 42.94337911176759 162.54267332953305 L 44.212872552082096 145.76607022034537 L 45.38471265083395 132.70206788207918 L 46.45889940802314 122.75623270324627 L 47.43543282364968 115.38689357344742 L 48.31431289771356 110.10497190660169 L 49.0955396302148 106.4741115377353 L 49.77911302115338 104.11061248696703 L 50.462686412091955 102.49828095002798 L 51.04860646146788 101.70744900289188 L 51.53687316928115 101.46050617944397 L 51.92748653553177 101.5298207811338 L 52.41575324334504 101.946425784051 L 53.00167329272096 102.92412688073665 L 53.58759334209688 104.41477262881318 L 54.271166733035464 106.78942378009219 L 55.052393465536696 110.32103801350843 L 55.93127353960058 115.30398077076961 L 56.907806955227116 122.04402297431093 L 57.98199371241631 130.84513952790851 L 59.25148715273082 142.99007577455706 L 60.716287276170625 159.12657841028152 L 62.37639408273574 179.79026731673036 L 64.32946091398884 206.6758903766297 L 67.06375447774315 247.33776389126513 L 72.33703492212645 326.3006052495257 L 72.3872364358585 327.0060099048393 L 74.38775509494221 300.28416732242033 L 76.0478619015073 280.6338003084347 L 77.41500868338446 266.56665634924565 L 78.68450212369896 255.45119820051747 L 79.75868888088814 247.63769509255548 L 80.73522229651469 241.8732525130653 L 81.61410237057859 237.81445780401117 L 82.39532910307982 235.12388925845835 L 83.0789024940184 233.48528418878186 L 83.66482254339432 232.61386775912158 L 84.15308925120759 232.26267883257572 L 84.64135595902087 232.25033905369853 L 85.12962266683414 232.57378967946082 L 85.71554271621005 233.39926169437996 L 86.39911610714864 234.9534008134126 L 87.0826894980872 237.12632777829805 L 87.86391623058844 240.33817395717398 L 88.74279630465233 244.8317954023148 L 89.81698306184154 251.4938679645714 L 90.98882316059337 260.0693481238025 L 92.45362328403318 272.3875074736069 L 94.3090367737236 289.84012989587256 L 98.0362132428513 327.0060099048393 L 100.0705839259202 308.15022429366 L 101.53538404936002 296.23316306920015 L 102.80487748967452 287.43066252466207 L 103.8790642468637 281.2835990320668 L 104.85559766249024 276.83884138437514 L 105.73447773655414 273.82854818791026 L 106.4180511274927 272.1589471902553 L 107.10162451843128 271.08782578935757 L 107.68754456780722 270.64885653850206 L 108.17581127562049 270.6201001167664 L 108.66407798343376 270.89517860502235 L 109.24999803280969 271.6204987568557 L 109.93357142374825 272.9986618232762 L 110.71479815624949 275.2485069827902 L 111.59367823031339 278.59011719179796 L 112.57021164593992 283.2234197255377 L 113.74205174469176 289.89696410571696 L 115.10919852656892 298.90843430899275 L 117.15991869938465 313.96688600312774 L 118.88462664562374 327.0060099048394 L 120.8707456787655 312.93178412620506 L 122.23789246064267 304.53279735608845 L 123.40973255939451 298.52568141126767 L 124.38626597502106 294.51900405918184 L 125.26514604908493 291.7721042613968 L 126.04637278158617 290.05465567023896 L 126.72994617252473 289.1287900039634 L 127.31586622190066 288.7690758937428 L 127.80413292971394 288.7751571758387 L 128.29239963752724 289.0568018777184 L 128.87831968690313 289.7522378355578 L 129.56189307784172 291.04187818248295 L 130.34311981034296 293.1158924843808 L 131.22199988440684 296.1566307341673 L 132.29618664159602 300.7697280368681 L 133.56568008191053 307.2504692764992 L 135.3234402300383 317.4197956597509 L 136.91202124342564 327.0060099048394 L 138.83896052629385 316.06848812131545 L 140.10845396660835 309.88726496417786 L 141.18264072379753 305.58559359232953 L 142.06152079786142 302.81981542495095 L 142.84274753036266 300.98965251732244 L 143.52632092130125 299.90052979163795 L 144.20989431223984 299.30328795106504 L 144.69081802887507 299.18055849641047 L 145.18642772786637 299.310137862624 L 145.7723477772423 299.79369754350296 L 146.45592116818088 300.7971037720094 L 147.2371479006821 302.49348173126117 L 148.11602797474598 305.0444924642629 L 149.0925613903725 308.57376813204144 L 150.36205483068704 314.0214675980674 L 152.3151216619401 323.48807999488105 L 153.02476975446902 327.0060099048394 L 154.95176188413177 318.0300315466178 L 156.22125532444628 313.07277096357245 L 157.1977887400728 310.02300862670387 L 158.07666881413667 307.9518340453039 L 158.85789554663793 306.697524676714 L 159.5414689375765 306.07498862587113 L 160.14205836270773 305.9005497746631 L 160.6156556947657 306.00836209565455 L 161.20157574414162 306.43637929495327 L 161.8851491350802 307.33426154826793 L 162.66637586758142 308.8550543766142 L 163.5452559416453 311.1353738723867 L 164.61944269883452 314.6099849982208 L 166.08424282227432 320.2127255624304 L 167.7279766243699 327.00600990483923 L 169.59976311852986 319.71596874532895 L 170.77160321728172 315.9200291099711 L 171.74813663290826 313.43171510184146 L 172.62701670697214 311.81513036325276 L 173.40824343947335 310.9201765452644 L 173.9941634888493 310.59773258418596 L 174.5800835382252 310.57744912657216 L 175.16600358760115 310.8563032475583 L 175.84957697853972 311.54815854343593 L 176.63080371104095 312.7938929920658 L 177.50968378510484 314.7169226742247 L 178.58387054229402 317.688675462935 L 180.04867066573385 322.491588659159 L 181.33735223529294 327.00600990483935 L 183.17357759573875 320.96956071607394 L 184.34541769449064 317.82268980124803 L 185.32195111011717 315.8317710871742 L 186.20083118418103 314.62094096123013 L 186.88440457511962 314.09146114799853 L 187.5137943295553 313.933062956015 L 188.05624467387148 314.04985524355584 L 188.6421647232474 314.4339239839694 L 189.32573811418598 315.20551983444994 L 190.20461818824987 316.6665800726304 L 191.27880494543908 319.05844852986223 L 192.64595172731623 322.78455421323315 L 194.06584825931708 327.0060099048393 L 195.8685119988838 321.97389119853284 L 197.04035209763566 319.3497074944373 L 198.0168855132622 317.75032548091724 L 198.89576558732605 316.84890053738997 L 199.57933897826467 316.52624845592595 L 200.1652590276406 316.518623084611 L 200.75117907701647 316.7563843755469 L 201.4347524679551 317.3320309003652 L 202.31363254201895 318.5067902849173 L 203.38781929920816 320.50551720690265 L 204.75496608108529 323.6786958709391 L 206.065156424712 327.0060099048394 L 207.87987301109024 322.70401044860466 L 209.0517131098421 320.53362996137525 L 210.0282465254686 319.272733058778 L 210.8094732579699 318.6809736418622 L 211.49304664890843 318.48589895310863 L 212.17662003984702 318.5946205831992 L 212.8601934307856 318.99849605740724 L 213.6414201632868 319.79661752263087 L 214.61795357891336 321.23292410572793 L 215.88744701922786 323.64358520175955 L 217.4478635060948 327.0060099048394 L 219.2076606323581 323.4488860991207 L 220.37950073110997 321.62444944091317 L 221.35603414673648 320.60373338893237 L 222.13726087923774 320.1659006944607 L 222.8208342701763 320.073496536847 L 223.5044076611149 320.2516889105684 L 224.28563439361614 320.7713577138157 L 225.16451446768002 321.71804251995565 L 226.33635456643185 323.45575965697884 L 228.30025926124614 327.0060099048394 L 230.14483488737534 323.86563513753254 L 231.3166749861272 322.3980226525024 L 232.1955550601911 321.69371415321916 L 232.97678179269235 321.391666517636 L 233.66035518363088 321.386645082568 L 234.3439285745695 321.6194563891951 L 235.1251553070707 322.1578552025966 L 236.10168872269725 323.18412706382065 L 237.4688355045744 325.0931885531556 L 238.69020792904436 327.0060099048394 L 240.59374243457933 324.28964505855066 L 241.7655825333312 323.1151441757378 L 242.64446260739507 322.5957722021134 L 243.4256893398963 322.42419216590923 L 244.20691607239755 322.53005827564107 L 244.98814280489876 322.900417510992 L 245.9646762205253 323.6903128007004 L 247.23416966083983 325.12276951913793 L 248.67222687758036 327.0060099048394 L 250.55438327397005 324.7610069332199 L 251.7262233727219 323.8059976112715 L 252.6051034467858 323.4102441657398 L 253.38633017928703 323.31273189173635 L 254.16755691178824 323.45489958352726 L 255.04643698585213 323.8813134942851 L 256.12062374304134 324.72190819022353 L 257.78073054960646 326.4435797930377 L 258.36665059898235 326.9231869837354 L 260.22206408867277 325.11811961379533 L 261.296250845862 324.42288120669957 L 262.27278426148854 324.1029798389138 L 263.1516643355524 324.09011027616754 L 264.0305444096163 324.330317296201 L 265.1047311668055 324.9225091155785 L 266.5695312902453 326.09509966449946 L 267.6437180474345 326.952010414198 L 269.4991315371249 325.4911114684394 L 270.67097163587675 324.91381305791094 L 271.64750505150334 324.71356399544715 L 272.6240384671299 324.78235907480786 L 273.698225224319 325.1440947592442 L 274.9677186646336 325.8681578361915 L 276.7254788127613 326.9032359060804 L 278.48323896088914 325.8227242824671 L 279.65507905964097 325.38896780722405 L 280.71704946526677 325.25884549501666 L 281.80345257401933 325.3895326550547 L 283.07294601433387 325.8304736201934 L 285.02601284558693 326.8507835078464 L 285.4166262118375 326.9474604099184 L 287.27203970152794 326.0946353459491 L 288.5415331418424 325.7870061413271 L 289.7133732405943 325.7551884379698 L 290.98286668090884 325.97745119943573 L 292.7406268290366 326.5856107922881 L 293.91246692778844 326.958735712275 L 295.8655337590415 326.3437313059068 L 297.33033388248134 326.1604368196461 L 298.79513400592117 326.24779557954935 L 300.65054749561153 326.64097067003047 L 302.31065430217666 326.94127867933037 L 304.36137447499243 326.579510084939 L 306.1191346231202 326.53604853688256 L 308.36516147906127 326.76997747946626 L 310.51353499343963 326.9587790726765 L 312.95486853250594 326.8357252070746 L 316.86100219501213 326.9904261383261 L 317.8375356106386 327.0060099048394" stroke-linecap="round" stroke-linejoin="round" stroke-miterlimit="10" stroke-width="2.5" stroke-opacity="0.9" stroke-dasharray=""/></g></g></g><g id="labels-a318f5f3"/></g></svg>