<svg version="1.1" xmlns="http://www.w3.org/2000/svg" xmlns:xlink="http://www.w3.org/1999/xlink" width="800" height="800"><defs/><g transform="scale(2,2)"><g id="background-74da26b8"><rect fill="white" stroke="none" x="0" y="0" width="400" height="400" class="dcg-svg-background"/></g><g id="background-images-74da26b8"/><g id="graphpaper-74da26b8"><g id="axis-74da26b8"><g id="yaxis-74da26b8"><title>Y axis</title><g><path fill="none" stroke="rgb(0,0,0)" class="dcg-svg-axis-line" paint-order="fill stroke markers" d=" M 134 0 L 134 400" stroke-opacity="0.9" stroke-miterlimit="10" stroke-width="2" stroke-dasharray=""/></g></g><g id="xaxis-74da26b8"><title>X axis</title><g><path fill="none" stroke="rgb(0,0,0)" class="dcg-svg-axis-line" paint-order="fill stroke markers" d=" M 0 318 L 400 318" stroke-opacity="0.9" stroke-miterlimit="10" stroke-width="2" stroke-dasharray=""/></g></g><g><g class="dcg-svg-axis-value"><text fill="none" stroke="#ffffff" font-family="Arial" font-size="20px" font-style="normal" font-weight="normal" text-decoration="normal" x="123.65331002677075" y="338.3796290271551" text-anchor="middle" stroke-miterlimit="2" stroke-width="3" stroke-dasharray="">0</text><text fill="#000000" stroke="none" font-family="Arial" font-size="20px" font-style="normal" font-weight="normal" text-decoration="normal" x="123.65331002677075" y="338.3796290271551" text-anchor="middle">0</text></g><g><path fill="none" stroke="rgb(0,0,0)" class="dcg-svg-tickmark" paint-order="fill stroke markers" d=" M 18 314 L 18 322 M 250 314 L 250 322 M 366 314 L 366 322 M 130 202 L 138 202 M 130 86 L 138 86" stroke-opacity="0.9" stroke-miterlimit="2" stroke-width="2" stroke-dasharray=""/></g><g class="dcg-svg-axis-value dcg-svg-offcenter-axis-value"><text fill="none" stroke="#ffffff" font-family="Arial" font-size="20px" font-style="normal" font-weight="normal" text-decoration="normal" x="17.453125" y="338.3796290271551" text-anchor="middle" stroke-miterlimit="2" stroke-width="3" stroke-dasharray="">-10</text><text fill="#000000" stroke="none" font-family="Arial" font-size="20px" font-style="normal" font-weight="normal" text-decoration="normal" x="17.453125" y="338.3796290271551" text-anchor="middle">-10</text></g><g class="dcg-svg-axis-value"><text fill="none" stroke="#ffffff" font-family="Arial" font-size="20px" font-style="normal" font-weight="normal" text-decoration="normal" x="250.11112702466417" y="338.3796290271551" text-anchor="middle" stroke-miterlimit="2" stroke-width="3" stroke-dasharray="">10</text><text fill="#000000" stroke="none" font-family="Arial" font-size="20px" font-style="normal" font-weight="normal" text-decoration="normal" x="250.11112702466417" y="338.3796290271551" text-anchor="middle">10</text></g><g class="dcg-svg-axis-value"><text fill="none" stroke="#ffffff" font-family="Arial" font-size="20px" font-style="normal" font-weight="normal" text-decoration="normal" x="366.0074205850576" y="338.3796290271551" text-anchor="middle" stroke-miterlimit="2" stroke-width="3" stroke-dasharray="">20</text><text fill="#000000" stroke="none" font-family="Arial" font-size="20px" font-style="normal" font-weight="normal" text-decoration="normal" x="366.0074205850576" y="338.3796290271551" text-anchor="middle">20</text></g><g class="dcg-svg-axis-value"><text fill="none" stroke="#ffffff" font-family="Arial" font-size="20px" font-style="normal" font-weight="normal" text-decoration="normal" x="118.09178658927075" y="207.48333546676167" text-anchor="middle" stroke-miterlimit="2" stroke-width="3" stroke-dasharray="">10</text><text fill="#000000" stroke="none" font-family="Arial" font-size="20px" font-style="normal" font-weight="normal" text-decoration="normal" x="118.09178658927075" y="207.48333546676167" text-anchor="middle">10</text></g><g class="dcg-svg-axis-value"><text fill="none" stroke="#ffffff" font-family="Arial" font-size="20px" font-style="normal" font-weight="normal" text-decoration="normal" x="118.09178658927075" y="91.58704190636826" text-anchor="middle" stroke-miterlimit="2" stroke-width="3" stroke-dasharray="">20</text><text fill="#000000" stroke="none" font-family="Arial" font-size="20px" font-style="normal" font-weight="normal" text-decoration="normal" x="118.09178658927075" y="91.58704190636826" text-anchor="middle">20</text></g></g></g></g><g id="expressions-74da26b8"><g id="sketch-74da26b8"><title>Expression 1</title><path fill="#c74440" stroke="none" paint-order="stroke fill markers" d="" fill-opacity="0.4"/><g><path fill="none" stroke="#c74440" class="dcg-svg-curve" paint-order="fill stroke markers" d=" M 117.16499270513651 -8 L 117.16499270513651 -8 L 118.06640625 4.675789127673227 L 120.89843750000001 41.732033718332275 L 123.53515625 73.74432030522692 L 126.07421875 102.30314052942134 L 128.61328125 128.63692380692623 L 130.95703125 150.9701465837745 L 133.30078125 171.40747989125407 L 135.44921875 188.47621585453314 L 137.59765625 203.9518780275788 L 139.55078125 216.63824241650877 L 141.50390625 228.008016896155 L 143.359375 237.58981124834486 L 145.1171875 245.57123953515122 L 146.77734375 252.13004139432755 L 148.33984375000003 257.4340820393074 L 149.8046875 261.6413522592048 L 151.171875 264.8999684188142 L 152.44140625 267.3481724586104 L 153.7109375 269.2401172617342 L 154.8828125 270.49280663325175 L 155.95703125 271.2247336649985 L 156.8359375 271.5273503250206 L 157.71484375 271.5633575284128 L 158.59375 271.33275527517503 L 159.47265625 270.8355435653073 L 160.44921875 269.9703960064438 L 161.5234375 268.63856835538826 L 162.79296875 266.55112015770203 L 164.0625 263.9074127233434 L 165.42968750000003 260.4382544465129 L 166.796875 256.3239671141333 L 168.26171875 251.19990635198224 L 169.82421875 244.9179557952652 L 171.484375 237.32012465486804 L 173.2421875 228.23854771735716 L 175.09765625 217.49548534497927 L 177.05078125 204.9033234756615 L 179.00390625 190.99457169706002 L 181.0546875 174.9734024396617 L 183.203125 156.6324527927545 L 185.44921875 135.75448542130658 L 187.79296875 112.11238856596668 L 190.234375 85.46917604306344 L 192.7734375 55.57798724460622 L 195.41015625 22.18208713828477 L 197.63063823883633 -8" stroke-linecap="round" stroke-linejoin="round" stroke-miterlimit="10" stroke-width="5" stroke-dasharray=""/></g></g><g id="sketch-74da26b8"><title>Expression 2</title><path fill="#2d70b3" stroke="none" paint-order="stroke fill markers" d="" fill-opacity="0.4"/><g><path fill="none" stroke="#2d70b3" class="dcg-svg-curve" paint-order="fill stroke markers" d=" M 114.22993516754863 408 L 114.22993516754863 408 L 115.234375 392.8767392566205 L 118.06640625 353.05236438169277 L 120.89843750000001 315.99611979103366 L 123.53515625 283.98383320413905 L 126.07421875 255.42501297994465 L 128.61328125 229.0912297024397 L 130.95703125 206.75800692559147 L 133.30078125 186.3206736181119 L 135.44921875 169.25193765483283 L 137.59765625 153.77627548178714 L 139.55078125 141.0899110928572 L 141.50390625 129.72013661321097 L 143.359375 120.13834226102111 L 145.1171875 112.15691397421472 L 146.77734375 105.59811211503839 L 148.33984375000003 100.29407147005858 L 149.8046875 96.08680125016119 L 151.171875 92.82818509055178 L 152.44140625 90.37998105075556 L 153.7109375 88.48803624763173 L 154.8828125 87.23534687611422 L 155.95703125 86.50341984436744 L 156.8359375 86.20080318434532 L 157.71484375 86.16479598095316 L 158.59375 86.3953982341909 L 159.47265625 86.89260994405865 L 160.44921875 87.75775750292217 L 161.5234375 89.08958515397768 L 162.79296875 91.17703335166394 L 164.0625 93.82074078602258 L 165.42968750000003 97.28989906285312 L 166.796875 101.40418639523261 L 168.26171875 106.5282471573837 L 169.82421875 112.81019771410078 L 171.484375 120.4080288544979 L 173.2421875 129.4896057920088 L 175.09765625 140.23266816438667 L 177.05078125 152.82483003370447 L 179.00390625 166.73358181230594 L 181.0546875 182.75475106970427 L 183.203125 201.09570071661147 L 185.44921875 221.97366808805936 L 187.79296875 245.61576494339926 L 190.234375 272.2589774663025 L 192.7734375 302.1501662647598 L 195.41015625 335.5460663710812 L 198.14453125 372.7132872418968 L 200.5692070081479 408" stroke-linecap="round" stroke-linejoin="round" stroke-miterlimit="10" stroke-width="5" stroke-dasharray=""/></g></g></g><g id="labels-74da26b8"/></g></svg>