<svg version="1.1" xmlns="http://www.w3.org/2000/svg" xmlns:xlink="http://www.w3.org/1999/xlink" width="800" height="800"><defs/><g transform="scale(2,2)"><g id="background-dc2c9db9"><rect fill="white" stroke="none" x="0" y="0" width="400" height="400" class="dcg-svg-background"/></g><g id="background-images-dc2c9db9"/><g id="graphpaper-dc2c9db9"><g id="axis-dc2c9db9"><g id="yaxis-dc2c9db9"><title>Y axis</title><g><path fill="none" stroke="rgb(0,0,0)" class="dcg-svg-axis-line" paint-order="fill stroke markers" d=" M 135 0 L 135 400" stroke-opacity="0.9" stroke-miterlimit="10" stroke-width="2" stroke-dasharray=""/></g></g><g id="xaxis-dc2c9db9"><title>X axis</title><g><path fill="none" stroke="rgb(0,0,0)" class="dcg-svg-axis-line" paint-order="fill stroke markers" d=" M 0 247 L 400 247" stroke-opacity="0.9" stroke-miterlimit="10" stroke-width="2" stroke-dasharray=""/></g></g><g><g class="dcg-svg-axis-value"><text fill="none" stroke="#ffffff" font-family="Arial" font-size="20px" font-style="normal" font-weight="normal" text-decoration="normal" x="124.39979194155339" y="267.4989254787378" text-anchor="middle" stroke-miterlimit="2" stroke-width="3" stroke-dasharray="">0</text><text fill="#000000" stroke="none" font-family="Arial" font-size="20px" font-style="normal" font-weight="normal" text-decoration="normal" x="124.39979194155339" y="267.4989254787378" text-anchor="middle">0</text></g><g><path fill="none" stroke="rgb(0,0,0)" class="dcg-svg-tickmark" paint-order="fill stroke markers" d=" M 36 243 L 36 251 M 234 243 L 234 251 M 332 243 L 332 251 M 131 394 L 139 394 M 131 101 L 139 101" stroke-opacity="0.9" stroke-miterlimit="2" stroke-width="2" stroke-dasharray=""/></g><g class="dcg-svg-axis-value"><text fill="none" stroke="#ffffff" font-family="Arial" font-size="20px" font-style="normal" font-weight="normal" text-decoration="normal" x="33.039239465673646" y="267.4989254787378" text-anchor="middle" stroke-miterlimit="2" stroke-width="3" stroke-dasharray="">-2</text><text fill="#000000" stroke="none" font-family="Arial" font-size="20px" font-style="normal" font-weight="normal" text-decoration="normal" x="33.039239465673646" y="267.4989254787378" text-anchor="middle">-2</text></g><g class="dcg-svg-axis-value"><text fill="none" stroke="#ffffff" font-family="Arial" font-size="20px" font-style="normal" font-weight="normal" text-decoration="normal" x="233.55331316743315" y="267.4989254787378" text-anchor="middle" stroke-miterlimit="2" stroke-width="3" stroke-dasharray="">2</text><text fill="#000000" stroke="none" font-family="Arial" font-size="20px" font-style="normal" font-weight="normal" text-decoration="normal" x="233.55331316743315" y="267.4989254787378" text-anchor="middle">2</text></g><g class="dcg-svg-axis-value"><text fill="none" stroke="#ffffff" font-family="Arial" font-size="20px" font-style="normal" font-weight="normal" text-decoration="normal" x="332.1453109558129" y="267.4989254787378" text-anchor="middle" stroke-miterlimit="2" stroke-width="3" stroke-dasharray="">4</text><text fill="#000000" stroke="none" font-family="Arial" font-size="20px" font-style="normal" font-weight="normal" text-decoration="normal" x="332.1453109558129" y="267.4989254787378" text-anchor="middle">4</text></g><g class="dcg-svg-axis-value dcg-svg-offcenter-axis-value"><text fill="none" stroke="#ffffff" font-family="Arial" font-size="20px" font-style="normal" font-weight="normal" text-decoration="normal" x="115.50819037905339" y="392.44" text-anchor="middle" stroke-miterlimit="2" stroke-width="3" stroke-dasharray="">-10</text><text fill="#000000" stroke="none" font-family="Arial" font-size="20px" font-style="normal" font-weight="normal" text-decoration="normal" x="115.50819037905339" y="392.44" text-anchor="middle">-10</text></g><g class="dcg-svg-axis-value"><text fill="none" stroke="#ffffff" font-family="Arial" font-size="20px" font-style="normal" font-weight="normal" text-decoration="normal" x="118.83826850405339" y="105.94325309060599" text-anchor="middle" stroke-miterlimit="2" stroke-width="3" stroke-dasharray="">10</text><text fill="#000000" stroke="none" font-family="Arial" font-size="20px" font-style="normal" font-weight="normal" text-decoration="normal" x="118.83826850405339" y="105.94325309060599" text-anchor="middle">10</text></g></g></g></g><g id="expressions-dc2c9db9"><g id="sketch-dc2c9db9"><title>Expression 1</title><path fill="#388c46" stroke="none" paint-order="stroke fill markers" d="" fill-opacity="0.4"/><g><path fill="none" stroke="#388c46" class="dcg-svg-curve" paint-order="fill stroke markers" d=" M 0 268.4713079638715 L 0 268.4713079638715 L 10.15625 270.21378138796007 L 19.23828125000003 272.0309919937785 L 27.44140625 273.9362110810205 L 34.765625000000014 275.9009175310945 L 41.406250000000014 277.948148781446 L 47.460937500000014 280.0855634846617 L 53.027343750000014 282.3293175778353 L 58.10546875 284.6597513409646 L 62.792968750000014 287.1020114101211 L 67.08984375000001 289.6370991389064 L 71.09375 292.3063572297659 L 74.90234375000001 295.175688506946 L 78.41796875 298.16738434926685 L 81.73828125000001 301.3557793293817 L 84.96093750000001 304.85535478939875 L 87.98828125 308.58025062144645 L 90.91796875 312.6725431252848 L 93.65234375000003 317.0157215845155 L 96.09375 321.40994997461337 L 98.4375 326.1810893491199 L 100.5859375 331.1261702305102 L 102.63671875 336.45967929961137 L 104.58984375000001 342.208852386745 L 106.44531250000001 348.40003271069827 L 108.20312500000001 355.05738369492735 L 109.86328125 362.2011430218947 L 111.42578125 369.8453168878744 L 112.89062500000001 377.9947166099343 L 114.35546875000001 387.3027775085051 L 115.72265625 397.2691499131905 L 116.99937415388494 408" stroke-linecap="round" stroke-linejoin="round" stroke-miterlimit="10" stroke-width="5" stroke-dasharray=""/></g><g><path fill="none" stroke="#388c46" class="dcg-svg-curve" paint-order="fill stroke markers" d=" M 146.31171821956022 -8 L 146.31171821956022 -8 L 147.0703125 8.40635361594704 L 148.2421875 29.464532634974773 L 149.4140625 47.10778252926076 L 150.68359375 63.253293914980816 L 151.953125 76.98620396998277 L 153.3203125 89.65145455017128 L 154.6875 100.56109221176098 L 156.15234375 110.68785112563651 L 157.71484375 120.05254394175357 L 159.27734375 128.2137233960698 L 160.9375 135.80920394485508 L 162.69531250000003 142.86033870487427 L 164.453125 149.0709300747351 L 166.30859375 154.87091249093683 L 168.26171875 160.27789542928437 L 170.3125 165.31220789121113 L 172.55859375 170.19582711611343 L 174.90234375 174.70617384815807 L 177.44140625 179.0307445981388 L 180.17578125 183.14479423938238 L 183.203125 187.15563146262224 L 186.42578125 190.90671916147667 L 189.74609375 194.30990665409334 L 193.1640625 197.40760404561235 L 196.77734375 200.3098317283011 L 200.68359375 203.08839710961587 L 204.78515625 205.67129527182536 L 209.1796875 208.12189111636008 L 213.96484375 210.4802641811777 L 219.140625 212.72931029650604 L 224.70703125 214.85857722201877 L 230.859375 216.92439181856122 L 237.59765625 218.9027842808878 L 245.01953125 220.80151904411377 L 253.22265625 222.6228478534503 L 262.3046875 224.3656100948138 L 272.4609375 226.04182549681138 L 283.7890625 227.64155632885362 L 296.58203125 229.1785238852901 L 311.03515625 230.6462471882066 L 327.44140625 232.04519968238725 L 346.2890625 233.38422660476968 L 367.96875 234.65656024822837 L 393.1640625 235.8667776886162 L 400 236.15544808740518" stroke-linecap="round" stroke-linejoin="round" stroke-miterlimit="10" stroke-width="5" stroke-dasharray=""/></g></g><g id="sketch-dc2c9db9"><title>Expression 2</title><path fill="#c74440" stroke="none" paint-order="stroke fill markers" d="" fill-opacity="0.4"/><g><path fill="none" stroke="#c74440" class="dcg-svg-curve" paint-order="fill stroke markers" d=" M 0 352.7742611455667 L 0 352.7742611455667 L 400 -3.982495611189563" stroke-linecap="round" stroke-linejoin="round" stroke-miterlimit="10" stroke-width="5" stroke-dasharray=""/></g></g></g><g id="labels-dc2c9db9"/></g></svg>