<?xml version="1.0" encoding="UTF-8" standalone="no"?>
<!-- Created with Inkscape (http://www.inkscape.org/) -->

<svg
   width="210mm"
   height="297mm"
   viewBox="0 0 210 297"
   version="1.1"
   id="svg5"
   xml:space="preserve"
   xmlns="http://www.w3.org/2000/svg"
   xmlns:svg="http://www.w3.org/2000/svg"><defs
     id="defs2" /><g
     id="layer1"><g
       id="g65269"
       transform="matrix(0.98648273,0,0,0.98648273,2.9930587,9.1686959)"><rect
         style="fill:#b2ada7;fill-opacity:1;stroke:#000000;stroke-width:0.928;stroke-linecap:round;stroke-linejoin:round"
         id="rect2667"
         width="281.03226"
         height="291.3226"
         x="-28.387096"
         y="-10.645162" /><path
         style="fill:#2d7685;fill-opacity:1;stroke:#000000;stroke-width:0.928;stroke-linecap:round;stroke-linejoin:round"
         d="m 172.45161,-18.451612 c 0,0 14.65259,21.9682898 18.45161,34.419353 6.55679,21.489481 6.17768,44.604088 6.74194,67.064517 0.71382,28.413592 -0.0599,57.050482 -4.25807,85.161292 -2.72029,18.21507 -8.43809,35.86824 -13.48387,53.58064 -3.09501,10.86454 -6.01617,21.83332 -10.29032,32.29032 -5.16349,12.63282 -18.45161,36.5484 -18.45161,36.5484 l 81.6129,2.48385 -13.12903,-311.903211 z"
         id="path368" /><path
         style="fill:#5d5d5f;fill-opacity:1;stroke:#000000;stroke-width:0.928;stroke-linecap:round;stroke-linejoin:round"
         d="m 13.674532,189.938 -8.2799917,15.68181 10.0363547,16.68543 17.135291,-1.59677 z"
         id="path4034" /><path
         style="fill:#8e8e8d;fill-opacity:1;stroke:#000000;stroke-width:0.928;stroke-linecap:round;stroke-linejoin:round"
         d="m -1.1227855,201.70028 6.8873846,4.46701 7.8212229,-16.19885 z"
         id="path6574" /><path
         style="fill:#606361;fill-opacity:1;stroke:#000000;stroke-width:0.928;stroke-linecap:round;stroke-linejoin:round"
         d="M -0.87818099,201.85617 17.56362,232.21614 15.874443,222.17979 5.269086,205.3689 Z"
         id="path6576" /><path
         style="fill:#4c4c4c;fill-opacity:1;stroke:#000000;stroke-width:0.928;stroke-linecap:round;stroke-linejoin:round"
         d="m 17.56362,232.21614 15.283914,-11.59639 -17.291185,1.56004 z"
         id="path6578" /><path
         style="fill:#777675;fill-opacity:1;stroke:#000000;stroke-width:0.928;stroke-linecap:round;stroke-linejoin:round"
         d="m 17.814529,234.72523 13.711275,-10.86887 -0.287651,8.35978 z"
         id="path6580" /><path
         style="fill:#4b4b4b;fill-opacity:1;stroke:#000000;stroke-width:0.928;stroke-linecap:round;stroke-linejoin:round"
         d="m 31.489062,223.68525 21.201798,30.73633 -10.663626,-5.52 -10.914536,-16.55998 z"
         id="path6582" /><path
         style="fill:#606060;fill-opacity:1;stroke:#000000;stroke-width:0.928;stroke-linecap:round;stroke-linejoin:round"
         d="m 17.56362,234.97614 20.574527,30.61089 3.889087,-16.55999 -10.914536,-16.30908 z"
         id="path6584" /><path
         style="fill:#4a4a4a;fill-opacity:1;stroke:#000000;stroke-width:0.928;stroke-linecap:round;stroke-linejoin:round"
         d="M 38.190111,265.66051 52.69086,254.79794 41.776324,249.27795 Z"
         id="path6586" /><path
         style="fill:#ba334a;fill-opacity:1;stroke:none;stroke-width:0.928;stroke-linecap:round;stroke-linejoin:round"
         d="m 40.772688,183.28892 c -2.884752,-0.49154 -6.237463,-0.85483 -8.6101,1.253 -3.930741,3.36029 -6.081119,8.44953 -6.759342,13.49624 -0.408642,4.10306 0.329225,8.29216 2.156969,11.99357 1.759676,4.00015 4.442088,7.7924 8.194299,10.14079 4.861528,2.87527 11.039435,4.60248 16.48214,2.34892 2.587141,-0.94908 4.580474,-3.1327 5.369467,-5.7677 1.466961,-4.15087 1.635576,-9.12813 -1.009928,-12.86249 -2.049865,-3.69811 -5.023151,-6.79441 -6.870917,-10.61535 -1.848441,-3.50005 -3.994163,-7.04155 -7.242222,-9.40804 -0.495667,-0.37149 -1.106339,-0.51315 -1.710366,-0.57894 z"
         id="path24459" /><path
         style="opacity:1;fill:#ba334a;fill-opacity:1;fill-rule:evenodd;stroke:none;stroke-width:0.928;stroke-linecap:round;stroke-linejoin:round"
         d="m 71.23387,-1.7741935 c -1.260209,0.89137826 -0.994742,2.9254226 -1.596773,4.3467741 -0.716985,1.6927509 -2.017733,3.1685696 -2.395162,4.9677419 -0.340193,1.6216711 -0.38228,3.4081635 0.177419,4.9677415 0.805094,2.243359 2.479731,4.19587 4.346773,5.67742 2.363664,1.875634 5.351457,2.887151 8.250002,3.725806 2.868183,0.82987 5.943687,1.830321 8.870966,1.241936 3.236648,-0.650569 6.0253,-2.889682 8.516131,-5.056452 2.428504,-2.112552 4.451724,-4.736322 6.032254,-7.540322 1.22192,-2.1677805 1.98799,-4.5892632 2.57258,-7.0080649 0.45494,-1.8823498 2.00171,-4.32360335 0.70968,-5.766129 -7.891997,-8.8112881 -25.826627,-6.3872699 -35.48387,0.4435484 z"
         id="path64192" /><rect
         style="fill:#8e8e8d;fill-opacity:1;stroke:#000000;stroke-width:0.928;stroke-linecap:round;stroke-linejoin:round"
         id="rect24403"
         width="313.13425"
         height="31.614517"
         x="-29.658823"
         y="268.53668"
         transform="rotate(2.0964178)" /><path
         style="opacity:1;fill:#98283b;fill-opacity:1;fill-rule:evenodd;stroke:none;stroke-width:0.928;stroke-linecap:round;stroke-linejoin:round"
         d="m 36.507246,192.94891 c -0.63895,0.31448 -1.93631,0.81719 -2.88546,1.94454 -0.94915,1.12735 -1.83482,3.15778 -2.19545,4.89273 -0.36063,1.73495 -0.39801,3.42346 0.0627,5.26908 0.46071,1.84562 1.75862,4.07801 2.82272,5.45727 1.0641,1.37926 1.88288,2.1733 3.19909,2.88545 1.31621,0.71215 2.93815,0.96648 4.51636,1.19182 1.57821,0.22534 3.9825,0.464 4.89272,0.12545 0.91022,-0.33855 0.50993,-0.26205 0.69,-0.62727 0.18007,-0.36522 0.31774,-1.00065 0.12546,-1.50545 -0.19228,-0.5048 -0.33888,-0.81827 -1.25455,-1.19182 -0.91567,-0.37355 -2.92069,0.18772 -4.20272,-0.0627 -1.28203,-0.25042 -2.30096,-0.66773 -3.38727,-1.31727 -1.08631,-0.64954 -2.24567,-1.3538 -3.01091,-2.57181 -0.76524,-1.21801 -1.02953,-3.08809 -1.19181,-4.51636 -0.16228,-1.42827 -0.19822,-2.73176 0.12545,-3.95182 0.32367,-1.22006 1.12061,-2.34769 1.69364,-3.19909 0.57303,-0.8514 1.40598,-1.37595 1.6309,-1.94454 0.22492,-0.56859 0.29999,-0.87826 0.0627,-1.12909 -0.23729,-0.25083 -0.6556,-0.0463 -0.94091,0 -0.28531,0.0463 -0.11371,-0.0636 -0.75266,0.25088 z"
         id="path41627" /><path
         style="opacity:1;fill:#ba334a;fill-opacity:1;fill-rule:evenodd;stroke:none;stroke-width:0.928;stroke-linecap:round;stroke-linejoin:round"
         d="m 112.43853,180.90529 -2.44636,0.40772 c 0,0 -0.37636,1.06636 -0.31364,1.19182 0.0627,0.12545 2.00727,0.97227 2.00727,0.97227 l 1.38,-0.0941 0.87818,-1.25455 z"
         id="path43477" /><path
         style="opacity:1;fill:#000000;fill-opacity:1;fill-rule:evenodd;stroke:none;stroke-width:0.928;stroke-linecap:round;stroke-linejoin:round"
         d="m 42.121325,201.43277 c -0.327729,0.68205 -0.606267,1.40968 -1.153413,1.95393 -0.683359,0.88464 -1.246777,1.87446 -2.099071,2.61608 -0.550947,0.55392 -1.242221,0.93525 -1.851336,1.41881 -0.336149,0.22709 -0.567844,0.55972 -0.890234,0.80401 -0.322431,0.37245 -0.11189,0.92929 0.273053,1.16593 0.592893,0.55432 1.512546,-0.14649 2.223757,0.20681 0.830923,0.28841 1.634841,0.34643 2.498769,0.28762 0.667958,-0.0529 1.324377,0.59315 1.985933,0.50088 0.514354,-0.0265 1.074542,0.0505 1.516292,-0.27783 0.557184,-0.38046 0.858832,-1.0346 1.080904,-1.65066 0.286231,-0.86967 0.112516,-1.79281 0.173498,-2.68875 0.01088,-0.97572 0.08773,-1.94916 0.06826,-2.92507 0.09316,-0.58521 0.03008,-1.18149 0.04705,-1.77195 -0.783039,0.40552 -1.6942,0.4034 -2.554068,0.44349 -0.431465,0.0146 -0.984053,-0.11324 -1.339327,-0.11563 -0.01547,-0.0495 0.02227,0.046 0.01993,0.0323 z"
         id="path43613" /><path
         style="opacity:1;fill:#efea00;fill-opacity:1;fill-rule:evenodd;stroke:none;stroke-width:0.928;stroke-linecap:round;stroke-linejoin:round"
         d="m 45.853593,203.09504 -0.04705,2.9325 c 0,0 -0.851275,-0.6054 -1.348634,-0.70569 -0.426814,-0.0861 -0.903788,-0.0672 -1.301591,0.10978 -0.418967,0.18642 -0.699008,0.59813 -1.003633,0.9409 -0.345173,0.38839 -0.762898,0.76095 -0.925227,1.25455 -0.112679,0.34263 -0.0406,0.72365 0,1.08204 0.03683,0.32507 0.410554,0.69099 0.219546,0.95659 -0.217737,0.30277 -0.741272,0.13418 -1.113409,0.10978 -0.482057,-0.0316 -1.167405,0.0876 -1.411364,-0.32933 -0.321624,-0.54971 0.307869,-1.23906 0.533183,-1.83476 0.177857,-0.47023 0.298092,-0.9985 0.642953,-1.36432 0.359429,-0.38127 0.987782,-0.40528 1.38,-0.75273 0.33659,-0.29817 0.561916,-0.70678 0.784091,-1.09772 0.160755,-0.28287 0.152313,-0.6739 0.392043,-0.89387 0.215585,-0.19781 0.543824,-0.22697 0.831136,-0.28227 0.776176,-0.14941 2.367952,-0.12545 2.367952,-0.12545 z"
         id="path43804" /><path
         style="opacity:1;fill:#1a1a1a;fill-opacity:1;fill-rule:evenodd;stroke:none;stroke-width:0.928;stroke-linecap:round;stroke-linejoin:round"
         d="m 40.929508,199.40981 c 0,0 -1.536819,1.88181 -0.188183,2.13272 1.348635,0.25091 1.881818,-1.16045 3.010906,-0.81545 1.129091,0.345 2.258179,0.78409 2.916817,0.43909 0.658635,-0.345 0.815454,-3.41863 1.254543,-5.17499 0.439092,-1.75637 1.630907,-4.45364 1.693635,-6.555 0.06273,-2.10136 -0.376365,-7.11954 -0.125455,-7.65272 0.25091,-0.53318 2.320906,-9.31499 2.414997,-10.03635 0.09409,-0.72137 2.538143,-14.7386 5.022014,-16.86763 1.241936,-1.06452 3.204597,-3.59804 5.751866,-4.78733 2.547269,-1.18929 5.566028,-0.55389 7.640864,-0.31894 2.65066,0.30016 3.877361,0.40616 5.946265,0.63392 1.926871,0.21212 3.766022,0.30749 5.334201,1.49931 0.78409,0.59591 2.183507,1.5106 3.224386,3.26304 1.04088,1.75244 1.723223,4.34263 2.781745,6.49104 2.117048,4.29682 4.030223,8.62499 4.78295,9.94226 1.505457,2.63455 2.954305,5.53887 2.954305,5.53887 l 6.847816,-3.99788 c 0,0 -2.774787,-4.8487 -3.757514,-7.58779 -0.982728,-2.73909 -2.365924,-6.06091 -3.262923,-8.95915 -0.549767,-1.77632 -1.562836,-4.27126 -2.033799,-6.43452 -0.470964,-2.16327 -0.804486,-3.88245 -0.804486,-3.88245 0,0 -0.410481,-1.94926 -2.041389,-2.20017 -1.630907,-0.25091 -8.622237,-3.82165 -8.622237,-3.82165 0,0 -5.770904,-2.38363 -8.405447,-2.75999 -2.634544,-0.37637 -10.161807,-3.01091 -10.161807,-3.01091 l -4.892723,-0.75273 -4.139996,3.13636 -7.276359,3.63818 h -3.261815 l -0.376362,34.62543 -3.010905,15.55635 z"
         id="path44400" /><path
         style="opacity:1;fill:#705243;fill-opacity:1;fill-rule:evenodd;stroke:none;stroke-width:0.928;stroke-linecap:round;stroke-linejoin:round"
         d="m 42.654505,104.25263 c -1.345226,-1.34709 -3.804675,-0.15682 -5.708176,-0.18819 -0.836249,-0.0138 -1.69412,0.18796 -2.509089,0 -0.883874,-0.20385 -1.584047,-0.91038 -2.446361,-1.19181 -0.787601,-0.25705 -1.624764,-0.33248 -2.446362,-0.43909 -1.289759,-0.16735 -2.618726,-0.035 -3.889087,-0.31364 -1.30518,-0.28633 -2.576113,-0.7674 -3.763632,-1.38 -0.788596,-0.40681 -1.565622,-0.880396 -2.195453,-1.505446 -0.596976,-0.59245 -0.712609,-1.65251 -1.442726,-2.07 -0.473323,-0.27065 -1.124683,-0.328 -1.630907,-0.12545 -0.261173,0.10449 -0.297196,0.53977 -0.564545,0.62727 -0.97433,0.31888 -2.022867,-0.90074 -3.010906,-0.62727 -1.069549,0.29602 -2.15119,1.18839 -2.446362,2.25817 -0.353705,1.281926 0.130634,2.948006 1.12909,3.826366 1.287884,1.13298 3.414941,0.40698 5.080904,0.81545 1.862327,0.45662 3.660545,1.14935 5.457268,1.81909 2.565081,0.95615 4.931201,2.48468 7.589994,3.13636 2.059231,0.50472 4.226026,0.3512 6.335447,0.56455 2.219196,0.22446 5.009184,2.26465 6.649085,0.75272 1.461121,-1.3471 1.216111,-4.55284 -0.188182,-5.95908 z"
         id="path46239" /><path
         style="opacity:1;fill:#705243;fill-opacity:1;fill-rule:evenodd;stroke:none;stroke-width:0.928;stroke-linecap:round;stroke-linejoin:round"
         d="m 59.346774,100.10887 c -0.159785,0.64246 -0.480713,1.29033 -0.975807,1.72984 -0.431215,0.3828 -1.117673,0.34447 -1.596774,0.66532 -0.364835,0.24433 -0.864306,0.49752 -0.931452,0.93145 -0.06876,0.44438 0.235694,0.96571 0.620969,1.19758 1.418845,0.8539 3.3385,-0.34069 4.96774,-0.0443 2.541968,0.46243 4.751911,2.0627 7.22984,2.79435 0.347621,0.10264 0.709288,0.29381 1.064516,0.22178 0.343661,-0.0697 0.688491,-0.29575 0.864918,-0.59879 0.459315,-0.78894 0.24119,-1.81493 0.243954,-2.72783 8.09e-4,-0.26705 -0.205984,-0.57064 -0.06653,-0.79838 0.346253,-0.56547 1.52516,-0.17088 1.840724,-0.75403 0.186301,-0.34428 -0.438069,-0.82696 -0.221773,-1.15323 0.254761,-0.38429 1.100297,0.0974 1.352822,-0.28831 0.566156,-0.86488 -0.573979,-2.005669 -0.620969,-3.038304 -0.02434,-0.53498 0.153046,-1.061795 0.177419,-1.596774 0.03432,-0.753396 -0.04874,-1.507933 -0.04435,-2.262097 0.0041,-0.710011 0.355281,-1.480374 0.06653,-2.129031 -0.535444,-1.202834 -1.801158,-2.0431 -3.016128,-2.550403 -1.225952,-0.511888 -2.642789,-0.419186 -3.969758,-0.354838 -1.27729,0.06194 -2.607586,0.177019 -3.770162,0.709676 -0.679085,0.311136 -1.19959,0.894396 -1.752015,1.397177 -0.425314,0.387094 -0.911564,0.743009 -1.197581,1.241936 -0.339879,0.592883 -0.487205,1.293712 -0.554434,1.973791 -0.09482,0.959185 0.172229,1.920478 0.221774,2.883064 0.04371,0.849283 0.271778,1.725087 0.06653,2.550353 z"
         id="path58154" /><path
         style="opacity:1;fill:#281d15;fill-opacity:1;fill-rule:evenodd;stroke:none;stroke-width:0.928;stroke-linecap:round;stroke-linejoin:round"
         d="m 65.512097,97.403226 c -0.183354,0.547483 0.35216,1.110032 0.399193,1.685483 0.06942,0.849356 -0.09402,1.702301 -0.177419,2.550401 -0.04011,0.4079 -0.08551,0.81587 -0.155242,1.21976 -0.0412,0.23862 0.02993,0.55364 -0.155241,0.70968 -0.628119,0.5293 -1.961549,-0.54069 -2.461694,0.11088 -0.880278,1.1468 -0.145446,3.27135 0.93145,4.23589 1.165749,1.04412 3.141139,0.84075 4.668348,0.49899 0.582732,-0.1304 1.037697,-0.59383 1.530242,-0.93145 0.265261,-0.18182 0.597253,-0.3134 0.765121,-0.5877 0.255059,-0.41678 0.254151,-0.95305 0.266129,-1.44153 0.01225,-0.4996 -0.183438,-0.98641 -0.199597,-1.48589 -0.0069,-0.21478 -0.09549,-0.47998 0.04435,-0.64314 0.414316,-0.48339 1.538296,0.12632 1.862902,-0.42137 0.10976,-0.18519 -0.08168,-0.42816 -0.177419,-0.62097 -0.09864,-0.19863 -0.205123,-0.42493 -0.399193,-0.53226 -0.23369,-0.12925 -0.55546,-0.17741 -0.798388,-0.0665 -0.216552,0.0989 -0.2562,0.40518 -0.42137,0.57661 -0.248326,0.25774 -0.48982,0.60581 -0.842743,0.66532 -0.555587,0.0937 -1.138857,-0.22615 -1.596773,-0.55443 -0.274012,-0.19644 -0.484062,-0.49029 -0.62097,-0.79839 -0.292666,-0.65862 -0.270961,-1.41616 -0.377015,-2.129033 -0.127101,-0.854347 -0.136276,-1.726581 -0.310483,-2.572581 -0.05284,-0.256606 0.02879,-0.677505 -0.221774,-0.754031 -0.64271,-0.196293 -1.339003,0.649031 -1.552414,1.286261 z"
         id="path58156" /><path
         style="opacity:1;fill:#0d0d0d;fill-opacity:1;fill-rule:evenodd;stroke:none;stroke-width:0.928;stroke-linecap:round;stroke-linejoin:round"
         d="m 47.991934,101.12903 -4.346773,1.24194 -4.612902,1.8629 c 0,0 -0.975807,2.21774 0.08871,4.70161 1.064517,2.48387 1.596774,3.01613 1.596774,3.01613 0,0 1.862902,-1.24193 2.66129,-0.26613 0.798388,0.97581 0.354838,8.42742 0.354838,8.42742 0,0 -0.532257,4.34678 -0.709676,5.94355 -0.177419,1.59677 0.354838,8.60484 0.443548,9.84678 0.08871,1.24193 -0.620967,5.5887 -0.620967,5.5887 l 5.5,-0.62096 8.07258,-5.41129 2.66129,-1.33065 5.588709,1.59678 -1.153226,-3.37097 c 0,0 -0.443547,-1.24194 -0.08871,-2.04033 0.354838,-0.79838 3.282259,-4.87903 3.282259,-4.87903 l 3.370966,-4.96774 c 0,0 0.975807,-1.59677 2.306453,-1.33064 1.330645,0.26612 3.016128,0.9758 3.016128,0.9758 l 6.988387,-6.26795 -4.149678,-1.09495 -5.145161,-3.19355 -6.830645,-4.08064 c 0,0 -1.941489,-1.88304 -3.193547,-2.21775 -1.691479,-0.45219 -5.233871,0.44355 -5.233871,0.44355 L 54.733872,101.75 Z"
         id="path45629" /><g
         id="g56542"><path
           style="opacity:1;fill:#8b2d3c;fill-opacity:1;fill-rule:evenodd;stroke:none;stroke-width:0.928;stroke-linecap:round;stroke-linejoin:round"
           d="m 118.67989,120.93807 c 0.3097,-0.18291 0.52586,-0.52154 0.27258,-0.8619 -0.16989,-0.38822 -0.62708,-0.33055 -0.92614,-0.14215 -0.54289,0.17528 -1.12503,0.0413 -1.67714,-0.0208 -0.72572,-0.10083 -1.56608,-0.22773 -2.18868,0.25832 -0.5616,0.46516 -0.64616,1.23835 -0.80617,1.90351 -0.15842,0.89007 -0.7679,1.66898 -0.72839,2.59606 0.0563,0.77364 0.71422,1.28642 1.25077,1.7617 0.43441,0.37178 0.85143,0.89592 1.47174,0.91119 0.77639,-0.0123 1.35303,-0.71603 2.13869,-0.69309 0.40278,-0.0261 0.924,0.0591 1.19274,-0.31833 0.28855,-0.46915 -0.0118,-1.00197 -0.19501,-1.45245 -0.17922,-0.37807 -0.27489,-0.79106 -0.25033,-1.21044 -0.01,-0.92364 0.0266,-1.88806 0.44534,-2.73165 z"
           id="path48470" /><path
           style="opacity:1;fill:#af5865;fill-opacity:1;fill-rule:evenodd;stroke:none;stroke-width:0.928;stroke-linecap:round;stroke-linejoin:round"
           d="m 118.80534,120.24807 c 0.42079,0.42079 -0.46922,1.10623 -0.56454,1.69363 -0.16411,1.01132 0,2.04909 0,3.07364 0,0.39727 0.10197,0.80785 0,1.19181 -0.0433,0.16293 -0.0944,0.37656 -0.25091,0.4391 -0.20272,0.081 -0.49696,-0.013 -0.62727,-0.18819 -0.6615,-0.88909 -0.0284,-2.21672 0,-3.32454 0.0209,-0.81626 -0.36879,-1.79641 0.12545,-2.44636 0.28016,-0.36842 0.98999,-0.76637 1.31727,-0.43909 z"
           id="path54675" /></g><path
         style="opacity:1;fill:#705243;fill-opacity:1;fill-rule:evenodd;stroke:none;stroke-width:0.928;stroke-linecap:round;stroke-linejoin:round"
         d="m 80.60447,114.1008 c 0,0 3.817557,1.92926 5.896359,2.25818 1.59236,0.25195 3.225975,-0.4128 4.829995,-0.25091 2.492589,0.25157 4.816628,1.4064 7.276356,1.88182 2.87737,0.55615 5.78846,1.12261 8.71908,1.12909 1.01144,0.002 2.00018,-0.33834 3.01091,-0.37637 1.27609,-0.048 2.55519,0.0664 3.82636,0.18819 0.44153,0.0423 1.10939,-0.20364 1.31727,0.18818 0.42512,0.80129 -0.93599,1.57611 -1.19182,2.44636 -0.24943,0.84848 -0.0487,1.79077 -0.31363,2.63454 -0.21295,0.67827 -0.39404,1.51606 -1.00364,1.88182 -0.35859,0.21515 -0.85153,0.11163 -1.25454,0 -0.70498,-0.19527 -1.20152,-0.86018 -1.88182,-1.12909 -1.01451,-0.40101 -2.11882,-0.53816 -3.19909,-0.69 -4.9597,-0.6971 -10.042245,-0.2378 -14.991802,-1.00363 -2.084833,-0.32258 -4.126355,-0.90006 -6.147265,-1.50546 -1.254374,-0.37577 -2.41484,-1.07092 -3.700907,-1.31727 -1.685055,-0.32277 -3.462441,0.15416 -5.14363,-0.18818 -0.745796,-0.15187 -1.436054,-0.50898 -2.132727,-0.81545 -0.427963,-0.18826 -1.254543,-0.62728 -1.254543,-0.62728 v -1.38 l 0.815454,-0.50181 z"
         id="path56598" /><path
         style="opacity:1;fill:#281f18;fill-opacity:1;fill-rule:evenodd;stroke:none;stroke-width:0.928;stroke-linecap:round;stroke-linejoin:round"
         d="m 59.014114,100.26411 c -0.122257,0.46751 0.889432,0.40451 1.264113,0.70968 0.46318,0.37725 0.65232,1.06431 1.175401,1.35282 0.170281,0.0939 0.428301,0.21448 0.576614,0.0887 0.986715,-0.8368 -0.293924,-2.632287 0.04435,-3.881048 0.160148,-0.591197 0.442019,-1.200748 0.909275,-1.59677 0.34257,-0.290344 0.826022,-0.56437 1.264113,-0.465729 0.484489,0.109088 0.550087,0.998795 1.042337,1.064519 0.883467,0.117957 1.446312,-1.119184 2.306452,-1.352825 0.292493,-0.07945 0.675671,0.193116 0.909275,0 0.272655,-0.225399 0.197727,-0.688585 0.199596,-1.042339 0.0029,-0.540857 -0.449889,-1.08061 -0.288306,-1.596774 0.09682,-0.30929 0.396826,-0.54417 0.687499,-0.687501 0.508241,-0.250614 1.121589,-0.277773 1.685486,-0.221774 0.660675,0.06561 1.272591,0.386916 1.885079,0.643147 0.27449,0.114831 0.514848,0.489391 0.798388,0.399192 0.343528,-0.109282 0.448429,-0.598448 0.51008,-0.953629 0.12909,-0.743709 -0.03227,-1.547438 -0.332661,-2.239921 -0.255454,-0.588892 -0.700908,-1.10141 -1.19758,-1.508064 -0.578129,-0.473347 -1.273227,-0.830593 -1.995969,-1.020159 -0.529579,-0.138902 -1.097307,-0.0033 -1.641129,-0.06654 -0.46371,-0.05396 -0.910559,-0.21887 -1.375,-0.266128 -0.632529,-0.06436 -1.284667,0.106738 -1.907257,-0.02217 -0.580787,-0.120252 -1.071658,-0.521743 -1.641131,-0.687499 -0.504101,-0.146728 -1.027665,-0.282917 -1.552418,-0.266128 -0.957,0.03062 -1.903911,0.313332 -2.794355,0.665321 -0.49884,0.19719 -1.140518,0.327377 -1.397177,0.798388 -0.4605,0.845092 0.0624,1.925139 0.155241,2.883064 0.04105,0.423516 0.130323,0.841227 0.177419,1.264113 0.08949,0.803554 0.107573,1.614071 0.199597,2.417339 0.09269,0.809121 0.276682,1.606682 0.35484,2.417337 0.03054,0.316752 0.04174,0.63542 0.04436,0.95363 0.0061,0.739557 0.464216,1.702685 -0.06653,2.217748 0,0 -2e-6,0 -2e-6,0 z"
         id="path58914" /><path
         style="opacity:1;fill:#000000;fill-opacity:1;fill-rule:evenodd;stroke:none;stroke-width:0.928;stroke-linecap:round;stroke-linejoin:round"
         d="m 95.362902,175.64516 c -1.001502,0.76719 -0.574495,2.4675 -0.665321,3.72581 -0.04899,0.6787 -0.17624,1.40463 0.06653,2.04032 0.147907,0.38729 0.487696,0.67914 0.798385,0.95363 0.316561,0.27967 0.650413,0.60416 1.064517,0.6875 1.074733,0.2163 2.195758,-0.23637 3.237904,-0.57662 0.719723,-0.23498 1.306303,-0.81245 2.040323,-0.99798 1.06876,-0.27014 2.20645,-0.23127 3.30444,-0.13306 1.22191,0.1093 2.37647,0.63807 3.59274,0.79838 0.50618,0.0667 1.02143,0.10879 1.53024,0.0665 0.85105,-0.0707 1.70678,-0.23151 2.50605,-0.53226 0.19825,-0.0746 0.48595,-0.11005 0.55443,-0.31049 0.10387,-0.30404 -0.22902,-0.60191 -0.37701,-0.88709 -0.23244,-0.44792 -0.44014,-0.93087 -0.79839,-1.28629 -0.50402,-0.50004 -1.18023,-0.79803 -1.81855,-1.10887 -0.51107,-0.24888 -1.04755,-0.4522 -1.59677,-0.5988 -0.52839,-0.14104 -1.09792,-0.0999 -1.61895,-0.26612 -1.04259,-0.33254 -2.07148,-0.78848 -2.9496,-1.44154 -0.32322,-0.24038 -0.53581,-0.60219 -0.82057,-0.88709 -0.3846,-0.38479 -0.84056,-0.69836 -1.19758,-1.10887 -0.27184,-0.31257 -0.44982,-0.69756 -0.70967,-1.02016 -0.0886,-0.10999 -0.15352,-0.35266 -0.28831,-0.31049 -0.29933,0.0937 -0.10165,0.61939 -0.13306,0.93145 -0.0504,0.50103 0.0816,1.03417 -0.0887,1.50807 -0.16098,0.44807 -0.45316,0.87953 -0.84274,1.15322 -0.365602,0.25684 -0.839543,0.38369 -1.286297,0.37702 -0.6919,-0.0103 -1.295725,-0.5051 -1.973792,-0.64315 -0.501714,-0.10215 -1.123795,-0.44438 -1.530249,-0.13302 z"
         id="path63425" /><path
         style="opacity:1;fill:#efea00;fill-opacity:1;fill-rule:evenodd;stroke:none;stroke-width:0.928;stroke-linecap:round;stroke-linejoin:round"
         d="m 95.20766,176.79839 c -0.429646,0.59431 -0.944623,1.5081 -0.554434,2.12903 0.448947,0.71443 1.682975,0.22233 2.483871,0.4879 0.910154,0.3018 1.77113,0.75092 2.594756,1.24194 0.431827,0.25744 0.848627,0.54796 1.219757,0.88709 0.058,0.053 0.0803,0.15392 0.15525,0.17742 0.0582,0.0182 0.11889,-0.0273 0.17741,-0.0443 0.42647,-0.12412 0.82866,-0.33387 1.26412,-0.42137 0.29072,-0.0584 0.59057,-0.0645 0.88709,-0.0665 0.3629,-0.002 0.74733,0.19507 1.0867,0.0665 0.0391,-0.0148 0.0766,-0.0487 0.0887,-0.0887 0.0546,-0.18039 0.003,-0.4039 -0.11089,-0.55444 -0.30041,-0.39876 -0.88437,-0.4637 -1.33065,-0.6875 -1.08759,-0.54541 -2.19108,-1.05857 -3.282253,-1.59677 -0.652296,-0.32173 -1.282823,-0.68994 -1.951614,-0.97581 -0.382721,-0.16359 -0.918513,-0.0939 -1.175404,-0.42137 -0.220194,-0.2807 0.21087,-0.91041 -0.110887,-1.06452 -0.515952,-0.24712 -1.106356,0.46778 -1.441522,0.9314 z"
         id="path63427" /><path
         style="opacity:1;fill:#efea00;fill-opacity:1;fill-rule:evenodd;stroke:none;stroke-width:0.928;stroke-linecap:round;stroke-linejoin:round"
         d="m 104.67742,176.35484 c 1e-5,-0.13307 0.0675,-0.28451 0,-0.3992 -0.0772,-0.13119 -0.27503,-0.13371 -0.3992,-0.22177 -0.43567,-0.30897 -0.80898,-0.69811 -1.19758,-1.06452 -0.0532,-0.0502 -0.0823,-0.16153 -0.15524,-0.15524 -0.24316,0.021 -0.26427,0.41201 -0.42137,0.59879 -0.32974,0.39204 -0.72789,0.72106 -1.08669,1.08669 -0.19408,0.19778 -0.47062,0.34278 -0.57662,0.5988 -0.15273,0.3689 -0.15725,0.82185 -0.0222,1.19758 0.0692,0.19241 0.21344,0.38028 0.3992,0.46572 0.43655,0.20078 0.9626,0.039 1.44153,0 0.45545,-0.0371 0.98222,0.0456 1.35282,-0.22177 0.27086,-0.19539 0.34092,-0.57732 0.46573,-0.8871 0.0892,-0.22134 0.16598,-0.45125 0.19959,-0.6875 0.0146,-0.10246 2e-5,-0.20699 3e-5,-0.31048 z"
         id="path63429" /><path
         style="opacity:1;fill:#ba334a;fill-opacity:1;fill-rule:evenodd;stroke:none;stroke-width:0.928;stroke-linecap:round;stroke-linejoin:round"
         d="m 116.875,50.032258 c 0.84853,-0.305581 1.84354,-0.264885 2.70564,0 0.47823,0.146937 0.94932,0.43695 1.24194,0.84274 0.35042,0.485942 0.6101,1.143326 0.4879,1.729841 -0.0857,0.411431 -0.42085,0.791162 -0.79838,0.975807 -1.07613,0.526323 -2.44904,0.445079 -3.59275,0.08871 -0.57598,-0.179469 -1.21386,-0.515392 -1.46371,-1.064516 -0.20899,-0.459332 -0.10163,-1.061323 0.13307,-1.508064 0.25885,-0.492695 0.76266,-0.875944 1.28629,-1.064518 z"
         id="path64190" /><path
         style="opacity:1;fill:#98283b;fill-opacity:1;fill-rule:evenodd;stroke:none;stroke-width:0.928;stroke-linecap:round;stroke-linejoin:round"
         d="m 72.387097,3.9032259 c -0.676479,0.6207066 0.06722,2.0054363 0.709676,2.6612902 0.96923,0.9894342 2.622789,0.9438824 3.991935,1.1532256 1.315683,0.2011686 2.685026,0.3406622 3.991935,0.08871 2.14645,-0.4138031 4.156128,-1.4507028 6.03226,-2.5725805 C 88.575426,4.3593211 90.058248,3.3851125 91.104838,2.0403227 91.324279,1.7583571 91.786572,1.330836 91.548385,1.0645163 90.594619,-0.00190249 88.772071,1.8072474 87.467741,2.3951615 86.404353,2.8744732 85.549088,3.7742858 84.451612,4.1693551 82.87358,4.7374149 81.154088,4.8152684 79.48387,4.9677422 78.187848,5.0860557 76.865035,5.2662405 75.580644,5.0564512 74.46365,4.874004 73.221036,3.1380407 72.387097,3.9032259 Z"
         id="path64194" /><path
         style="opacity:1;fill:#98283b;fill-opacity:1;fill-rule:evenodd;stroke:none;stroke-width:0.928;stroke-linecap:round;stroke-linejoin:round"
         d="m 10.157258,217.29435 c -0.1547,0.86571 0.332121,1.75662 0.754032,2.52823 0.336982,0.61629 0.836802,1.14543 1.375,1.59677 0.421601,0.35356 0.877067,0.93589 1.419355,0.84274 0.113805,-0.0196 0.193353,-0.1542 0.221774,-0.26612 0.09278,-0.36535 -0.08124,-0.75911 -0.221774,-1.10888 -0.215616,-0.53662 -0.590396,-0.99666 -0.931451,-1.46371 -0.408596,-0.55954 -0.927968,-1.03296 -1.330646,-1.59677 -0.281476,-0.39411 -0.270307,-1.21825 -0.754032,-1.24193 -0.295343,-0.0145 -0.480242,0.41858 -0.532258,0.70967 z"
         id="path65231" /><path
         style="opacity:1;fill:#98283b;fill-opacity:1;fill-rule:evenodd;stroke:none;stroke-width:0.928;stroke-linecap:round;stroke-linejoin:round"
         d="m 24.838709,230.29032 c -0.142403,0.51051 0.176534,1.17497 0.620968,1.46371 0.719198,0.46725 1.78501,0.29517 2.57258,-0.0444 0.835275,-0.36013 1.485972,-1.14545 1.90726,-1.95161 0.327691,-0.62706 0.240584,-1.39517 0.399192,-2.08468 0.08924,-0.38796 0.593651,-0.87341 0.310484,-1.15322 -0.426149,-0.4211 -1.201723,0.205 -1.729838,0.48789 -0.961262,0.51491 -1.627143,1.45437 -2.483872,2.12904 -0.515826,0.4062 -1.420362,0.52085 -1.596774,1.15327 z"
         id="path65233" /></g></g></svg>
