<svg version="1.1" xmlns="http://www.w3.org/2000/svg" xmlns:xlink="http://www.w3.org/1999/xlink" width="800" height="800"><defs/><g transform="scale(2,2)"><g id="background-8ba47a71"><rect fill="white" stroke="none" x="0" y="0" width="400" height="400" class="dcg-svg-background"/></g><g id="background-images-8ba47a71"/><g id="graphpaper-8ba47a71"><g id="axis-8ba47a71"><g id="yaxis-8ba47a71"><title>Y axis</title><g><path fill="none" stroke="rgb(0,0,0)" class="dcg-svg-axis-line" paint-order="fill stroke markers" d=" M 200 0 L 200 400" stroke-opacity="0.9" stroke-miterlimit="10" stroke-width="2" stroke-dasharray=""/></g></g><g id="xaxis-8ba47a71"><title>X axis</title><g><path fill="none" stroke="rgb(0,0,0)" class="dcg-svg-axis-line" paint-order="fill stroke markers" d=" M 0 200 L 400 200" stroke-opacity="0.9" stroke-miterlimit="10" stroke-width="2" stroke-dasharray=""/></g></g><g><g class="dcg-svg-axis-value"><text fill="none" stroke="#ffffff" font-family="Arial" font-size="17px" font-style="normal" font-weight="normal" text-decoration="normal" x="190.272705078125" y="218.124" text-anchor="middle" stroke-miterlimit="2" stroke-width="3" stroke-dasharray="">0</text><text fill="#000000" stroke="none" font-family="Arial" font-size="17px" font-style="normal" font-weight="normal" text-decoration="normal" x="190.272705078125" y="218.124" text-anchor="middle">0</text></g><g><path fill="none" stroke="rgb(0,0,0)" class="dcg-svg-tickmark" paint-order="fill stroke markers" d=" M 0 196 L 0 204 M 100 196 L 100 204 M 300 196 L 300 204 M 400 196 L 400 204 M 196 400 L 204 400 M 196 300 L 204 300 M 196 100 L 204 100 M 196 0 L 204 0" stroke-opacity="0.9" stroke-miterlimit="2" stroke-width="2" stroke-dasharray=""/></g><g class="dcg-svg-axis-value dcg-svg-offcenter-axis-value"><text fill="none" stroke="#ffffff" font-family="Arial" font-size="17px" font-style="normal" font-weight="normal" text-decoration="normal" x="15.28515625" y="218.124" text-anchor="middle" stroke-miterlimit="2" stroke-width="3" stroke-dasharray="">-10</text><text fill="#000000" stroke="none" font-family="Arial" font-size="17px" font-style="normal" font-weight="normal" text-decoration="normal" x="15.28515625" y="218.124" text-anchor="middle">-10</text></g><g class="dcg-svg-axis-value"><text fill="none" stroke="#ffffff" font-family="Arial" font-size="17px" font-style="normal" font-weight="normal" text-decoration="normal" x="97.16943359375" y="218.124" text-anchor="middle" stroke-miterlimit="2" stroke-width="3" stroke-dasharray="">-5</text><text fill="#000000" stroke="none" font-family="Arial" font-size="17px" font-style="normal" font-weight="normal" text-decoration="normal" x="97.16943359375" y="218.124" text-anchor="middle">-5</text></g><g class="dcg-svg-axis-value"><text fill="none" stroke="#ffffff" font-family="Arial" font-size="17px" font-style="normal" font-weight="normal" text-decoration="normal" x="300" y="218.124" text-anchor="middle" stroke-miterlimit="2" stroke-width="3" stroke-dasharray="">5</text><text fill="#000000" stroke="none" font-family="Arial" font-size="17px" font-style="normal" font-weight="normal" text-decoration="normal" x="300" y="218.124" text-anchor="middle">5</text></g><g class="dcg-svg-axis-value dcg-svg-offcenter-axis-value"><text fill="none" stroke="#ffffff" font-family="Arial" font-size="17px" font-style="normal" font-weight="normal" text-decoration="normal" x="387.54541015625" y="218.124" text-anchor="middle" stroke-miterlimit="2" stroke-width="3" stroke-dasharray="">10</text><text fill="#000000" stroke="none" font-family="Arial" font-size="17px" font-style="normal" font-weight="normal" text-decoration="normal" x="387.54541015625" y="218.124" text-anchor="middle">10</text></g><g class="dcg-svg-axis-value dcg-svg-offcenter-axis-value"><text fill="none" stroke="#ffffff" font-family="Arial" font-size="17px" font-style="normal" font-weight="normal" text-decoration="normal" x="182.71484375" y="393.124" text-anchor="middle" stroke-miterlimit="2" stroke-width="3" stroke-dasharray="">-10</text><text fill="#000000" stroke="none" font-family="Arial" font-size="17px" font-style="normal" font-weight="normal" text-decoration="normal" x="182.71484375" y="393.124" text-anchor="middle">-10</text></g><g class="dcg-svg-axis-value"><text fill="none" stroke="#ffffff" font-family="Arial" font-size="17px" font-style="normal" font-weight="normal" text-decoration="normal" x="187.442138671875" y="304.624" text-anchor="middle" stroke-miterlimit="2" stroke-width="3" stroke-dasharray="">-5</text><text fill="#000000" stroke="none" font-family="Arial" font-size="17px" font-style="normal" font-weight="normal" text-decoration="normal" x="187.442138671875" y="304.624" text-anchor="middle">-5</text></g><g class="dcg-svg-axis-value"><text fill="none" stroke="#ffffff" font-family="Arial" font-size="17px" font-style="normal" font-weight="normal" text-decoration="normal" x="190.272705078125" y="104.624" text-anchor="middle" stroke-miterlimit="2" stroke-width="3" stroke-dasharray="">5</text><text fill="#000000" stroke="none" font-family="Arial" font-size="17px" font-style="normal" font-weight="normal" text-decoration="normal" x="190.272705078125" y="104.624" text-anchor="middle">5</text></g><g class="dcg-svg-axis-value dcg-svg-offcenter-axis-value"><text fill="none" stroke="#ffffff" font-family="Arial" font-size="17px" font-style="normal" font-weight="normal" text-decoration="normal" x="185.54541015625" y="16.124000000000002" text-anchor="middle" stroke-miterlimit="2" stroke-width="3" stroke-dasharray="">10</text><text fill="#000000" stroke="none" font-family="Arial" font-size="17px" font-style="normal" font-weight="normal" text-decoration="normal" x="185.54541015625" y="16.124000000000002" text-anchor="middle">10</text></g></g></g></g><g id="expressions-8ba47a71"><g id="sketch-8ba47a71"><title>Expression 1</title><path fill="#c74440" stroke="none" paint-order="stroke fill markers" d="" fill-opacity="0.4"/><g><path fill="none" stroke="#c74440" class="dcg-svg-curve" paint-order="fill stroke markers" d=" M 81.71542271887219 -6.5 L 81.71542271887219 -6.5 L 82.12890625 -3.195362091064453 L 86.1328125 27.181930541992188 L 90.0390625 55.27336120605469 L 93.84765625 81.1933708190918 L 97.55859375 105.05353927612305 L 101.171875 126.96258544921875 L 104.6875 147.0263671875 L 108.10546875 165.34788131713867 L 111.42578125 182.02726364135742 L 114.6484375 197.1617889404297 L 117.7734375 210.8458709716797 L 120.80078125 223.17106246948242 L 123.73046875 234.22605514526367 L 126.5625 244.0966796875 L 129.296875 252.86590576171875 L 131.93359375 260.61384201049805 L 134.5703125 267.6665496826172 L 137.109375 273.80096435546875 L 139.55078125 279.0914726257324 L 141.89453125 283.6096000671387 L 144.23828125 287.5784111022949 L 146.58203125 290.9979057312012 L 148.828125 293.75946044921875 L 150.9765625 295.9288787841797 L 152.9296875 297.5005340576172 L 154.78515625 298.6402702331543 L 156.54296875 299.4024467468262 L 158.203125 299.83856201171875 L 159.86328125 299.9990653991699 L 161.5234375 299.8839569091797 L 163.18359375 299.49323654174805 L 164.84375 298.826904296875 L 166.6015625 297.8209686279297 L 168.359375 296.50604248046875 L 170.3125 294.6826171875 L 172.36328125 292.3574638366699 L 174.609375 289.32830810546875 L 176.85546875 285.7946586608887 L 179.19921875 281.5694999694824 L 181.54296875 276.7950248718262 L 183.984375 271.23748779296875 L 186.42578125 265.0839042663574 L 188.96484375 258.0518913269043 L 191.6015625 250.0670623779297 L 194.3359375 241.0521697998047 L 197.0703125 231.2895965576172 L 199.90234375 220.3901481628418 L 202.83203125 208.27085494995117 L 205.859375 194.84588623046875 L 208.984375 180.02655029296875 L 212.20703125 163.72129440307617 L 215.52734375 145.8357048034668 L 218.9453125 126.27250671386719 L 222.4609375 104.93156433105469 L 226.07421875 81.70988082885742 L 229.78515625 56.5015983581543 L 233.59375 29.197998046875 L 237.40234375 0.4438591003417969 L 238.27737595757446 -6.5" stroke-linecap="round" stroke-linejoin="round" stroke-miterlimit="10" stroke-width="3.5" stroke-opacity="0.9" stroke-dasharray=""/></g></g><g id="sketch-8ba47a71"><title>Expression 2</title><path fill="#2d70b3" stroke="none" paint-order="stroke fill markers" d="" fill-opacity="0.4"/><g><path fill="none" stroke="#2d70b3" class="dcg-svg-curve" paint-order="fill stroke markers" d=" M 104.31011791188344 -6.5 L 104.31011791188344 -6.5 L 104.58984375 -4.334583282470703 L 108.49609375 24.359569549560547 L 112.3046875 50.86723327636719 L 116.015625 75.29998779296875 L 119.62890625 97.76655197143555 L 123.14453125 118.37278366088867 L 126.5625 137.2216796875 L 129.8828125 154.4133758544922 L 133.10546875 170.04514694213867 L 136.23046875 184.21140670776367 L 139.2578125 197.0037078857422 L 142.1875 208.5107421875 L 145.01953125 218.81834030151367 L 147.8515625 228.3238983154297 L 150.5859375 236.7406463623047 L 153.22265625 244.1486930847168 L 155.76171875 250.62528610229492 L 158.203125 256.24481201171875 L 160.64453125 261.2682914733887 L 162.98828125 265.5300712585449 L 165.33203125 269.2425346374512 L 167.578125 272.28485107421875 L 169.82421875 274.8226737976074 L 171.875 276.69921875 L 173.73046875 278.0346488952637 L 175.48828125 278.9822196960449 L 177.1484375 279.5934295654297 L 178.80859375 279.92902755737305 L 180.46875 279.989013671875 L 182.12890625 279.77338790893555 L 183.7890625 279.2821502685547 L 185.44921875 278.5153007507324 L 187.20703125 277.4029350280762 L 189.0625 275.8935546875 L 191.015625 273.93280029296875 L 193.06640625 271.46345138549805 L 195.3125 268.2763671875 L 197.55859375 264.58478927612305 L 199.90234375 260.1948356628418 L 202.24609375 255.25556564331055 L 204.6875 249.5263671875 L 207.2265625 242.9357147216797 L 209.765625 235.70037841796875 L 212.40234375 227.5044059753418 L 215.13671875 218.27054977416992 L 217.96875 207.918701171875 L 220.8984375 196.3658905029297 L 223.828125 183.95477294921875 L 226.85546875 170.22825241088867 L 229.98046875 155.09763717651367 L 233.203125 138.47137451171875 L 236.5234375 120.25505065917969 L 239.94140625 100.35139083862305 L 243.45703125 78.66025924682617 L 247.0703125 55.07865905761719 L 250.78125 29.500732421875 L 254.58984375 1.8177604675292969 L 255.67652233111124 -6.5" stroke-linecap="round" stroke-linejoin="round" stroke-miterlimit="10" stroke-width="3.5" stroke-opacity="0.9" stroke-dasharray=""/></g></g></g><g id="labels-8ba47a71"/></g></svg>